<svg width="145" height="36" viewBox="0 0 145 36" fill="none" xmlns="http://www.w3.org/2000/svg">
<path d="M10.544 29.9266C8.94323 29.9266 7.41203 29.6386 5.95043 29.0626C4.48883 28.4604 3.22443 27.7535 2.15723 26.9419L3.89723 24.075C4.94123 24.8343 6.04323 25.4364 7.20323 25.8815C8.38643 26.3004 9.67403 26.5099 11.066 26.5099C12.2492 26.5099 13.1192 26.2874 13.676 25.8423C14.256 25.3972 14.546 24.8474 14.546 24.1928C14.546 23.8786 14.488 23.6037 14.372 23.3681C14.256 23.1063 14.024 22.8575 13.676 22.6219C13.328 22.3863 12.8408 22.1637 12.2144 21.9543C11.6112 21.7448 10.8108 21.5223 9.81323 21.2866C7.51643 20.763 5.83443 20.0299 4.76723 19.0874C3.72323 18.1448 3.20123 16.9404 3.20123 15.4743C3.20123 13.7724 3.85083 12.3848 5.15003 11.3114C6.44923 10.2379 8.30523 9.70117 10.718 9.70117C12.1332 9.70117 13.4556 9.96299 14.6852 10.4866C15.9148 11.0103 16.9704 11.5994 17.852 12.2539L16.0076 15.0423C15.1724 14.4401 14.2792 13.9688 13.328 13.6284C12.3768 13.2881 11.3908 13.1179 10.37 13.1179C9.23323 13.1179 8.42123 13.3274 7.93403 13.7463C7.44683 14.139 7.20323 14.6364 7.20323 15.2386C7.20323 15.9194 7.55123 16.4299 8.24723 16.7703C8.94323 17.1106 10.08 17.4772 11.6576 17.8699C13.0264 18.2103 14.1516 18.5768 15.0332 18.9695C15.9148 19.3623 16.6108 19.8074 17.1212 20.3048C17.6548 20.7761 18.026 21.3128 18.2348 21.915C18.4436 22.5172 18.548 23.1979 18.548 23.9572C18.548 24.795 18.374 25.5804 18.026 26.3135C17.678 27.0204 17.1676 27.6488 16.4948 28.1986C15.822 28.7223 14.9868 29.1412 13.9892 29.4554C12.9916 29.7695 11.8432 29.9266 10.544 29.9266ZM29.0092 29.9266C27.014 29.9266 25.564 29.259 24.6592 27.9237C23.7544 26.5623 23.302 24.6248 23.302 22.1114V10.1724H27.304V21.5223C27.304 23.0932 27.536 24.2452 28 24.9783C28.4872 25.6852 29.3224 26.0386 30.5056 26.0386C31.3176 26.0386 32.0368 25.8292 32.6632 25.4103C33.3128 24.9914 34.0204 24.2452 34.786 23.1717V10.1724H38.788V29.4554H35.5168L35.2036 26.3921H35.0644C34.2524 27.4655 33.3592 28.3295 32.3848 28.9841C31.4104 29.6124 30.2852 29.9266 29.0092 29.9266Z" fill="#0A0A0A"/>
<path d="M50.8851 29.9263C49.7947 29.9263 48.7972 29.7038 47.8924 29.2587C46.9876 28.7874 46.2103 28.1198 45.5607 27.2558C44.9343 26.3918 44.4471 25.3445 44.0991 24.114C43.7511 22.8572 43.5771 21.4303 43.5771 19.8332C43.5771 18.2623 43.7859 16.8485 44.2035 15.5918C44.6211 14.3351 45.1779 13.2747 45.8739 12.4107C46.5931 11.5467 47.4051 10.8791 48.3099 10.4078C49.2147 9.93652 50.1543 9.70088 51.1287 9.70088C52.1031 9.70088 52.9615 9.89724 53.7039 10.29C54.4463 10.6827 55.154 11.2456 55.8268 11.9787H55.9311L55.7223 8.71906V1.72852H59.7591V29.4551H56.4531L56.1399 27.2165H56.0355C55.3627 27.9758 54.5739 28.6172 53.6691 29.1409C52.7875 29.6645 51.8595 29.9263 50.8851 29.9263ZM51.8596 26.1954C53.2748 26.1954 54.5623 25.4231 55.7223 23.8783V15.1991C55.1191 14.5445 54.5159 14.0863 53.9127 13.8245C53.3095 13.5627 52.6947 13.4318 52.0683 13.4318C51.4651 13.4318 50.8967 13.5758 50.3631 13.8638C49.8527 14.1518 49.4003 14.5707 49.0059 15.1205C48.6115 15.6442 48.2983 16.2987 48.0663 17.0842C47.8343 17.8696 47.7183 18.7729 47.7183 19.794C47.7183 21.8885 48.0779 23.4856 48.7971 24.5852C49.5163 25.6587 50.5372 26.1954 51.8596 26.1954ZM73.0391 29.9263C71.9255 29.9263 70.8467 29.7038 69.8027 29.2587C68.7587 28.8136 67.8423 28.1591 67.0535 27.2951C66.2647 26.4311 65.6267 25.3707 65.1395 24.114C64.6755 22.8572 64.4435 21.4303 64.4435 19.8332C64.4435 18.2362 64.6755 16.8092 65.1395 15.5525C65.6267 14.2958 66.2647 13.2354 67.0535 12.3714C67.8423 11.5074 68.7587 10.8529 69.8027 10.4078C70.8467 9.93652 71.9255 9.70088 73.0391 9.70088C74.1527 9.70088 75.2315 9.93652 76.2755 10.4078C77.3195 10.8529 78.2359 11.5074 79.0247 12.3714C79.8135 13.2354 80.4399 14.2958 80.9039 15.5525C81.3911 16.8092 81.6347 18.2362 81.6347 19.8332C81.6347 21.4303 81.3911 22.8572 80.9039 24.114C80.4399 25.3707 79.8135 26.4311 79.0247 27.2951C78.2359 28.1591 77.3195 28.8136 76.2755 29.2587C75.2315 29.7038 74.1527 29.9263 73.0391 29.9263ZM73.0391 26.2347C74.4311 26.2347 75.5215 25.6587 76.3103 24.5067C77.0991 23.3285 77.4935 21.7707 77.4935 19.8332C77.4935 17.8696 77.0991 16.3118 76.3103 15.1598C75.5215 13.9816 74.4311 13.3925 73.0391 13.3925C71.6471 13.3925 70.5567 13.9816 69.7679 15.1598C68.9791 16.3118 68.5847 17.8696 68.5847 19.8332C68.5847 21.7707 68.9791 23.3285 69.7679 24.5067C70.5567 25.6587 71.6471 26.2347 73.0391 26.2347ZM95.437 29.9263C94.0914 29.9263 92.8386 29.7038 91.6786 29.2587C90.5418 28.8136 89.5442 28.1591 88.6858 27.2951C87.8506 26.4311 87.1894 25.3707 86.7022 24.114C86.2382 22.8572 86.0062 21.4303 86.0062 19.8332C86.0062 18.2362 86.2614 16.8092 86.7718 15.5525C87.3054 14.2958 88.013 13.2354 88.8946 12.3714C89.7762 11.5074 90.8086 10.8529 91.9918 10.4078C93.175 9.93652 94.4162 9.70088 95.7154 9.70088C97.1074 9.70088 98.3254 9.9627 99.3694 10.4863C100.437 11.01 101.33 11.6514 102.049 12.4107L100.135 15.2383C99.4622 14.6362 98.7778 14.178 98.0818 13.8638C97.409 13.5496 96.6898 13.3925 95.9242 13.3925C94.2074 13.3925 92.8154 13.9816 91.7482 15.1598C90.681 16.3118 90.1474 17.8696 90.1474 19.8332C90.1474 20.802 90.2866 21.6791 90.565 22.4645C90.8434 23.25 91.2262 23.9307 91.7134 24.5067C92.2238 25.0565 92.827 25.4885 93.523 25.8027C94.219 26.0907 94.9846 26.2347 95.8198 26.2347C96.7942 26.2347 97.6758 26.0252 98.4646 25.6063C99.2766 25.1874 100.019 24.69 100.692 24.114L102.362 27.0202C101.365 27.9889 100.263 28.722 99.0562 29.2194C97.873 29.6907 96.6666 29.9263 95.437 29.9263ZM114.877 29.9263C113.276 29.9263 111.745 29.6383 110.283 29.0623C108.821 28.4602 107.557 27.7532 106.49 26.9416L108.23 24.0747C109.274 24.834 110.376 25.4362 111.536 25.8812C112.719 26.3002 114.007 26.5096 115.399 26.5096C116.582 26.5096 117.452 26.2871 118.009 25.842C118.589 25.3969 118.879 24.8471 118.879 24.1925C118.879 23.8783 118.821 23.6034 118.705 23.3678C118.589 23.106 118.357 22.8572 118.009 22.6216C117.661 22.386 117.173 22.1634 116.547 21.954C115.944 21.7445 115.143 21.522 114.146 21.2863C111.849 20.7627 110.167 20.0296 109.1 19.0871C108.056 18.1445 107.534 16.9402 107.534 15.474C107.534 13.7722 108.183 12.3845 109.483 11.3111C110.782 10.2376 112.638 9.70088 115.051 9.70088C116.466 9.70088 117.788 9.9627 119.018 10.4863C120.247 11.01 121.303 11.5991 122.185 12.2536L120.34 15.042C119.505 14.4398 118.612 13.9685 117.661 13.6282C116.709 13.2878 115.723 13.1176 114.703 13.1176C113.566 13.1176 112.754 13.3271 112.267 13.746C111.779 14.1387 111.536 14.6362 111.536 15.2383C111.536 15.9191 111.884 16.4296 112.58 16.77C113.276 17.1103 114.413 17.4769 115.99 17.8696C117.359 18.21 118.484 18.5765 119.366 18.9692C120.247 19.362 120.943 19.8071 121.454 20.3045C121.987 20.7758 122.359 21.3125 122.567 21.9147C122.776 22.5169 122.881 23.1976 122.881 23.9569C122.881 24.7947 122.707 25.5802 122.359 26.3132C122.011 27.0202 121.5 27.6485 120.827 28.1983C120.155 28.722 119.319 29.1409 118.322 29.4551C117.324 29.7692 116.176 29.9263 114.877 29.9263ZM127.287 35.4245V31.89H143.991V35.4245H127.287Z" fill="#0A0A0A"/>
</svg>
