<svg width="115" height="36" viewBox="0 0 115 36" fill="none" xmlns="http://www.w3.org/2000/svg">
<path d="M19.4238 8.59863V12.6416C17.4512 10.9912 15.4102 10.166 13.3008 10.166C10.9766 10.166 9.01855 11.001 7.42676 12.6709C5.8252 14.3311 5.02441 16.3623 5.02441 18.7646C5.02441 21.1377 5.8252 23.1396 7.42676 24.7705C9.02832 26.4014 10.9912 27.2168 13.3154 27.2168C14.5166 27.2168 15.5371 27.0215 16.377 26.6309C16.8457 26.4355 17.3291 26.1719 17.8271 25.8398C18.335 25.5078 18.8672 25.1074 19.4238 24.6387V28.7549C17.4707 29.8584 15.4199 30.4102 13.2715 30.4102C10.0391 30.4102 7.28027 29.2822 4.99512 27.0264C2.71973 24.751 1.58203 22.0068 1.58203 18.7939C1.58203 15.9131 2.53418 13.3447 4.43848 11.0889C6.78223 8.3252 9.81445 6.94336 13.5352 6.94336C15.5664 6.94336 17.5293 7.49512 19.4238 8.59863ZM22.4707 18.5889C22.4707 15.4053 23.6377 12.6709 25.9717 10.3857C28.2959 8.10059 31.0889 6.95801 34.3506 6.95801C37.5732 6.95801 40.3369 8.11035 42.6416 10.415C44.9561 12.7197 46.1133 15.4883 46.1133 18.7207C46.1133 21.9727 44.9512 24.7314 42.627 26.9971C40.293 29.2725 37.4756 30.4102 34.1748 30.4102C31.2549 30.4102 28.6328 29.3994 26.3086 27.3779C23.75 25.1416 22.4707 22.2119 22.4707 18.5889ZM25.9131 18.6328C25.9131 21.1328 26.7529 23.1885 28.4326 24.7998C30.1025 26.4111 32.0312 27.2168 34.2188 27.2168C36.5918 27.2168 38.5938 26.3965 40.2246 24.7559C41.8555 23.0957 42.6709 21.0742 42.6709 18.6914C42.6709 16.2793 41.8652 14.2578 40.2539 12.627C38.6523 10.9863 36.6699 10.166 34.3066 10.166C31.9531 10.166 29.9658 10.9863 28.3447 12.627C26.7236 14.248 25.9131 16.25 25.9131 18.6328ZM49.6143 30L54.375 5.68359L62.1387 23.2617L70.1807 5.68359L74.458 30H70.957L68.7744 16.3477L62.0801 31.04L55.5762 16.333L53.1445 30H49.6143ZM82.6758 20.8154V30H79.2627V7.38281H83.1299C85.0244 7.38281 86.4551 7.51465 87.4219 7.77832C88.3984 8.04199 89.2578 8.54004 90 9.27246C91.2988 10.542 91.9482 12.1436 91.9482 14.0771C91.9482 16.1475 91.2549 17.7881 89.8682 18.999C88.4814 20.21 86.6113 20.8154 84.2578 20.8154H82.6758ZM82.6758 17.6514H83.9502C87.085 17.6514 88.6523 16.4453 88.6523 14.0332C88.6523 11.6992 87.0361 10.5322 83.8037 10.5322H82.6758V17.6514ZM100.269 26.792H108.691V30H93.501L101.353 20.4932C102.124 19.5459 102.769 18.7256 103.286 18.0322C103.813 17.3389 104.214 16.7578 104.487 16.2891C105.044 15.3711 105.322 14.5459 105.322 13.8135C105.322 12.7588 104.951 11.875 104.209 11.1621C103.467 10.4492 102.549 10.0928 101.455 10.0928C99.1699 10.0928 97.8613 11.4453 97.5293 14.1504H94.1309C94.6777 9.38477 97.085 7.00195 101.353 7.00195C103.413 7.00195 105.142 7.65625 106.538 8.96484C107.944 10.2734 108.647 11.8945 108.647 13.8281C108.647 15.0586 108.32 16.2646 107.666 17.4463C107.334 18.0615 106.846 18.7939 106.201 19.6436C105.566 20.4834 104.761 21.4795 103.784 22.6318L100.269 26.792Z" fill="white"/>
</svg>
