<svg width="199" height="36" viewBox="0 0 199 36" fill="none" xmlns="http://www.w3.org/2000/svg">
<path d="M55.783 7.17123L53 23.0197H56.4705L56.8758 19.5706H58.8146L59.2207 23.0197H62.8788L60.0959 7.17001L55.783 7.17123ZM57.5027 14.2172L57.7841 11.4758H57.8779L58.1593 14.2172L58.5659 17.4726H57.1271L57.5027 14.2172ZM72.1033 23.0194L73.2904 14.967L73.5094 12.9971H73.6032L73.5718 14.967V23.0197H76.9184V7.17001H72.3856L71.2286 15.2673L71.0096 17.045H70.9158L70.6658 15.2673L69.5093 7.17123H64.9442V23.0209H68.1023V14.967L68.0709 12.9971H68.1333L68.4147 14.967L69.5402 23.0197L72.1033 23.0194ZM79.5447 23.0194H86.8008V20.9207H83.2665V16.0592H86.4247V13.9602H83.2665V9.27017H86.7999V7.17123H79.5438L79.5447 23.0194ZM97.5857 10.2124C97.5857 8.13493 96.085 7 93.302 7C90.519 7 88.8307 8.13493 88.8307 10.2124V12.2671C88.8307 13.7447 89.5497 14.4945 90.8942 15.3509L92.7392 16.4859C93.7086 17.0856 93.99 17.2783 93.99 18.1563V20.2122C93.99 20.8547 93.771 21.2401 93.1772 21.2401C92.5835 21.2401 92.3339 20.8565 92.3339 20.214V16.9374H88.832V19.9785C88.832 22.056 90.3952 23.1909 93.1781 23.1909C95.9297 23.1909 97.6494 22.056 97.6494 19.9785V18.0939C97.6494 16.4877 97.1185 15.8452 95.5859 14.8385L93.8037 13.7247C92.8657 13.1038 92.4591 12.8038 92.4591 11.9258V9.97689C92.4591 9.33442 92.6782 8.94893 93.2719 8.94893C93.8657 8.94893 94.1161 9.33442 94.1161 9.97689V13.1892H97.5866L97.5857 10.2124Z" fill="white"/>
<path d="M110.448 15.4577V14.4298H106.728V8.17719H110.826V7.17075H104.977V23.0177H106.728V15.4577H110.448ZM121.046 10.1249C121.046 8.21871 119.701 7.01953 117.2 7.01953C114.668 7.01953 113.355 8.21901 113.355 10.1249V20.0838C113.355 21.9685 114.668 23.1677 117.2 23.1677C119.702 23.1677 121.046 21.9682 121.046 20.0838V10.1249ZM115.107 20.105V10.0822C115.107 8.77572 115.764 7.94051 117.202 7.94051C118.609 7.94051 119.266 8.77572 119.266 10.0822V20.105C119.266 21.4115 118.609 22.2467 117.202 22.2467C115.764 22.2467 115.107 21.4115 115.107 20.105ZM124.112 7.16954V20.0838C124.112 21.9685 125.395 23.1677 127.895 23.1677C130.428 23.1677 131.679 21.9682 131.679 20.0838V7.16954H129.928V20.105C129.928 21.4115 129.333 22.2467 127.895 22.2467C126.488 22.2467 125.862 21.4115 125.862 20.105V7.16954H124.112ZM136.994 7.16954H134.899V23.0177H136.399V9.9749H136.461L140.779 23.0177H142.372V7.16803H140.871V18.9901H140.809L136.994 7.16954ZM153.285 10.2749C153.285 8.36872 151.94 7.16954 149.47 7.16954H145.686V23.0177H149.47C151.94 23.0177 153.285 21.8182 153.285 19.9123V10.2749ZM147.437 22.0755V8.11173H149.47C150.814 8.11173 151.533 8.92543 151.533 10.2331V19.955C151.533 21.2615 150.814 22.0764 149.47 22.0764L147.437 22.0755ZM158.693 7.16954L155.596 23.0192H157.159L158.035 18.2646H161.287L162.164 23.0177H163.853L160.756 7.16803L158.693 7.16954ZM159.317 11.2171L159.63 9.31091H159.692L159.974 11.2171L161.099 17.2351H158.224L159.317 11.2171ZM172.295 8.17719V7.17075H164.665V8.17719H167.605V23.0177H169.356V8.17719H172.295ZM174.953 23.0177H176.705V7.16803H174.954L174.953 23.0177ZM187.616 10.1249C187.616 8.21871 186.271 7.01953 183.77 7.01953C181.238 7.01953 179.924 8.21901 179.924 10.1249V20.0838C179.924 21.9685 181.238 23.1677 183.77 23.1677C186.272 23.1677 187.616 21.9682 187.616 20.0838V10.1249ZM181.675 20.105V10.0822C181.675 8.77572 182.332 7.94051 183.77 7.94051C185.177 7.94051 185.834 8.77572 185.834 10.0822V20.105C185.834 21.4115 185.177 22.2467 183.77 22.2467C182.332 22.2467 181.675 21.4115 181.675 20.105ZM192.869 7.16954H190.775V23.0177H192.276V9.9749H192.338L196.652 23.0177H198.245V7.16803H196.748V18.9901H196.685L192.869 7.16954Z" fill="white"/>
<path d="M7.90625 15.209C8.45102 15.4548 8.96499 15.7312 9.44285 16.0354C9.36314 16.0117 9.28996 15.9788 9.22649 15.9381C8.93226 15.7705 8.62875 15.6096 8.3301 15.4451C8.18763 15.3672 8.04783 15.2881 7.90625 15.209Z" fill="white"/>
<path d="M9.5918 16.1348C9.65219 16.1753 9.71112 16.2159 9.76857 16.2564C9.69738 16.2253 9.63703 16.1838 9.5918 16.1348Z" fill="white"/>
<path d="M11.8818 1.5918C11.9006 1.59974 11.9207 1.60624 11.9416 1.61118C11.9416 1.61118 11.9442 1.61118 11.9451 1.61118C12.2675 1.66872 12.5995 1.69684 12.9326 1.69482C13.2976 1.73634 13.6622 1.78847 14.0264 1.84877C13.3233 1.72216 12.6059 1.63621 11.8818 1.5918Z" fill="white"/>
<path d="M49.4782 13.6928C49.4614 13.6067 49.4293 13.5223 49.3826 13.4416C49.3663 13.404 49.3194 13.3946 49.2605 13.3958C49.0773 13.3982 48.8937 13.3913 48.7106 13.3958C48.4343 13.3907 48.1584 13.4127 47.8912 13.4609C47.4022 13.5827 46.8989 13.6758 46.3869 13.7392C45.8873 13.7925 45.3874 13.8434 44.8861 13.8873C44.8145 13.8954 44.741 13.8864 44.678 13.8616C44.6151 13.8369 44.5665 13.798 44.5405 13.7516C44.4716 13.6738 44.4287 13.5866 44.4149 13.4961C44.409 13.4682 44.3969 13.4412 44.3791 13.4158C44.265 13.22 44.1001 13.04 43.8924 12.8845C43.7548 12.7721 43.6066 12.6648 43.4809 12.546C43.2902 12.3642 43.1141 12.1748 42.9354 11.9872C42.7832 11.8419 42.5839 11.7228 42.3531 11.6393C42.2449 11.6004 42.1485 11.5478 42.0691 11.4841C41.8847 11.3106 41.7602 11.1108 41.7049 10.8996C41.682 10.7705 41.6218 10.6458 41.528 10.5329C41.4143 10.4116 41.2961 10.2928 41.1687 10.1792C40.9559 9.9907 40.7395 9.80432 40.5143 9.6234C40.4493 9.57353 40.4017 9.51421 40.375 9.4499C40.3484 9.3856 40.3434 9.31798 40.3604 9.25215C40.3879 9.09149 40.3654 8.92866 40.2943 8.7744C40.2232 8.62013 40.1052 8.47796 39.948 8.35724C39.771 8.21147 39.6078 8.05903 39.4401 7.90902C39.3813 7.85175 39.3503 7.78325 39.3516 7.71325C39.3434 7.58752 39.3194 7.46251 39.2799 7.33959C39.2583 7.27888 39.2063 7.22526 39.133 7.18807C39.0693 7.16043 39.0223 7.11805 39.0003 7.06865C38.9102 6.87421 38.758 6.69595 38.5548 6.5468C38.4949 6.50354 38.4409 6.45669 38.3933 6.4068C38.2048 6.24024 38.0611 6.05204 37.969 5.851C37.946 5.78343 37.9423 5.71345 37.9579 5.64491C38.0221 5.4648 38.1217 5.2915 38.2539 5.12974C38.3271 5.02895 38.3688 4.91881 38.3764 4.80637C38.384 4.69393 38.3574 4.58164 38.2981 4.47665C38.2194 4.34361 38.1358 4.21179 38.0561 4.07845C38.0057 3.9948 37.9597 3.90963 37.9057 3.82659C37.8653 3.75009 37.7963 3.6822 37.7055 3.62975C37.6147 3.5773 37.5054 3.54215 37.3885 3.5278C36.9941 3.48858 36.6079 3.41736 36.2381 3.31566C36.0542 3.26307 35.8569 3.23598 35.6577 3.23595C35.4312 3.23962 35.2105 3.28517 35.0188 3.36778C34.8366 3.42433 34.6424 3.46075 34.4436 3.47567C34.4308 3.4781 34.4144 3.47263 34.3994 3.47203C34.3277 3.46748 34.2573 3.46384 34.1857 3.46021C34.0087 3.45142 33.8317 3.44081 33.6512 3.43566C33.5861 3.43765 33.5214 3.44352 33.4578 3.45323L32.9437 3.30626C32.8941 3.3088 32.8443 3.30605 32.7959 3.29808C32.6056 3.25844 32.4214 3.20606 32.246 3.14171C31.83 2.99169 31.3956 2.86686 30.9479 2.76865C30.801 2.72774 30.6426 2.70803 30.4997 2.66257C30.3568 2.61711 30.1926 2.60044 30.0457 2.55196C29.7445 2.46634 29.4063 2.46472 29.1033 2.54742C28.9695 2.58669 28.8281 2.61231 28.6834 2.62348C28.6461 2.65747 28.6121 2.6931 28.5817 2.73016C28.5532 2.76269 28.5367 2.79953 28.5339 2.83744C28.5361 2.92159 28.551 3.00537 28.5781 3.08746C28.6112 3.18596 28.623 3.28725 28.6131 3.38809C28.6045 3.48339 28.549 3.57387 28.4556 3.64477C28.3978 3.6859 28.3191 3.7101 28.2358 3.7123C28.1526 3.71451 28.0714 3.69454 28.0092 3.65659C27.8844 3.58992 27.7733 3.51143 27.6552 3.4387C27.5596 3.3696 27.4338 3.32357 27.2968 3.30748C27.0741 3.28907 26.855 3.25412 26.6434 3.20323C26.4919 3.16929 26.3646 3.09756 26.2867 3.0023C26.2398 2.94775 26.2022 2.88926 26.1491 2.83834C26.098 2.77743 26.0268 2.72549 25.9414 2.68658C25.856 2.64767 25.7585 2.62285 25.6567 2.61409C25.5567 2.60894 25.4585 2.59711 25.3567 2.58832C25.3539 2.55966 25.3539 2.53091 25.3567 2.50226C25.3649 2.47422 25.3577 2.44509 25.3363 2.42052C25.315 2.39594 25.2811 2.37767 25.2413 2.36923C25.1286 2.33669 25.0106 2.31349 24.89 2.30012C24.707 2.2865 24.523 2.28103 24.3391 2.28375C24.2754 2.28474 24.212 2.27703 24.1527 2.26106C24.0933 2.24508 24.0393 2.22118 23.9936 2.19073C23.8661 2.11042 23.7281 2.03919 23.5918 1.96403C23.5321 1.9307 23.4728 1.89737 23.4113 1.86676C23.3831 1.85401 23.363 1.83449 23.3548 1.81204C23.3466 1.7896 23.351 1.76586 23.3671 1.74553C23.4347 1.6354 23.4634 1.51593 23.4509 1.39677C23.4385 1.27762 23.3852 1.16213 23.2954 1.05972C23.2706 1.03275 23.256 1.00184 23.2295 0.976079C23.2087 0.958318 23.1989 0.935721 23.2021 0.913078C23.2053 0.890436 23.2214 0.869548 23.2467 0.854869C23.3405 0.78526 23.4039 0.699082 23.4299 0.606067C23.4588 0.543883 23.4565 0.47687 23.4235 0.41566C23.3905 0.354451 23.3286 0.30253 23.2476 0.268148C22.9515 0.128582 22.6112 0.0392537 22.2548 0.00752699C22.0973 -0.0100066 21.9358 0.00323953 21.7889 0.045723C21.7004 0.0739069 21.6349 0.106322 21.6358 0.185115C21.6393 0.213356 21.6346 0.241796 21.6218 0.268758C21.6091 0.295721 21.5885 0.320661 21.5615 0.342098C21.473 0.279973 21.546 0.19907 21.4889 0.134822C21.4596 0.131817 21.43 0.130088 21.4004 0.129662C21.2469 0.130199 21.0941 0.115815 20.9465 0.086934C20.8039 0.0589202 20.6579 0.040039 20.5102 0.0305556C20.2664 0.0217671 20.0209 0.0287373 19.7758 0.0305556C19.5466 0.0334965 19.3173 0.0276333 19.0891 0.0129836C18.8904 0.00545474 18.6911 0.00859766 18.4931 0.02238C18.3564 0.0293502 18.221 0.0526826 18.0843 0.0651077C17.7386 0.0893526 17.396 0.130891 17.0592 0.18937C16.8427 0.256504 16.605 0.285064 16.3681 0.272402C16.2861 0.268114 16.204 0.279226 16.1305 0.304531C15.9978 0.340898 15.8721 0.38816 15.7438 0.430587C15.5597 0.491198 15.3779 0.55605 15.1921 0.614539C15.1407 0.631036 15.085 0.640028 15.0283 0.640915C14.9716 0.641802 14.9153 0.634573 14.8629 0.619699C14.7302 0.583158 14.5877 0.566425 14.4448 0.570609C14.22 0.573033 13.9948 0.577576 13.7709 0.567575C13.6462 0.561817 13.5254 0.521821 13.4006 0.509698C13.3377 0.506471 13.2769 0.493038 13.223 0.470541C13.1692 0.448043 13.1239 0.417123 13.0909 0.380294C13.0361 0.317562 12.9728 0.259066 12.9184 0.195122C12.9034 0.172914 12.8815 0.153257 12.8541 0.137578C12.8267 0.1219 12.7946 0.11059 12.76 0.104469C12.7254 0.0983482 12.6893 0.097575 12.6543 0.102194C12.6192 0.106813 12.5861 0.116712 12.5573 0.131179C12.452 0.191409 12.357 0.259634 12.2742 0.334533C12.1622 0.429389 12.064 0.532416 11.9587 0.630908C11.8232 0.744944 11.7078 0.869566 11.6149 1.00216C11.529 1.12902 11.4316 1.25208 11.3234 1.37065C11.2914 1.40192 11.2503 1.42824 11.2026 1.44793C11.1437 1.47551 11.0778 1.49642 11.0163 1.52218L10.9814 1.53674C10.9455 1.55189 10.9088 1.56703 10.8721 1.58128L10.9663 1.57826C11.034 1.57584 11.1021 1.57371 11.1707 1.5731C11.2176 1.5731 11.2641 1.5731 11.3119 1.5731C11.498 1.5731 11.6856 1.57815 11.8747 1.58825C12.5986 1.63287 13.3158 1.71905 14.0187 1.84586C14.1444 1.86707 14.2683 1.88918 14.3908 1.911C15.7292 2.15344 17.041 2.46226 18.4613 2.76319C18.4484 2.74622 18.4347 2.72985 18.4219 2.71349C18.2551 2.50135 18.1361 2.34983 18.0038 2.18224L18.0679 2.17649C18.7236 2.12133 19.29 2.05041 19.8612 2.03404C20.2691 2.02222 20.6854 1.99706 21.1027 1.9807C22.2065 1.93736 23.3073 1.95434 24.2267 2.42468C25.1832 2.90515 26.103 3.41889 26.9827 3.96388C27.4549 4.26078 27.9041 4.57437 28.3286 4.90335C28.3782 4.94214 28.4277 4.98123 28.4764 5.02062C29.147 5.55161 29.726 6.13379 30.2019 6.75561C31.3257 8.24057 32.3535 9.78401 33.7516 11.1393C33.802 11.1884 33.8525 11.2365 33.9038 11.285L33.9193 11.2996C33.9414 11.3202 33.9635 11.3411 33.9843 11.3623C36.1284 13.3994 37.1509 15.6757 37.9044 18.3092C36.6191 18.0061 35.4913 17.7528 34.3768 17.4715C34.1648 17.4182 33.8697 17.267 33.8525 17.1458C33.8498 17.1282 33.847 17.1112 33.8441 17.0949C33.7787 17.0562 33.7336 17.0039 33.7158 16.9461C33.7056 16.8652 33.6844 16.7851 33.6525 16.7069C33.326 16.4087 32.699 16.6348 32.2885 16.7445C31.5087 17.0043 30.7577 17.3027 30.0413 17.6373C29.7335 17.7836 29.3859 17.8862 29.0193 17.9389C28.2729 17.9922 27.4672 17.6752 26.7832 18.1737C26.6849 18.2459 26.1434 18.141 25.939 18.0161C24.2851 17.0076 22.2508 16.727 20.1589 16.5236C19.9204 16.4998 19.6939 16.4367 19.4988 16.3397C19.7405 16.508 19.9047 16.7213 19.9709 16.953C19.9855 17.0345 20.0111 17.1158 20.0324 17.1991C20.1503 17.1906 20.2641 17.1646 20.366 17.123C20.4077 17.1099 20.4444 17.0903 20.4729 17.0656C20.5014 17.041 20.521 17.012 20.5301 16.9812C20.5404 16.9529 20.5478 16.9242 20.5523 16.8951C20.6531 16.8917 20.7542 16.8923 20.8549 16.897C21.0018 16.9088 21.1465 16.9303 21.2911 16.9509C21.3572 16.9534 21.4209 16.9684 21.4752 16.9942C21.634 17.087 21.7829 17.1875 21.9207 17.2949C22.0481 17.4176 22.1187 17.5637 22.1234 17.7143C22.1269 17.8443 22.1287 17.9737 22.1234 18.1037C22.1213 18.1702 22.1089 18.2363 22.0866 18.301C22.0424 18.4253 21.9849 18.5483 21.9344 18.6722C21.916 18.7408 21.889 18.8083 21.8539 18.8738C21.7743 18.987 21.6849 19.0969 21.5862 19.2029C21.4618 19.3344 21.4134 19.4929 21.4504 19.6476C21.4873 19.8022 21.6071 19.9419 21.7862 20.0393C21.8547 20.0816 21.919 20.1269 21.9787 20.1751C22.2508 20.3806 22.4654 20.6166 22.7056 20.8376C22.7605 20.8879 22.8202 20.9354 22.8782 20.9851C22.9038 20.9651 22.9259 20.9482 22.9596 20.9212C23.0202 20.9739 23.0759 21.0185 23.1246 21.0657C23.2109 21.1518 23.3016 21.2379 23.3768 21.3276C23.4797 21.4687 23.5485 21.6204 23.5803 21.7767C23.6024 21.8482 23.6206 21.9131 23.5272 21.9586C23.5446 22.0204 23.5822 22.0786 23.6373 22.129C23.6925 22.1793 23.7636 22.2205 23.8453 22.2492C23.8845 22.2622 23.9158 22.2842 23.9338 22.3114C23.9517 22.3386 23.9552 22.3692 23.9436 22.398C23.9216 22.4297 23.9143 22.4653 23.9227 22.5C23.9311 22.5346 23.9547 22.5667 23.9905 22.5919C24.0197 22.6201 24.0383 22.654 24.0683 22.6828C24.1275 22.7381 24.1664 22.8022 24.1818 22.8699C24.1972 22.9375 24.1886 23.0067 24.1568 23.0717C24.1489 23.0954 24.1392 23.1189 24.1276 23.142C24.0724 23.2479 24.0517 23.3609 24.067 23.4729C24.0638 23.5078 24.0638 23.5428 24.067 23.5778C24.0813 23.6891 24.1065 23.7997 24.1422 23.9087C24.1779 23.9736 24.2313 24.0333 24.2997 24.0845C24.3657 24.1417 24.4493 24.1893 24.5209 24.2445C24.5534 24.2712 24.5777 24.3021 24.5926 24.3354C24.6153 24.4005 24.6179 24.4682 24.6002 24.534C24.5825 24.5999 24.545 24.6625 24.49 24.7178C24.3597 24.8799 24.2118 25.035 24.0475 25.1818C23.9023 25.3131 23.793 25.4614 23.725 25.6194C23.6524 25.7828 23.5794 25.9467 23.5153 26.1119C23.4492 26.2846 23.3902 26.4584 23.3383 26.6331C23.2684 26.8622 23.2056 27.0935 23.1441 27.3238C23.1228 27.4017 23.1082 27.4814 23.0936 27.5605C23.0883 27.5776 23.0895 27.5953 23.0972 27.612C23.1467 27.6917 23.1963 27.7714 23.2529 27.8493C23.2972 27.9084 23.3485 27.966 23.4299 27.9705C23.4865 28.052 23.529 28.122 23.583 28.1872C23.6856 28.3142 23.7984 28.4366 23.8993 28.5645C23.8617 28.5024 23.8259 28.439 23.7923 28.3736C23.1286 27.092 23.6777 25.9737 24.9426 25.0021C25.7713 24.3657 26.5203 24.352 27.384 24.8327C27.384 25.0951 27.3968 25.3142 27.3805 25.5327C27.3667 25.7097 27.4114 25.9503 27.2659 26.0513C26.6907 26.4495 26.5031 26.8671 27.0358 27.3205C27.626 27.8229 28.529 28.0199 29.2754 27.6935C30.0583 27.3625 30.6847 26.8834 31.0788 26.314C32.2312 24.4751 32.3963 22.4161 31.5447 20.5018C31.4642 20.3178 31.4018 20.1299 31.2872 19.8293C33.4369 20.7291 36.0042 21.038 38.4729 20.6939C38.7755 23.4868 37.5845 25.9188 35.4311 28.1345C33.6746 29.9403 31.2854 31.0404 27.9401 30.6965C27.0594 30.6309 26.2212 30.4028 25.515 30.0365C24.8087 29.6701 24.261 29.1793 23.9303 28.6163C23.9457 28.642 23.9457 28.6709 23.9303 28.6966C23.8942 28.7363 23.874 28.7818 23.8716 28.8286C23.8692 28.8753 23.8847 28.9217 23.9166 28.963C23.9975 29.0836 24.0555 29.2108 24.0891 29.3415C24.0957 29.3911 24.1287 29.4373 24.1818 29.4714C24.2349 29.5054 24.3045 29.5249 24.3772 29.5261C24.4055 29.5273 24.4323 29.5351 24.4533 29.5482C24.5185 29.6177 24.6063 29.676 24.7099 29.7185C24.7388 29.733 24.7611 29.7529 24.774 29.7758C24.8336 29.8581 24.8492 29.9522 24.8183 30.0416C24.7883 30.13 24.7771 30.221 24.7851 30.3116C24.8245 30.4486 24.8217 30.5897 24.7767 30.7259C24.7758 30.7294 24.7758 30.733 24.7767 30.7365C24.7869 30.8192 24.7948 30.9028 24.809 30.9859C24.8364 31.1523 24.8647 31.3192 24.8975 31.4856C24.9292 31.5773 24.951 31.6705 24.9625 31.7644C24.9605 31.83 24.9673 31.8955 24.9829 31.9602C24.9967 32.0333 25.0191 32.1056 25.0497 32.1763C25.0975 32.2781 25.0806 32.4017 25.2497 32.4663C25.2669 32.4733 25.2709 32.4966 25.2828 32.5127C25.3793 32.6433 25.4682 32.7775 25.5762 32.9033C25.6668 33.0178 25.796 33.1158 25.9531 33.1891C26.0686 33.2388 26.1744 33.2845 26.1704 33.3945C26.1704 33.4215 26.2106 33.4497 26.2381 33.4755C26.2713 33.5058 26.3089 33.5361 26.3451 33.5646C26.3769 33.5876 26.399 33.6161 26.4092 33.647C26.4194 33.6779 26.4173 33.7102 26.4031 33.7403C26.3673 33.8124 26.4474 33.9018 26.3345 33.9606C26.3319 33.9606 26.3345 33.9676 26.3345 33.9713C26.3459 34.0438 26.3705 34.1151 26.408 34.1834C26.468 34.2761 26.5126 34.3732 26.5407 34.4728C26.5628 34.5161 26.5654 34.563 26.548 34.6073C26.5307 34.6517 26.4942 34.6914 26.4434 34.7213C26.4134 34.7403 26.3852 34.7605 26.3589 34.7819C26.3174 34.8112 26.2915 34.8491 26.2853 34.8897C26.2791 34.9303 26.293 34.9711 26.3248 35.0056C26.369 35.0601 26.419 35.1135 26.4695 35.1662C26.5992 35.2828 26.7153 35.4062 26.8168 35.5353C26.8917 35.638 26.9918 35.7311 27.1128 35.8105C27.1226 35.8185 27.1318 35.8269 27.1402 35.8356C27.2858 35.9872 27.5384 35.9687 27.749 35.9996C27.8668 36.0027 27.9841 35.9881 28.0928 35.9569C28.4521 35.889 28.8104 35.8162 29.1701 35.7471C29.4326 35.7005 29.7062 35.6914 29.974 35.7202C30.1263 35.7321 30.28 35.7327 30.4324 35.722C30.7864 35.6999 31.1346 35.6311 31.4943 35.6311C31.6218 35.626 31.7474 35.608 31.8672 35.5777C32.1077 35.5418 32.3379 35.479 32.5486 35.392C32.6241 35.3561 32.7057 35.3266 32.7915 35.3041C32.9928 35.2651 33.1789 35.1959 33.3362 35.1013C33.4463 35.0235 33.5499 34.9413 33.6569 34.8613C33.7366 34.8007 33.8144 34.7419 33.8981 34.6855C34.0611 34.5844 34.2476 34.5025 34.4498 34.4431C34.5255 34.4223 34.5904 34.3864 34.636 34.3401C34.7506 34.1801 34.9595 34.0719 35.0918 33.9213C35.2099 33.7876 35.3723 33.6718 35.4851 33.5364C35.5601 33.4359 35.6898 33.3597 35.8461 33.3242C35.9654 33.2965 36.0741 33.2507 36.1641 33.1902C36.2541 33.1298 36.3231 33.0563 36.366 32.9751C36.4321 32.8577 36.4842 32.7368 36.5217 32.6136C36.5731 32.4584 36.5806 32.4478 36.804 32.4442C36.863 32.4486 36.9226 32.4418 36.9762 32.4244C37.0298 32.407 37.0752 32.3798 37.1075 32.3457C37.1424 32.2881 37.1598 32.2262 37.1589 32.1639C37.1624 32.1017 37.1288 32.0369 37.1398 31.976C37.159 31.8668 37.1921 31.759 37.2389 31.6538C37.2713 31.6107 37.3221 31.5754 37.3845 31.5526C37.5403 31.4929 37.6909 31.4271 37.8353 31.3553C37.9753 31.2704 38.0991 31.1737 38.2039 31.0677C38.2937 30.9743 38.3679 30.8742 38.4251 30.7695C38.5198 30.5946 38.5606 30.4081 38.545 30.2219C38.5466 29.9947 38.4796 29.7698 38.3481 29.5612C38.3425 29.5487 38.341 29.5354 38.3437 29.5224C38.3437 29.4815 38.349 29.4415 38.3437 29.4012C38.3309 29.3103 38.3035 29.2209 38.2995 29.1306C38.2968 29.0585 38.3242 28.9854 38.3278 28.9127C38.3265 28.8938 38.3328 28.875 38.346 28.8583C38.3593 28.8417 38.379 28.8279 38.403 28.8185C38.5048 28.7782 38.601 28.7315 38.6901 28.679C38.9556 28.5057 39.2144 28.3254 39.4786 28.1502C39.5283 28.1157 39.5868 28.0877 39.6511 28.0675C39.8229 28.0151 39.9991 27.9701 40.179 27.9326C40.5956 27.8454 40.9891 27.7129 41.3444 27.5402C41.609 27.405 41.7998 27.2129 41.8863 26.9947C41.8971 26.9676 41.9037 26.9397 41.9058 26.9116C41.9271 26.7828 41.9527 26.6549 41.9682 26.5255C42.0023 26.3346 42.0118 26.1419 41.9965 25.9498C41.9708 25.7652 41.9642 25.5794 41.9607 25.3933C41.9508 25.306 41.9635 25.2182 41.9983 25.1339C42.0906 24.9595 42.1456 24.7767 42.1615 24.5915C42.1808 24.5096 42.1657 24.4256 42.118 24.3494C42.0703 24.2731 41.9919 24.2078 41.8921 24.1608C41.8479 24.1414 41.8142 24.1151 41.7713 24.0963C41.7124 24.0739 41.6668 24.0381 41.6425 23.9951C41.6183 23.952 41.6169 23.9045 41.6386 23.8608C41.6597 23.792 41.6514 23.7204 41.6147 23.6547C41.5704 23.5638 41.5403 23.4729 41.4939 23.382C41.4802 23.3576 41.4752 23.3314 41.4792 23.3054C41.4832 23.2794 41.4961 23.2545 41.5169 23.2326C41.5784 23.1559 41.6315 23.0762 41.6939 23.0001C41.7266 22.9611 41.7414 22.9161 41.7363 22.8712C41.7313 22.8263 41.7066 22.7835 41.6656 22.7483C41.5244 22.5901 41.4032 22.4237 41.274 22.261C41.2544 22.2362 41.2448 22.2083 41.2463 22.1802C41.2478 22.1521 41.2603 22.1247 41.2824 22.101C41.3961 21.9558 41.5036 21.8088 41.6187 21.6646C41.8505 21.372 42.0837 21.0798 42.3182 20.7879C42.349 20.7449 42.3885 20.7051 42.4354 20.6697C42.5593 20.586 42.692 20.5096 42.8177 20.4272C42.9915 20.3404 43.1386 20.231 43.2504 20.1051C43.3732 19.9269 43.5428 19.7657 43.7508 19.6296C44.0494 19.4287 44.353 19.2296 44.6631 19.0362C45.0206 18.812 45.3316 18.5553 45.7108 18.3455C46.1125 18.1231 46.5019 17.891 46.8943 17.6603C46.9699 17.6183 47.0368 17.5695 47.0934 17.5152C47.4581 17.1258 47.7888 16.7219 48.0836 16.3057C48.1066 16.2754 48.1146 16.2396 48.1385 16.2096C48.3485 15.9409 48.5594 15.6726 48.7712 15.4047C48.9437 15.1856 49.1185 14.9677 49.2853 14.7465C49.3961 14.6237 49.4662 14.4857 49.4906 14.3422C49.4985 14.1268 49.4928 13.9095 49.4782 13.6928ZM38.4791 17.5013C39.9604 17.4103 41.4404 17.3021 42.9243 17.2388C43.1455 17.2294 43.3836 17.4246 43.6136 17.5252C43.4057 17.6231 43.2092 17.787 42.9858 17.8085C41.747 17.924 40.505 18.0307 39.2582 18.0774C38.9649 18.088 38.6521 17.8513 38.3477 17.7288C38.3919 17.6525 38.4348 17.5773 38.4791 17.5013ZM43.7127 18.9198C41.5041 19.4147 39.3299 20.069 37.0598 20.3269C34.2334 20.6491 31.8323 19.8402 29.8506 18.2234C30.7904 17.8398 31.5491 17.5046 32.3477 17.2234C32.4757 17.1896 32.6137 17.1776 32.75 17.1885C32.8862 17.1995 33.0164 17.2329 33.1295 17.2861C34.7046 18.4659 36.7545 18.6286 38.8888 18.5525C40.2785 18.5028 41.6594 18.3404 43.0478 18.2619C43.4809 18.2677 43.9118 18.3056 44.333 18.375C44.3375 18.4492 44.3432 18.5231 44.3485 18.598C44.1627 18.7272 43.9481 18.8355 43.7127 18.9186V18.9198Z" fill="white"/>
<path d="M18.5121 2.73428L18.4298 2.71669C18.263 2.50455 18.144 2.35303 18.0117 2.18544L18.0759 2.17969C18.2099 2.35243 18.3334 2.5076 18.5121 2.73428Z" fill="white"/>
<path d="M30.1143 6.67797C29.6625 6.08606 29.1158 5.53047 28.4844 5.02148C29.155 5.55248 29.734 6.13464 30.2099 6.75645C31.3337 8.24141 32.3615 9.78487 33.7596 11.1401C32.3053 9.77062 31.2611 8.19142 30.1143 6.67797Z" fill="white"/>
<path d="M25.946 18.0158C24.2922 17.0072 22.2578 16.7266 20.166 16.5233C19.9274 16.4995 19.7009 16.4363 19.5058 16.3393C19.4974 16.3317 19.4886 16.3242 19.4793 16.3166C19.4619 16.3031 19.4407 16.2921 19.4169 16.2845C19.3612 16.2651 19.2877 16.2542 19.2271 16.2375L19.3426 16.223H19.3519C19.3479 16.2227 19.3439 16.2227 19.3399 16.223C19.2547 16.2167 19.1709 16.2033 19.0904 16.1832C19.0113 16.1507 18.9372 16.1128 18.8692 16.0702C18.7707 16.0091 18.6632 15.9553 18.5484 15.9096L18.5311 15.9038C18.3405 15.4911 18.0169 15.113 17.5843 14.7974C17.2049 14.5439 16.9053 14.24 16.7038 13.9042C16.5023 13.5685 16.4032 13.2081 16.4127 12.8451C16.4172 12.7806 16.4264 12.7151 16.4393 12.6484C17.4091 13.7788 18.3608 14.9147 19.3656 16.0281C19.5719 16.1988 19.8667 16.3081 20.1881 16.3333C22.2552 16.5342 24.2656 16.8118 25.9004 17.8082C26.1022 17.9313 26.6384 18.0349 26.7349 17.964C27.4114 17.4709 28.2073 17.7843 28.9471 17.7315C29.3094 17.6795 29.6528 17.5783 29.9572 17.4339C30.6648 17.1029 31.4068 16.8079 32.1774 16.5511C32.6512 16.4251 33.4162 16.1411 33.6595 16.7087C33.333 16.4105 32.7061 16.6366 32.2955 16.7463C31.5158 17.0061 30.7647 17.3045 30.0483 17.6391C29.7405 17.7854 29.393 17.888 29.0263 17.9407C28.2799 17.994 27.4742 17.677 26.7902 18.1755C26.6924 18.2455 26.1504 18.1407 25.946 18.0158Z" fill="white"/>
<path d="M34.2413 17.2708C35.3425 17.549 36.457 17.8002 37.7277 18.0984C36.999 15.5528 36.0172 13.3445 33.9908 11.3652C36.1349 13.4024 37.1574 15.6786 37.9109 18.3121C36.6256 18.009 35.4978 17.7557 34.3833 17.4745C34.1714 17.4211 33.8763 17.2699 33.859 17.1487C33.8564 17.1311 33.8535 17.1141 33.8506 17.0978C33.9624 17.1729 34.0953 17.2318 34.2413 17.2708Z" fill="white"/>
<path d="M38.4722 20.6944C38.7748 23.4873 37.5838 25.9193 35.4304 28.1349C33.6739 29.9408 31.2847 31.0409 27.9394 30.6969C27.0586 30.6312 26.2204 30.4028 25.5143 30.0361C24.8082 29.6695 24.2608 29.1784 23.9305 28.6153C23.9245 28.5998 23.9158 28.5848 23.9048 28.5707C23.9048 28.5689 23.9021 28.5671 23.9004 28.565C23.8628 28.5029 23.8269 28.4395 23.7933 28.3741C23.1296 27.0924 23.6787 25.9742 24.9436 25.0026C25.7723 24.3662 26.5214 24.3525 27.385 24.8332C27.385 25.0956 27.3979 25.3147 27.3815 25.5332C27.3678 25.7102 27.4125 25.9508 27.2669 26.052C26.6917 26.4502 26.5041 26.8679 27.0368 27.3213C27.6271 27.8237 28.5301 28.0207 29.2765 27.6943C30.0594 27.3633 30.6857 26.8842 31.0799 26.3148C32.2323 24.4758 32.3973 22.4169 31.5458 20.5026C31.4652 20.3186 31.4029 20.1307 31.2883 19.8301C33.4375 20.7295 36.0041 21.0383 38.4722 20.6944Z" fill="white"/>
<path d="M39.2592 18.0768C38.9658 18.0875 38.653 17.8508 38.3486 17.7284C38.3929 17.6523 38.4371 17.5768 38.4814 17.5011C39.9627 17.4101 41.4426 17.3019 42.9266 17.2386C43.1478 17.2292 43.3858 17.4244 43.6159 17.525C43.408 17.6229 43.2115 17.7868 42.9881 17.8083C41.747 17.9235 40.5046 18.0305 39.2592 18.0768Z" fill="white"/>
<path d="M44.3499 18.5955C44.1643 18.7257 43.9495 18.8349 43.7137 18.9188C41.5051 19.4137 39.3309 20.068 37.0607 20.3259C34.2344 20.6468 31.8337 19.8395 29.8516 18.2224C30.7913 17.8388 31.5501 17.5036 32.3487 17.2224C32.4767 17.1885 32.6147 17.1766 32.7509 17.1875C32.8871 17.1985 33.0174 17.2319 33.1305 17.2851C34.7056 18.4649 36.7554 18.6276 38.8898 18.5515C40.2795 18.5018 41.6603 18.3394 43.0487 18.2609C43.4818 18.2667 43.9128 18.3046 44.334 18.3739C44.3389 18.4467 44.3446 18.5209 44.3499 18.5955Z" fill="white"/>
<path d="M18.4896 16.0922C18.2915 16.0111 18.0576 15.9815 17.8303 16.0085C17.7635 16.0119 17.6965 16.0127 17.6295 16.0109C17.4406 16.0291 17.2516 16.0491 17.064 16.0731C16.9804 16.0837 16.9101 16.1106 16.9034 16.1816C16.8991 16.1906 16.8918 16.1988 16.8822 16.2056C16.8725 16.2125 16.8607 16.2177 16.8477 16.221C16.7698 16.2379 16.6893 16.2513 16.6092 16.2637C16.5431 16.2701 16.4778 16.2802 16.4141 16.294C16.2267 16.3445 16.0431 16.4016 15.8641 16.4649C15.6221 16.5534 15.3912 16.654 15.1527 16.7474C15.0107 16.8037 14.8638 16.8565 14.7173 16.9101C14.6231 16.944 14.6147 16.944 14.447 16.9322C14.4537 16.903 14.4524 16.8732 14.4435 16.8443C14.4324 16.8262 14.3904 16.814 14.359 16.8022C13.9737 16.6635 13.5582 16.5683 13.1285 16.5204C12.9608 16.5019 12.7896 16.5029 12.6224 16.5234C12.5923 16.527 12.5463 16.548 12.5419 16.5649C12.5264 16.6255 12.4534 16.6404 12.3896 16.6586C12.1852 16.717 11.9751 16.7686 11.7738 16.8331C11.6309 16.8795 11.4968 16.9425 11.3592 16.9989C11.1822 17.0722 11.0052 17.1459 10.8283 17.218C10.8086 17.224 10.7884 17.2291 10.7677 17.2331C10.7513 17.2231 10.7274 17.2156 10.7234 17.205C10.6588 17.089 10.5551 16.9852 10.4208 16.9019C10.2504 16.7737 10.0735 16.6501 9.89649 16.5252C9.87089 16.508 9.83839 16.4964 9.80314 16.4919C9.74081 16.4849 9.68084 16.4702 9.62615 16.4485C9.7987 16.5658 9.9664 16.6886 10.1314 16.8152C10.2199 16.8831 10.3084 16.9495 10.3991 17.0162C12.0056 18.2385 14.1785 19.0439 16.5513 19.2963C17.5414 19.4 18.1418 19.1527 18.3684 18.536C18.5292 18.1256 18.6329 17.7057 18.6781 17.2819C18.7212 16.8808 18.6574 16.4776 18.4896 16.0922ZM10.4239 1.62321C9.67541 1.67368 8.94497 1.81111 8.26388 2.02961C7.32593 2.33674 6.5171 2.8019 5.91318 3.38153C4.21332 5.07014 2.64488 6.82269 1.09368 8.57828C0.655265 9.09238 0.334592 9.6495 0.142865 10.2302C-0.0544984 10.7492 -0.0472554 11.2948 0.163861 11.8112C0.374977 12.3277 0.782405 12.7965 1.34454 13.1698C1.68015 13.3928 2.05979 13.5825 2.47233 13.7332C3.24411 14.01 4.0467 14.2445 4.87257 14.4345C5.88232 14.6699 6.84482 14.9915 7.73738 15.3915C7.65199 15.3439 7.56704 15.2966 7.48164 15.2497C7.38077 15.1945 7.27989 15.1378 7.17193 15.0897C7.01699 15.0185 6.8821 14.9288 6.77374 14.8248C6.67907 14.7229 6.6129 14.6099 6.57861 14.4914C6.52729 14.3672 6.5034 14.2378 6.46491 14.1108C6.43026 13.9991 6.3453 13.8977 6.22201 13.8208C6.05396 13.7148 5.8531 13.6363 5.63446 13.5911C5.44788 13.5491 5.28906 13.4632 5.18626 13.3486C5.07038 13.2354 4.93685 13.1311 4.78806 13.0377C4.66066 12.9594 4.56383 12.8605 4.50634 12.7501C4.44886 12.6396 4.43255 12.5211 4.45888 12.4052C4.50595 12.1977 4.49876 11.9861 4.43764 11.7803C4.40844 11.6961 4.35402 11.6152 4.32659 11.5303C4.30554 11.4684 4.29809 11.4046 4.30447 11.3412C4.33724 11.148 4.4118 10.9593 4.52569 10.7812C4.66723 10.5446 4.78462 10.3015 4.87699 10.0538C4.92805 9.87689 4.9475 9.69637 4.93495 9.51622C4.93052 9.2865 4.89999 9.05709 4.86991 8.82737C4.84392 8.67979 4.79406 8.53465 4.72125 8.39462C4.61506 8.17248 4.53056 7.9464 4.43809 7.72154C4.42569 7.69055 4.42285 7.65813 4.42979 7.62635C4.43672 7.59457 4.45327 7.56413 4.47835 7.53698C4.59649 7.39697 4.71948 7.25697 4.82876 7.11271C4.92685 6.98436 4.97873 6.8418 4.98008 6.69692C4.97934 6.66667 4.98776 6.63664 5.00482 6.60873C5.02188 6.58082 5.0472 6.55564 5.07919 6.53478C5.21767 6.44386 5.3535 6.35296 5.48623 6.25901C5.65208 6.13621 5.77001 5.98674 5.82912 5.82443C5.8699 5.73668 5.94505 5.65828 6.04637 5.59775C6.1344 5.54271 6.19231 5.46871 6.2105 5.38803C6.23283 5.3082 6.26602 5.22997 6.30962 5.15438C6.33617 5.10043 6.40475 5.07771 6.47731 5.05255C6.61458 5.00448 6.74822 4.95169 6.87772 4.89437C6.93933 4.8616 6.9798 4.81363 6.99053 4.76071C7.02566 4.63205 7.08423 4.50694 7.16486 4.38827C7.2123 4.32106 7.28033 4.26162 7.36431 4.21403C7.44829 4.16645 7.54626 4.13181 7.65154 4.11249C7.98011 4.05984 8.29323 3.96936 8.57757 3.84489C8.78286 3.75579 8.98551 3.66307 9.18549 3.56912C9.28725 3.52063 9.28371 3.51698 9.40671 3.55153C9.42707 3.47486 9.45361 3.40001 9.46556 3.32424C9.51277 3.12835 9.53482 2.93 9.53147 2.73147C9.52389 2.63869 9.5531 2.54622 9.61598 2.46388C9.6629 2.40081 9.70484 2.33606 9.74164 2.26992C9.853 2.08101 10.043 1.91872 10.288 1.80323C10.4327 1.72989 10.5898 1.66685 10.7447 1.60352C10.6376 1.60927 10.5314 1.61564 10.4239 1.62321ZM9.36865 16.2391C9.34266 16.2378 9.31706 16.234 9.29255 16.2279C9.34211 16.2607 9.39343 16.2925 9.44387 16.3258C9.41535 16.2985 9.39033 16.2695 9.3691 16.2391H9.36865Z" fill="#393939"/>
<path d="M37.7266 18.0987C36.4559 17.8005 35.3414 17.5493 34.2402 17.2711C34.0942 17.232 33.9613 17.173 33.8495 17.0978C33.7841 17.0591 33.7391 17.0068 33.7212 16.949C33.711 16.8681 33.6898 16.788 33.6579 16.7098C33.4141 16.1422 32.6496 16.4259 32.1758 16.5523C31.4052 16.809 30.6632 17.104 29.9556 17.4351C29.6512 17.5794 29.3078 17.6806 28.9455 17.7326C28.2075 17.7854 27.4115 17.472 26.7333 17.9651C26.6368 18.036 26.1006 17.9324 25.8988 17.8093C24.2645 16.8129 22.254 16.5365 20.1865 16.3344C19.865 16.3092 19.5703 16.1999 19.364 16.0292C18.3592 14.9158 17.4075 13.7799 16.4377 12.6495C16.4248 12.7162 16.4156 12.7814 16.4111 12.8462L16.37 12.7986C16.3085 13.1976 16.381 13.6009 16.5818 13.9777C16.7826 14.3546 17.1065 14.695 17.5287 14.973C17.9665 15.2921 18.2939 15.6745 18.4866 16.0919C18.2886 16.0109 18.0547 15.9812 17.8274 16.0083C17.7605 16.0116 17.6935 16.0124 17.6265 16.0107C17.4376 16.0289 17.2487 16.0489 17.0611 16.0728C16.9774 16.0834 16.9071 16.1104 16.9005 16.1813C16.8962 16.1904 16.889 16.1987 16.8793 16.2056C16.8696 16.2125 16.8578 16.2178 16.8447 16.221C16.7669 16.238 16.6863 16.2513 16.6062 16.2638C16.5401 16.2701 16.4748 16.2803 16.4111 16.2941C16.2237 16.3446 16.0401 16.4017 15.8612 16.465C15.6192 16.5535 15.3882 16.6541 15.1497 16.7474C15.0077 16.8041 14.8608 16.8568 14.7144 16.9102C14.6201 16.9441 14.6117 16.9441 14.444 16.9323C14.4507 16.9031 14.4495 16.8733 14.4405 16.8444C14.4294 16.8262 14.3874 16.8141 14.356 16.8023C13.9707 16.6635 13.5552 16.5684 13.1256 16.5204C12.9578 16.502 12.7867 16.503 12.6194 16.5235C12.5893 16.5271 12.5433 16.548 12.5389 16.565C12.5234 16.6256 12.4504 16.6404 12.3867 16.6586C12.1823 16.7171 11.9721 16.7686 11.7708 16.8332C11.6279 16.8795 11.4938 16.9426 11.3562 16.999C11.1793 17.0723 11.0023 17.1459 10.8253 17.2181C10.8057 17.2241 10.7854 17.2292 10.7647 17.2332C10.7483 17.2232 10.7244 17.2156 10.7204 17.205C10.6558 17.0891 10.5521 16.9853 10.4178 16.902C10.2475 16.7738 10.0705 16.6501 9.89353 16.5253C9.86794 16.5081 9.83542 16.4965 9.80016 16.492C9.76831 16.4884 9.73705 16.4827 9.7068 16.475C9.67875 16.4676 9.65154 16.4588 9.6254 16.4486C9.56567 16.4071 9.50639 16.3665 9.44489 16.3274C9.41622 16.3 9.39104 16.271 9.36967 16.2407C9.34367 16.2394 9.31808 16.2356 9.29357 16.2295C8.81007 15.9217 8.29003 15.6419 7.73882 15.3931C7.65343 15.3455 7.56848 15.2982 7.48309 15.2513C7.38222 15.1961 7.28135 15.1394 7.17339 15.0912C7.01845 15.0201 6.88356 14.9304 6.7752 14.8264C6.68054 14.7245 6.61437 14.6115 6.58008 14.493C6.52875 14.3688 6.50487 14.2394 6.46637 14.1124C6.43172 14.0007 6.34676 13.8992 6.22347 13.8224C6.05542 13.7164 5.85455 13.6379 5.6359 13.5926C5.44932 13.5507 5.29051 13.4648 5.18771 13.3502C5.07181 13.237 4.9383 13.1327 4.78952 13.0393C4.66219 12.961 4.56539 12.8622 4.50791 12.7518C4.45043 12.6414 4.43408 12.5229 4.46033 12.4071C4.5074 12.1996 4.50022 11.988 4.43911 11.7822C4.4099 11.698 4.35548 11.617 4.32805 11.5322C4.307 11.4703 4.29954 11.4065 4.30592 11.3431C4.33871 11.1499 4.41326 10.9612 4.52714 10.783C4.66868 10.5465 4.78606 10.3034 4.87844 10.0557C4.92949 9.87879 4.94896 9.69825 4.93641 9.5181C4.93198 9.28838 4.90145 9.05899 4.87137 8.82927C4.8454 8.68169 4.79554 8.53653 4.72271 8.3965C4.61652 8.17406 4.53201 7.94828 4.43954 7.72342C4.42713 7.69243 4.42431 7.66001 4.43125 7.62823C4.43818 7.59645 4.45471 7.56601 4.4798 7.53886C4.59793 7.39885 4.72094 7.25885 4.83023 7.11459C4.92831 6.98624 4.98018 6.84368 4.98153 6.6988C4.98079 6.66855 4.98921 6.63854 5.00627 6.61063C5.02333 6.58272 5.04865 6.55754 5.08064 6.53668C5.21912 6.44576 5.35496 6.35484 5.48769 6.26089C5.65354 6.13809 5.77147 5.98862 5.83058 5.82631C5.87136 5.73856 5.9465 5.66016 6.04782 5.59963C6.13585 5.54459 6.19377 5.47061 6.21196 5.38993C6.23429 5.3101 6.26747 5.23185 6.31107 5.15626C6.33762 5.10231 6.40619 5.07959 6.47876 5.05443C6.61603 5.00636 6.74967 4.95357 6.87916 4.89625C6.94081 4.8635 6.98131 4.81554 6.99199 4.76261C7.02712 4.63395 7.08569 4.50882 7.16632 4.39015C7.21376 4.32294 7.28179 4.26352 7.36577 4.21593C7.44975 4.16834 7.54771 4.13369 7.65299 4.11437C7.98156 4.06171 8.29469 3.97123 8.57903 3.84677C8.78432 3.75767 8.98696 3.66495 9.18694 3.571C9.2887 3.52251 9.28516 3.51886 9.40816 3.55341C9.42851 3.47674 9.45506 3.40189 9.467 3.32612C9.51421 3.13023 9.53628 2.93188 9.53294 2.73335C9.52535 2.64057 9.55454 2.5481 9.61743 2.46576C9.66435 2.40269 9.70629 2.33796 9.74308 2.27182C9.85453 2.08302 10.0445 1.92083 10.2895 1.80542C10.4342 1.73208 10.5912 1.66905 10.7461 1.60571C10.8346 1.58177 10.9156 1.56115 10.989 1.54297C10.9532 1.55812 10.9164 1.57327 10.8797 1.58751L10.974 1.58449C11.0417 1.58207 11.1098 1.57994 11.1784 1.57933C11.2253 1.57933 11.2717 1.57933 11.3195 1.57933C11.5056 1.57933 11.6932 1.58438 11.8823 1.59448C12.6063 1.6391 13.3235 1.72528 14.0264 1.85209C14.152 1.8733 14.2759 1.89541 14.3985 1.91723C15.7368 2.15968 17.0487 2.46849 18.4689 2.76942C18.4561 2.75245 18.4424 2.73609 18.4296 2.71972L18.5118 2.73729C18.3349 2.51061 18.2092 2.35425 18.0756 2.18272C18.7313 2.12756 19.2976 2.05664 19.8688 2.04028C20.2767 2.02846 20.6931 2.00331 21.1103 1.98695C22.2142 1.94361 23.315 1.96057 24.2344 2.43091C25.1908 2.91139 26.1107 3.42512 26.9904 3.97011C27.4625 4.26701 27.9118 4.5806 28.3363 4.90958C28.3858 4.94837 28.4354 4.98746 28.484 5.02685C29.1155 5.53584 29.6622 6.09143 30.114 6.68334C31.2608 8.19679 32.3049 9.77448 33.757 11.1455C33.8075 11.1946 33.8579 11.2428 33.9093 11.2913L33.9247 11.3058C33.9468 11.3264 33.969 11.3473 33.9898 11.3685C36.0161 13.3435 37.0001 15.5531 37.7266 18.0987Z" fill="#393939"/>
<path d="M18.5121 2.73623L18.4298 2.71864C18.263 2.5065 18.144 2.35498 18.0117 2.18739L18.0759 2.18164C18.2099 2.35438 18.3334 2.50955 18.5121 2.73623Z" fill="#393939"/>
<path d="M33.7574 11.1421C32.3053 9.77258 31.2611 8.19337 30.1143 6.67992C29.6625 6.08802 29.1158 5.53243 28.4844 5.02344C29.155 5.55443 29.734 6.13659 30.2099 6.75841C31.3319 8.24215 32.3601 9.78682 33.7574 11.1421Z" fill="#393939"/>
<path d="M33.6587 16.7098C33.3321 16.4116 32.7052 16.6376 32.2946 16.7474C31.5149 17.0071 30.7638 17.3055 30.0475 17.6401C29.7396 17.7864 29.3921 17.889 29.0254 17.9417C28.279 17.995 27.4733 17.678 26.7893 18.1766C26.6911 18.2487 26.1495 18.1438 25.9451 18.019C24.2913 17.0104 22.2569 16.7298 20.1651 16.5264C19.9265 16.5026 19.7 16.4395 19.505 16.3425C19.4732 16.3261 19.4436 16.3078 19.4165 16.2879C19.3884 16.2697 19.3635 16.2494 19.3421 16.2273C19.3421 16.2273 19.3421 16.2255 19.3395 16.2249L19.3342 16.2191C18.3312 15.1085 17.3817 13.975 16.4141 12.8471C16.4185 12.7825 16.4278 12.7171 16.4406 12.6504C17.4104 13.7808 18.3621 14.9166 19.3669 16.03C19.573 16.2002 19.867 16.3093 20.1876 16.3346C22.2547 16.5355 24.2652 16.8131 25.9 17.8096C26.1018 17.9326 26.638 18.0362 26.7344 17.9653C27.4109 17.4723 28.2069 17.7856 28.9467 17.7329C29.309 17.6808 29.6524 17.5796 29.9568 17.4353C30.6643 17.1043 31.4064 16.8092 32.1769 16.5525C32.6503 16.4255 33.4167 16.1422 33.6587 16.7098Z" fill="#393939"/>
<path d="M37.9109 18.3138C36.6256 18.0107 35.4978 17.7574 34.3833 17.4761C34.1714 17.4228 33.8763 17.2716 33.859 17.1503C33.8564 17.1328 33.8535 17.1158 33.8506 17.0994C33.9624 17.1747 34.0953 17.2337 34.2413 17.2728C35.3425 17.551 36.457 17.8022 37.7277 18.1004C36.999 15.5548 36.0172 13.3464 33.9908 11.3672C36.1349 13.404 37.1574 15.6802 37.9109 18.3138Z" fill="#393939"/>
<path d="M35.4304 28.1369C33.6739 29.9428 31.2847 31.0428 27.9394 30.6989C27.0586 30.6331 26.2204 30.4047 25.5143 30.0381C24.8082 29.6715 24.2608 29.1804 23.9305 28.6172C23.9194 28.6002 23.9092 28.5839 23.9004 28.5669C23.8628 28.5048 23.8269 28.4415 23.7933 28.376C23.1296 27.0944 23.6787 25.9761 24.9436 25.0046C25.7723 24.3681 26.5214 24.3545 27.385 24.8351C27.385 25.0976 27.3979 25.3167 27.3815 25.5352C27.3678 25.7122 27.4125 25.9528 27.2669 26.054C26.6917 26.4522 26.5041 26.8698 27.0368 27.3232C27.6271 27.8257 28.5301 28.0226 29.2765 27.6963C30.0594 27.3653 30.6857 26.8862 31.0799 26.3168C32.2323 24.4778 32.3973 22.4188 31.5458 20.5045C31.4652 20.3206 31.4029 20.1327 31.2883 19.832C33.4379 20.7318 36.0053 21.0408 38.4739 20.6966C38.7744 23.4896 37.5838 25.9201 35.4304 28.1369Z" fill="#393939"/>
<path d="M44.3499 18.5994C44.1643 18.7296 43.9495 18.8388 43.7137 18.9227C41.5051 19.4176 39.3309 20.0719 37.0607 20.3298C34.2344 20.6507 31.8337 19.8434 29.8516 18.2263C30.7913 17.8427 31.5501 17.5075 32.3487 17.2263C32.4767 17.1925 32.6147 17.1805 32.7509 17.1914C32.8871 17.2024 33.0174 17.2358 33.1305 17.289C34.7056 18.4688 36.7554 18.6315 38.8898 18.5554C40.2795 18.5057 41.6603 18.3433 43.0487 18.2648C43.4818 18.2706 43.9128 18.3085 44.334 18.3779C44.3389 18.4506 44.3446 18.5248 44.3499 18.5994Z" fill="#393939"/>
<path d="M43.6136 17.5286C43.4057 17.6265 43.2092 17.7904 42.9858 17.812C41.7469 17.9274 40.505 18.0341 39.2582 18.0808C38.9649 18.0914 38.6521 17.8547 38.3477 17.7323C38.3919 17.6562 38.4362 17.5807 38.4804 17.505C39.9617 17.4141 41.4417 17.3059 42.9256 17.2425C43.1442 17.2328 43.3835 17.428 43.6136 17.5286Z" fill="#393939"/>
</svg>
