<svg width="197" height="36" viewBox="0 0 197 36" fill="none" xmlns="http://www.w3.org/2000/svg">
<path d="M14.7803 1.00226C19.3323 1.00226 23.8593 0.998255 28.3862 1.00687C29.0183 1.00807 29.6209 1.19266 30.2086 1.42345C30.9268 1.70551 31.5488 2.14301 32.0919 2.67119C32.6737 3.23691 33.1076 3.91921 33.4077 4.68152C33.7151 5.46251 33.8095 6.27028 33.8086 7.10562C33.8005 14.3598 33.8006 21.6139 33.8072 28.8681C33.8083 30.0995 33.4665 31.2183 32.7665 32.2198C31.885 33.4809 30.6791 34.2798 29.1696 34.6015C28.8673 34.6659 28.5527 34.7015 28.2437 34.7017C20.6627 34.7071 13.0817 34.7072 5.50073 34.7044C4.5902 34.704 3.73889 34.4362 2.96878 33.9776C2.46742 33.679 1.98325 33.3159 1.57957 32.897C0.730794 32.0161 0.193813 30.9575 0.0529121 29.7253C0.0193266 29.4316 0.00307427 29.1343 0.00296787 28.8386C0.000303316 21.4349 0.00173584 14.0312 1.47368e-07 6.62747C-0.000281162 5.42744 0.402192 4.35979 1.08355 3.39527C1.66041 2.57868 2.42012 1.96209 3.32942 1.53957C4.05387 1.20293 4.80935 0.998518 5.61835 1.00001C8.66402 1.00562 11.7097 1.00226 14.7803 1.00226ZM26.6438 12.266C26.0265 11.2496 25.2656 10.3545 24.3765 9.5643C24.2921 9.48923 24.2272 9.34475 24.2257 9.23151C24.2135 8.3345 24.2189 7.43726 24.2189 6.54008C24.2189 6.45121 24.2189 6.36234 24.2189 6.26101C19.3286 6.26101 14.467 6.26101 9.57617 6.26101C9.57617 6.36569 9.57617 6.45481 9.57617 6.54394C9.57617 7.41619 9.56994 8.28852 9.58081 9.16064C9.58333 9.36278 9.51629 9.49177 9.3687 9.62762C6.30668 12.4461 5.04035 15.9226 5.69559 20.029C6.68852 26.2516 12.8074 30.4585 19.037 29.2595C26.7829 27.7687 30.6925 19.0714 26.6438 12.266Z" fill="#6B6B6B"/>
<path d="M26.6528 12.2825C30.6925 19.0721 26.7828 27.7694 19.037 29.2602C12.8074 30.4592 6.68848 26.2523 5.69555 20.0297C5.0403 15.9233 6.30664 12.4468 9.36866 9.62833C9.51625 9.49247 9.58329 9.36348 9.58077 9.16134C9.5699 8.28922 9.57613 7.41689 9.57613 6.54464C9.57613 6.45552 9.57613 6.36639 9.57613 6.26172C14.4669 6.26172 19.3286 6.26172 24.2189 6.26172C24.2189 6.36304 24.2189 6.45192 24.2189 6.54079C24.2189 7.43796 24.2135 8.33521 24.2257 9.23222C24.2272 9.34545 24.292 9.48994 24.3765 9.565C25.2656 10.3552 26.0265 11.2503 26.6528 12.2825ZM11.8288 13.7416C11.8288 17.637 11.8301 21.5325 11.8249 25.428C11.8246 25.6066 11.8732 25.7142 12.0305 25.806C15.2777 27.703 18.5209 27.703 21.7665 25.8018C21.9229 25.7102 21.973 25.6047 21.9728 25.4253C21.9677 19.8769 21.9687 14.3286 21.9682 8.78022C21.9682 8.69206 21.9608 8.6039 21.9568 8.51438C18.5708 8.51438 15.2083 8.51438 11.8288 8.51438C11.8288 10.2544 11.8288 11.9731 11.8288 13.7416ZM9.57673 15.1376C9.57673 14.3547 9.57673 13.5718 9.57673 12.7422C7.11508 15.9089 7.26655 20.5732 9.57673 23.4612C9.57673 20.6784 9.57673 17.9329 9.57673 15.1376ZM25.6483 15.5559C25.3412 14.5518 24.8945 13.6183 24.2329 12.7329C24.2329 16.3343 24.2329 19.8798 24.2329 23.4253C25.9457 21.0359 26.4297 18.4281 25.6483 15.5559Z" fill="#FEFFFF"/>
<path d="M11.8292 13.7159C11.8292 11.9724 11.8292 10.2537 11.8292 8.51367C15.2087 8.51367 18.5712 8.51367 21.9572 8.51367C21.9611 8.60319 21.9685 8.69135 21.9685 8.77951C21.9691 14.3279 21.9681 19.8762 21.9731 25.4246C21.9733 25.604 21.9233 25.7095 21.7669 25.8011C18.5212 27.7023 15.2781 27.7023 12.0308 25.8053C11.8736 25.7135 11.825 25.6059 11.8252 25.4273C11.8304 21.5318 11.8292 17.6363 11.8292 13.7159ZM17.8962 25.8225C18.2692 25.2728 18.2525 24.676 17.8513 24.2174C17.4703 23.782 16.848 23.659 16.3302 23.9167C15.8704 24.1456 15.5882 24.6218 15.6339 25.1386C15.6804 25.6646 15.9593 26.0361 16.4535 26.229C16.957 26.4255 17.4649 26.2842 17.8962 25.8225Z" fill="#6B6B6B"/>
<path d="M9.577 15.1625C9.577 17.9329 9.577 20.6784 9.577 23.4612C7.26681 20.5732 7.11535 15.9089 9.577 12.7422C9.577 13.5718 9.577 14.3547 9.577 15.1625Z" fill="#6B6B6B"/>
<path d="M25.6546 15.5748C26.4303 18.4276 25.9463 21.0355 24.2334 23.4248C24.2334 19.8793 24.2334 16.3338 24.2334 12.7324C24.8951 13.6179 25.3418 14.5513 25.6546 15.5748Z" fill="#6B6B6B"/>
<path d="M17.885 25.8369C17.4647 26.2843 16.9568 26.4256 16.4533 26.2291C15.9591 26.0362 15.6802 25.6647 15.6337 25.1387C15.5881 24.6219 15.8703 24.1457 16.3301 23.9168C16.8478 23.6591 17.4702 23.7821 17.8511 24.2175C18.2523 24.6761 18.269 25.2729 17.885 25.8369Z" fill="#FDFFFE"/>
<path d="M14.7803 1.00226C19.3323 1.00226 23.8593 0.998255 28.3862 1.00687C29.0183 1.00807 29.6209 1.19266 30.2086 1.42345C30.9268 1.70551 31.5488 2.14301 32.0919 2.67119C32.6737 3.23691 33.1076 3.91921 33.4077 4.68152C33.7151 5.46251 33.8095 6.27028 33.8086 7.10562C33.8005 14.3598 33.8006 21.6139 33.8072 28.8681C33.8083 30.0995 33.4665 31.2183 32.7665 32.2198C31.885 33.4809 30.6791 34.2798 29.1696 34.6015C28.8673 34.6659 28.5527 34.7015 28.2437 34.7017C20.6627 34.7071 13.0817 34.7072 5.50073 34.7044C4.5902 34.704 3.73889 34.4362 2.96878 33.9776C2.46742 33.679 1.98325 33.3159 1.57957 32.897C0.730794 32.0161 0.193813 30.9575 0.0529121 29.7253C0.0193266 29.4316 0.00307427 29.1343 0.00296787 28.8386C0.000303316 21.4349 0.00173584 14.0312 1.47368e-07 6.62747C-0.000281162 5.42744 0.402192 4.35979 1.08355 3.39527C1.66041 2.57868 2.42012 1.96209 3.32942 1.53957C4.05387 1.20293 4.80935 0.998518 5.61835 1.00001C8.66402 1.00562 11.7097 1.00226 14.7803 1.00226ZM26.6438 12.266C26.0265 11.2496 25.2656 10.3545 24.3765 9.5643C24.2921 9.48923 24.2272 9.34475 24.2257 9.23151C24.2135 8.3345 24.2189 7.43726 24.2189 6.54008C24.2189 6.45121 24.2189 6.36234 24.2189 6.26101C19.3286 6.26101 14.467 6.26101 9.57617 6.26101C9.57617 6.36569 9.57617 6.45481 9.57617 6.54394C9.57617 7.41619 9.56994 8.28852 9.58081 9.16064C9.58333 9.36278 9.51629 9.49177 9.3687 9.62762C6.30668 12.4461 5.04035 15.9226 5.69559 20.029C6.68852 26.2516 12.8074 30.4585 19.037 29.2595C26.7829 27.7687 30.6926 19.0714 26.6438 12.266Z" fill="#6B6B6B"/>
<path d="M26.6528 12.2825C30.6925 19.0721 26.7828 27.7694 19.037 29.2602C12.8074 30.4592 6.68848 26.2523 5.69555 20.0297C5.0403 15.9233 6.30664 12.4468 9.36866 9.62833C9.51625 9.49247 9.58329 9.36348 9.58077 9.16134C9.5699 8.28922 9.57613 7.41689 9.57613 6.54464C9.57613 6.45552 9.57613 6.36639 9.57613 6.26172C14.4669 6.26172 19.3286 6.26172 24.2189 6.26172C24.2189 6.36304 24.2189 6.45192 24.2189 6.54079C24.2189 7.43796 24.2135 8.33521 24.2257 9.23222C24.2272 9.34545 24.292 9.48994 24.3765 9.565C25.2656 10.3552 26.0265 11.2503 26.6528 12.2825ZM11.8288 13.7416C11.8288 17.637 11.8301 21.5325 11.8249 25.428C11.8246 25.6066 11.8732 25.7142 12.0305 25.806C15.2777 27.703 18.5209 27.703 21.7665 25.8018C21.9229 25.7102 21.973 25.6047 21.9728 25.4253C21.9677 19.8769 21.9687 14.3286 21.9682 8.78022C21.9682 8.69206 21.9608 8.6039 21.9568 8.51438C18.5708 8.51438 15.2083 8.51438 11.8288 8.51438C11.8288 10.2544 11.8288 11.9731 11.8288 13.7416ZM9.57673 15.1376C9.57673 14.3547 9.57673 13.5718 9.57673 12.7422C7.11508 15.9089 7.26655 20.5732 9.57673 23.4612C9.57673 20.6784 9.57673 17.9329 9.57673 15.1376ZM25.6483 15.5559C25.3412 14.5518 24.8945 13.6183 24.2329 12.7329C24.2329 16.3343 24.2329 19.8798 24.2329 23.4253C25.9457 21.0359 26.4297 18.4281 25.6483 15.5559Z" fill="#FEFFFF"/>
<path d="M11.8292 13.7159C11.8292 11.9724 11.8292 10.2537 11.8292 8.51367C15.2087 8.51367 18.5712 8.51367 21.9572 8.51367C21.9611 8.60319 21.9685 8.69135 21.9685 8.77951C21.9691 14.3279 21.9681 19.8762 21.9731 25.4246C21.9733 25.604 21.9233 25.7095 21.7669 25.8011C18.5212 27.7023 15.2781 27.7023 12.0308 25.8053C11.8736 25.7135 11.825 25.6059 11.8252 25.4273C11.8304 21.5318 11.8292 17.6363 11.8292 13.7159ZM17.8962 25.8225C18.2692 25.2728 18.2525 24.676 17.8513 24.2174C17.4703 23.782 16.848 23.659 16.3302 23.9167C15.8704 24.1456 15.5882 24.6218 15.6339 25.1386C15.6804 25.6646 15.9593 26.0361 16.4535 26.229C16.957 26.4255 17.4649 26.2842 17.8962 25.8225Z" fill="#6B6B6B"/>
<path d="M9.577 15.1625C9.577 17.9329 9.577 20.6784 9.577 23.4612C7.26681 20.5732 7.11535 15.9089 9.577 12.7422C9.577 13.5718 9.577 14.3547 9.577 15.1625Z" fill="#6B6B6B"/>
<path d="M25.6546 15.5748C26.4303 18.4276 25.9463 21.0355 24.2334 23.4248C24.2334 19.8793 24.2334 16.3338 24.2334 12.7324C24.8951 13.6179 25.3418 14.5513 25.6546 15.5748Z" fill="#6B6B6B"/>
<path d="M17.885 25.8369C17.4647 26.2843 16.9568 26.4256 16.4533 26.2291C15.9591 26.0362 15.6802 25.6647 15.6337 25.1387C15.5881 24.6219 15.8703 24.1457 16.3301 23.9168C16.8478 23.6591 17.4702 23.7821 17.8511 24.2175C18.2523 24.6761 18.269 25.2729 17.885 25.8369Z" fill="#FDFFFE"/>
<path d="M65.21 8.15V29H61.79V14.72L55.43 29H53.06L46.67 14.72V29H43.25V8.15H46.94L54.26 24.5L61.55 8.15H65.21ZM76.8751 29.27C75.3151 29.27 73.9051 28.92 72.6451 28.22C71.3851 27.5 70.3951 26.5 69.6751 25.22C68.9551 23.92 68.5951 22.42 68.5951 20.72C68.5951 19.04 68.9651 17.55 69.7051 16.25C70.4451 14.95 71.4551 13.95 72.7351 13.25C74.0151 12.55 75.4451 12.2 77.0251 12.2C78.6051 12.2 80.0351 12.55 81.3151 13.25C82.5951 13.95 83.6051 14.95 84.3451 16.25C85.0851 17.55 85.4551 19.04 85.4551 20.72C85.4551 22.4 85.0751 23.89 84.3151 25.19C83.5551 26.49 82.5151 27.5 81.1951 28.22C79.8951 28.92 78.4551 29.27 76.8751 29.27ZM76.8751 26.3C77.7551 26.3 78.5751 26.09 79.3351 25.67C80.1151 25.25 80.7451 24.62 81.2251 23.78C81.7051 22.94 81.9451 21.92 81.9451 20.72C81.9451 19.52 81.7151 18.51 81.2551 17.69C80.7951 16.85 80.1851 16.22 79.4251 15.8C78.6651 15.38 77.8451 15.17 76.9651 15.17C76.0851 15.17 75.2651 15.38 74.5051 15.8C73.7651 16.22 73.1751 16.85 72.7351 17.69C72.2951 18.51 72.0751 19.52 72.0751 20.72C72.0751 22.5 72.5251 23.88 73.4251 24.86C74.3451 25.82 75.4951 26.3 76.8751 26.3ZM91.8659 26.21H99.3659V29H87.9059V26.21L95.4359 15.26H87.9059V12.47H99.3659V15.26L91.8659 26.21ZM117.927 12.47V29H114.507V27.05C113.967 27.73 113.257 28.27 112.377 28.67C111.517 29.05 110.597 29.24 109.617 29.24C108.317 29.24 107.147 28.97 106.107 28.43C105.087 27.89 104.277 27.09 103.677 26.03C103.097 24.97 102.807 23.69 102.807 22.19V12.47H106.197V21.68C106.197 23.16 106.567 24.3 107.307 25.1C108.047 25.88 109.057 26.27 110.337 26.27C111.617 26.27 112.627 25.88 113.367 25.1C114.127 24.3 114.507 23.16 114.507 21.68V12.47H117.927ZM125.859 14.93C126.439 14.13 127.229 13.48 128.229 12.98C129.249 12.46 130.379 12.2 131.619 12.2C133.079 12.2 134.399 12.55 135.579 13.25C136.759 13.95 137.689 14.95 138.369 16.25C139.049 17.53 139.389 19 139.389 20.66C139.389 22.32 139.049 23.81 138.369 25.13C137.689 26.43 136.749 27.45 135.549 28.19C134.369 28.91 133.059 29.27 131.619 29.27C130.339 29.27 129.199 29.02 128.199 28.52C127.219 28.02 126.439 27.38 125.859 26.6V29H122.439V6.8H125.859V14.93ZM135.909 20.66C135.909 19.52 135.669 18.54 135.189 17.72C134.729 16.88 134.109 16.25 133.329 15.83C132.569 15.39 131.749 15.17 130.869 15.17C130.009 15.17 129.189 15.39 128.409 15.83C127.649 16.27 127.029 16.91 126.549 17.75C126.089 18.59 125.859 19.58 125.859 20.72C125.859 21.86 126.089 22.86 126.549 23.72C127.029 24.56 127.649 25.2 128.409 25.64C129.189 26.08 130.009 26.3 130.869 26.3C131.749 26.3 132.569 26.08 133.329 25.64C134.109 25.18 134.729 24.52 135.189 23.66C135.669 22.8 135.909 21.8 135.909 20.66ZM144.511 10.28C143.891 10.28 143.371 10.07 142.951 9.65C142.531 9.23 142.321 8.71 142.321 8.09C142.321 7.47 142.531 6.95 142.951 6.53C143.371 6.11 143.891 5.9 144.511 5.9C145.111 5.9 145.621 6.11 146.041 6.53C146.461 6.95 146.671 7.47 146.671 8.09C146.671 8.71 146.461 9.23 146.041 9.65C145.621 10.07 145.111 10.28 144.511 10.28ZM146.191 12.47V29H142.771V12.47H146.191Z" fill="white"/>
</svg>
