<svg width="172" height="36" viewBox="0 0 172 36" fill="none" xmlns="http://www.w3.org/2000/svg">
<path d="M47.2213 25.46H56.6413V29H42.3613V25.76L51.7213 11.6H42.3613V8.06H56.6413V11.3L47.2213 25.46ZM64.4165 8.06V29H60.2165V8.06H64.4165ZM83.8361 14.54C83.8361 15.66 83.5661 16.71 83.0261 17.69C82.5061 18.67 81.6761 19.46 80.5361 20.06C79.4161 20.66 77.9961 20.96 76.2761 20.96H72.7661V29H68.5661V8.06H76.2761C77.8961 8.06 79.2761 8.34 80.4161 8.9C81.5561 9.46 82.4061 10.23 82.9661 11.21C83.5461 12.19 83.8361 13.3 83.8361 14.54ZM76.0961 17.57C77.2561 17.57 78.1161 17.31 78.6761 16.79C79.2361 16.25 79.5161 15.5 79.5161 14.54C79.5161 12.5 78.3761 11.48 76.0961 11.48H72.7661V17.57H76.0961ZM86.038 18.53C86.038 16.49 86.498 14.66 87.418 13.04C88.338 11.4 89.588 10.12 91.168 9.2C92.768 8.28 94.538 7.82 96.478 7.82C98.758 7.82 100.748 8.37 102.448 9.47C104.148 10.57 105.388 12.13 106.168 14.15H102.898C102.318 12.89 101.478 11.92 100.378 11.24C99.298 10.56 97.998 10.22 96.478 10.22C95.018 10.22 93.708 10.56 92.548 11.24C91.388 11.92 90.478 12.89 89.818 14.15C89.158 15.39 88.828 16.85 88.828 18.53C88.828 20.19 89.158 21.65 89.818 22.91C90.478 24.15 91.388 25.11 92.548 25.79C93.708 26.47 95.018 26.81 96.478 26.81C97.998 26.81 99.298 26.48 100.378 25.82C101.478 25.14 102.318 24.17 102.898 22.91H106.168C105.388 24.91 104.148 26.46 102.448 27.56C100.748 28.64 98.758 29.18 96.478 29.18C94.538 29.18 92.768 28.73 91.168 27.83C89.588 26.91 88.338 25.64 87.418 24.02C86.498 22.4 86.038 20.57 86.038 18.53ZM126.342 8.09V29H123.612V19.52H112.962V29H110.232V8.09H112.962V17.27H123.612V8.09H126.342ZM143.363 24.35H134.243L132.563 29H129.683L137.243 8.21H140.393L147.923 29H145.043L143.363 24.35ZM142.583 22.13L138.803 11.57L135.023 22.13H142.583ZM164.088 8.09V10.31H158.388V29H155.658V10.31H149.928V8.09H164.088Z" fill="white"/>
<rect y="3" width="33" height="30" rx="6" fill="#6B6B6B"/>
<path d="M18.3499 7.18583L8.11103 19.8625C8.03919 19.9515 8 20.0624 8 20.1767V20.5425C8 20.7952 8.20482 21 8.45748 21C8.48577 21 8.51399 20.9974 8.54179 20.9922L15.4808 19.6911C15.8923 19.614 16.2107 20.0465 16.0148 20.4165L12.0581 27.8902C12.0199 27.9623 12 28.0426 12 28.1242V28.5C12 28.7761 12.2239 29 12.5 29H13.2533C13.4088 29 13.5555 28.9276 13.6501 28.8042L24.6315 14.4806C24.8227 14.2313 24.7393 13.8696 24.4583 13.7292L24.1534 13.5767C24.054 13.527 23.9408 13.5118 23.8318 13.5336L16.9063 14.9187C16.6961 14.9608 16.5 14.8 16.5 14.5856C16.5 14.5294 16.514 14.4741 16.5406 14.4246L19.9402 8.11099C19.9795 8.03814 20 7.95669 20 7.87394V7.5C20 7.22386 19.7761 7 19.5 7H18.7389C18.5878 7 18.4448 7.06831 18.3499 7.18583Z" fill="white" stroke="white" stroke-width="0.6"/>
</svg>
