<svg width="46" height="33" viewBox="0 0 46 33" fill="none" xmlns="http://www.w3.org/2000/svg">
<mask id="path-1-inside-1_4981_6197" fill="white">
<path d="M23.5645 3.78826C24.1425 4.09257 24.6551 4.82799 24.8078 5.60145C24.9278 6.17203 24.9169 6.26079 24.6442 6.92013C24.317 7.69359 24.3607 7.85843 24.906 7.85843C25.3204 7.85843 26.7709 8.36561 27.349 8.70796C28.0361 9.10103 28.7559 9.88717 29.2467 10.7367C29.6393 11.4341 29.9665 11.7384 30.1519 11.5989C30.2173 11.5482 30.3591 11.5609 30.4791 11.5989C30.6427 11.6623 30.6972 11.7891 30.6972 12.1061C30.6972 12.3343 30.6318 12.5499 30.5663 12.5753C30.49 12.6006 28.2215 12.6133 25.5167 12.6006C22.8229 12.5879 19.3656 12.5626 17.8605 12.5626L15.1012 12.5499L14.9158 12.2202C14.7413 11.9032 14.7413 11.8779 14.9376 11.713C15.0467 11.6116 15.3412 11.5355 15.5811 11.5355C16.0065 11.5355 16.0501 11.4975 16.3555 10.8889C17.1189 9.37999 18.6567 8.2515 20.4671 7.88379L21.5141 7.66823L21.1978 6.98353C20.7071 5.91844 20.8161 5.04354 21.5468 4.20669C22.1358 3.54734 22.8229 3.39519 23.5645 3.78826ZM37.001 12.2202C39.0514 13.4248 39.5749 16.8356 38.1134 19.4603C37.3609 20.7917 36.4121 21.5271 34.3726 22.3133C33.2274 22.7444 32.6712 23.1882 32.4422 23.8348C32.3658 24.0377 32.344 24.304 32.3768 24.4181C32.4422 24.6083 32.464 24.6083 32.7258 24.4054C33.1075 24.1138 33.3147 24.2406 33.3147 24.7604C33.3147 25.0521 33.2274 25.2803 33.0093 25.5212C32.6276 25.9523 32.3331 25.9523 31.9078 25.5339C31.6242 25.2549 31.5697 25.1155 31.5697 24.621C31.5697 23.2769 32.4749 22.1231 34.0999 21.3623C35.485 20.7283 36.3357 20.1577 36.8701 19.4984C37.4154 18.8517 37.6009 18.4333 37.8299 17.4062C38.277 15.4155 37.7863 13.7798 36.5429 13.1078C35.4087 12.4992 34.5362 12.7655 33.5437 14.0588L32.8893 14.921L32.9548 16.8103C33.0093 18.4967 32.9875 18.801 32.7803 19.7139C32.5294 20.7537 31.7551 22.5795 31.0353 23.8221C30.599 24.5702 30.1519 25.0647 28.8649 26.282C28.4287 26.6877 28.0797 27.0808 28.0797 27.1569C28.0797 27.2583 29.2467 27.2837 32.0932 27.2456L36.0958 27.1949L36.1285 27.5119C36.183 28.1459 34.6234 29.8577 33.2383 30.6565C32.8675 30.8847 32.5403 31.1129 32.4967 31.189C32.4531 31.2778 29.3012 31.3158 22.9974 31.3158H13.5744L12.5601 30.6565C12.0148 30.3014 11.3495 29.8703 11.0986 29.7055C10.3461 29.2237 9.35363 28.0698 9.2991 27.6387L9.24457 27.2583H13.4762C15.7992 27.2583 17.7296 27.2076 17.7624 27.1569C17.8496 26.9794 17.6969 26.8272 16.5736 25.9777C15.6247 25.2676 15.4284 25.1535 15.2103 25.2549C14.8613 25.4071 13.7816 25.2803 12.5928 24.9633C10.4988 24.3927 8.98282 22.7824 8.50294 20.5888C8.41569 20.1831 8.29573 19.1053 8.23029 18.205C8.17576 17.3048 8.06669 16.3538 8.01216 16.1002C7.88129 15.5296 7.46685 14.8956 6.79066 14.249C6.12538 13.6023 6.07085 13.3994 6.44166 12.8415L6.73613 12.3977L7.68497 12.4485C8.45932 12.4865 8.72107 12.5626 9.1246 12.8289C9.88804 13.3614 10.3461 14.0461 10.7278 15.2253C10.9132 15.8086 11.3386 16.9117 11.6658 17.6852C11.9929 18.446 12.2656 19.1814 12.2656 19.3082C12.2656 19.5111 12.2438 19.5111 11.8512 19.2828C11.1641 18.8771 10.8042 18.205 9.90985 15.6564C9.44088 14.3251 8.79741 13.5896 7.93582 13.3994C7.44504 13.2853 7.47776 13.4628 8.0776 14.3631C8.74288 15.3394 8.96101 16.0368 9.04826 17.495C9.22276 20.3986 9.4627 21.3242 10.357 22.5288C10.9787 23.3657 12.2656 24.0504 13.5962 24.2406C14.1851 24.3293 14.6868 24.3547 14.7304 24.304C14.774 24.2659 14.6868 24.0377 14.5341 23.8095C13.9997 22.9726 13.4762 21.7934 13.0836 20.5254C12.7237 19.3589 12.68 19.1053 12.6909 18.0782C12.7019 16.544 12.7782 15.9988 13.1163 14.642L13.3999 13.5009L22.7792 13.5389L32.1695 13.5643L32.4095 13.8813L32.6385 14.1856L32.7476 13.8179C32.9003 13.3107 33.6746 12.3724 34.1436 12.1061C35.027 11.6243 36.0522 11.6623 37.001 12.2202ZM11.3495 21.768C11.0986 22.0597 10.3025 20.4367 10.3134 19.6632C10.3134 19.2448 10.357 19.2955 10.8587 20.462C11.1641 21.1467 11.3822 21.73 11.3495 21.768Z"/>
</mask>
<path d="M23.5645 3.78826C24.1425 4.09257 24.6551 4.82799 24.8078 5.60145C24.9278 6.17203 24.9169 6.26079 24.6442 6.92013C24.317 7.69359 24.3607 7.85843 24.906 7.85843C25.3204 7.85843 26.7709 8.36561 27.349 8.70796C28.0361 9.10103 28.7559 9.88717 29.2467 10.7367C29.6393 11.4341 29.9665 11.7384 30.1519 11.5989C30.2173 11.5482 30.3591 11.5609 30.4791 11.5989C30.6427 11.6623 30.6972 11.7891 30.6972 12.1061C30.6972 12.3343 30.6318 12.5499 30.5663 12.5753C30.49 12.6006 28.2215 12.6133 25.5167 12.6006C22.8229 12.5879 19.3656 12.5626 17.8605 12.5626L15.1012 12.5499L14.9158 12.2202C14.7413 11.9032 14.7413 11.8779 14.9376 11.713C15.0467 11.6116 15.3412 11.5355 15.5811 11.5355C16.0065 11.5355 16.0501 11.4975 16.3555 10.8889C17.1189 9.37999 18.6567 8.2515 20.4671 7.88379L21.5141 7.66823L21.1978 6.98353C20.7071 5.91844 20.8161 5.04354 21.5468 4.20669C22.1358 3.54734 22.8229 3.39519 23.5645 3.78826ZM37.001 12.2202C39.0514 13.4248 39.5749 16.8356 38.1134 19.4603C37.3609 20.7917 36.4121 21.5271 34.3726 22.3133C33.2274 22.7444 32.6712 23.1882 32.4422 23.8348C32.3658 24.0377 32.344 24.304 32.3768 24.4181C32.4422 24.6083 32.464 24.6083 32.7258 24.4054C33.1075 24.1138 33.3147 24.2406 33.3147 24.7604C33.3147 25.0521 33.2274 25.2803 33.0093 25.5212C32.6276 25.9523 32.3331 25.9523 31.9078 25.5339C31.6242 25.2549 31.5697 25.1155 31.5697 24.621C31.5697 23.2769 32.4749 22.1231 34.0999 21.3623C35.485 20.7283 36.3357 20.1577 36.8701 19.4984C37.4154 18.8517 37.6009 18.4333 37.8299 17.4062C38.277 15.4155 37.7863 13.7798 36.5429 13.1078C35.4087 12.4992 34.5362 12.7655 33.5437 14.0588L32.8893 14.921L32.9548 16.8103C33.0093 18.4967 32.9875 18.801 32.7803 19.7139C32.5294 20.7537 31.7551 22.5795 31.0353 23.8221C30.599 24.5702 30.1519 25.0647 28.8649 26.282C28.4287 26.6877 28.0797 27.0808 28.0797 27.1569C28.0797 27.2583 29.2467 27.2837 32.0932 27.2456L36.0958 27.1949L36.1285 27.5119C36.183 28.1459 34.6234 29.8577 33.2383 30.6565C32.8675 30.8847 32.5403 31.1129 32.4967 31.189C32.4531 31.2778 29.3012 31.3158 22.9974 31.3158H13.5744L12.5601 30.6565C12.0148 30.3014 11.3495 29.8703 11.0986 29.7055C10.3461 29.2237 9.35363 28.0698 9.2991 27.6387L9.24457 27.2583H13.4762C15.7992 27.2583 17.7296 27.2076 17.7624 27.1569C17.8496 26.9794 17.6969 26.8272 16.5736 25.9777C15.6247 25.2676 15.4284 25.1535 15.2103 25.2549C14.8613 25.4071 13.7816 25.2803 12.5928 24.9633C10.4988 24.3927 8.98282 22.7824 8.50294 20.5888C8.41569 20.1831 8.29573 19.1053 8.23029 18.205C8.17576 17.3048 8.06669 16.3538 8.01216 16.1002C7.88129 15.5296 7.46685 14.8956 6.79066 14.249C6.12538 13.6023 6.07085 13.3994 6.44166 12.8415L6.73613 12.3977L7.68497 12.4485C8.45932 12.4865 8.72107 12.5626 9.1246 12.8289C9.88804 13.3614 10.3461 14.0461 10.7278 15.2253C10.9132 15.8086 11.3386 16.9117 11.6658 17.6852C11.9929 18.446 12.2656 19.1814 12.2656 19.3082C12.2656 19.5111 12.2438 19.5111 11.8512 19.2828C11.1641 18.8771 10.8042 18.205 9.90985 15.6564C9.44088 14.3251 8.79741 13.5896 7.93582 13.3994C7.44504 13.2853 7.47776 13.4628 8.0776 14.3631C8.74288 15.3394 8.96101 16.0368 9.04826 17.495C9.22276 20.3986 9.4627 21.3242 10.357 22.5288C10.9787 23.3657 12.2656 24.0504 13.5962 24.2406C14.1851 24.3293 14.6868 24.3547 14.7304 24.304C14.774 24.2659 14.6868 24.0377 14.5341 23.8095C13.9997 22.9726 13.4762 21.7934 13.0836 20.5254C12.7237 19.3589 12.68 19.1053 12.6909 18.0782C12.7019 16.544 12.7782 15.9988 13.1163 14.642L13.3999 13.5009L22.7792 13.5389L32.1695 13.5643L32.4095 13.8813L32.6385 14.1856L32.7476 13.8179C32.9003 13.3107 33.6746 12.3724 34.1436 12.1061C35.027 11.6243 36.0522 11.6623 37.001 12.2202ZM11.3495 21.768C11.0986 22.0597 10.3025 20.4367 10.3134 19.6632C10.3134 19.2448 10.357 19.2955 10.8587 20.462C11.1641 21.1467 11.3822 21.73 11.3495 21.768Z" fill="#0A0A0A" stroke="#0A0A0A" stroke-width="2" mask="url(#path-1-inside-1_4981_6197)"/>
</svg>
