<svg width="146" height="32" viewBox="0 0 146 32" fill="none" xmlns="http://www.w3.org/2000/svg">
<g clip-path="url(#clip0_4972_5995)">
<path d="M49.5381 20.7278C49.6239 22.415 49.9386 23.5787 50.4536 24.2187C50.9829 24.8587 51.6982 25.1787 52.6138 25.1787H55.1316V31.6223H51.4121C50.5824 31.6223 49.6811 31.4768 48.7084 31.1568C47.7356 30.8514 46.8343 30.2841 45.9903 29.455C45.1463 28.6259 44.4596 27.4914 43.916 26.0368C43.3724 24.5823 43.1006 22.6914 43.1006 20.3787V0.480469H49.4809L49.5381 20.7278Z" fill="#838383"/>
<path d="M63.2856 31.6223C60.9967 31.4477 59.28 30.7641 58.1213 29.5568C56.9625 28.3496 56.376 26.7496 56.376 24.7423C56.376 23.3459 56.6621 22.2259 57.2057 21.3677C57.7636 20.5096 58.436 19.8405 59.2371 19.3459C60.0382 18.8514 60.8822 18.5168 61.7549 18.3423C62.6418 18.1677 63.4143 18.0805 64.0724 18.0805H67.7489C67.7489 17.7023 67.7346 17.3532 67.6917 17.0187C67.6488 16.6841 67.4914 16.4077 67.2196 16.1896C66.9478 15.9714 66.5186 15.7968 65.9607 15.6659C65.3885 15.535 64.5731 15.4768 63.5144 15.4768H57.7779V9.0332H63.1711C65.2883 9.0332 67.0336 9.26593 68.3926 9.71684C69.766 10.1677 70.8532 10.8223 71.6686 11.695C72.484 12.5677 73.0563 13.6587 73.3853 14.9677C73.7143 16.2768 73.886 17.7896 73.886 19.4914V31.6514C71.8832 31.6805 69.9519 31.695 68.0636 31.6659C66.1896 31.6223 64.5874 31.6223 63.2856 31.6223ZM64.1868 23.3023C63.5288 23.3023 63.0567 23.4332 62.7706 23.695C62.4844 23.9568 62.3557 24.2477 62.3843 24.5823C62.4129 24.9168 62.5703 25.2223 62.885 25.4696C63.1854 25.7314 63.6146 25.8623 64.1439 25.8623C64.6589 25.8623 65.131 25.8768 65.5888 25.8914C66.0322 25.9059 66.4042 25.8768 66.7475 25.8041C67.0765 25.7314 67.334 25.5859 67.52 25.3532C67.706 25.1205 67.7918 24.7568 67.7918 24.2623V23.3023H64.1868Z" fill="#838383"/>
<path d="M101.71 7.03928V5.68655C101.71 4.98837 101.61 4.47928 101.395 4.14473C101.18 3.81018 100.894 3.60655 100.522 3.50473C100.15 3.40291 99.7069 3.35928 99.2205 3.37382C98.7198 3.38837 98.1762 3.40291 97.5897 3.40291C96.9746 3.40291 96.5025 3.592 96.1591 3.95564C95.8158 4.31928 95.6298 4.74109 95.6012 5.22109C95.5726 5.68655 95.7157 6.10837 96.0447 6.48655C96.3737 6.85018 96.903 7.03928 97.6469 7.03928H101.71Z" fill="#838383"/>
<path d="M80.8955 9.00391L83.1987 24.3494C83.5134 24.9312 83.8567 25.193 84.2287 25.1348C84.6006 25.0766 84.8724 24.8148 85.0441 24.3494L87.3473 9.01845H94.5C93.6703 12.6548 92.9121 15.913 92.2255 18.8221C91.9394 20.073 91.6532 21.2948 91.3671 22.5021C91.081 23.7094 90.8092 24.8003 90.5517 25.7894C90.2942 26.7785 90.0796 27.593 89.908 28.2476C89.7363 28.9021 89.6075 29.2803 89.5217 29.3966C88.9495 30.2694 88.1627 30.9239 87.1613 31.3603C86.1599 31.7966 85.1299 32.0148 84.057 32.0003C82.9841 31.9857 81.9684 31.753 81.0242 31.3021C80.0657 30.8512 79.3362 30.2112 78.8212 29.3676C78.7353 29.2221 78.6066 28.8148 78.4063 28.1457C78.2203 27.4766 78.0057 26.6476 77.7482 25.6585C77.4907 24.6694 77.2189 23.5639 76.9328 22.3712C76.6467 21.1639 76.3606 19.9566 76.0745 18.7348C75.3878 15.8548 74.6582 12.6257 73.8857 9.01845H80.8955V9.00391Z" fill="#838383"/>
<path d="M101.81 20.7265C101.839 21.5701 101.91 22.2538 102.025 22.7774C102.139 23.301 102.268 23.7228 102.44 24.0283C102.597 24.3337 102.783 24.5665 103.012 24.7265C103.241 24.8865 103.513 25.0174 103.827 25.1483V31.6356C102.311 31.6356 101.381 31.4756 100.537 31.1556C99.6788 30.8356 98.892 30.2392 98.1767 29.3665C97.4614 28.4937 96.8749 27.2865 96.4171 25.7592C95.9594 24.2174 95.7305 22.2247 95.7305 19.7956V8.98828H101.81V20.7265Z" fill="#838383"/>
<path d="M112.439 31.6221H106.059V9.00391H115.686C116.516 9.00391 117.389 9.12027 118.304 9.353C119.22 9.58572 120.064 10.0512 120.822 10.7639C121.594 11.4766 122.238 12.4948 122.753 13.8185C123.268 15.1421 123.526 16.8876 123.526 19.0694V31.6076H117.446V19.4185C117.417 18.6039 117.331 17.9348 117.188 17.4112C117.045 16.8876 116.845 16.4803 116.602 16.1894C116.359 15.8985 116.072 15.7094 115.729 15.6076C115.386 15.5057 115 15.4476 114.57 15.4476H112.425V31.6221H112.439Z" fill="#838383"/>
<path d="M131.623 31.6223C129.334 31.4477 127.617 30.7641 126.459 29.5568C125.3 28.3496 124.728 26.7496 124.728 24.7423C124.728 23.3459 124.999 22.2259 125.557 21.3677C126.115 20.5096 126.788 19.8405 127.589 19.3459C128.39 18.8514 129.234 18.5168 130.121 18.3423C131.008 18.1677 131.78 18.0805 132.438 18.0805H136.115C136.115 17.7023 136.086 17.3532 136.043 17.0187C136 16.6841 135.843 16.4077 135.571 16.1896C135.299 15.9714 134.87 15.7968 134.312 15.6659C133.74 15.535 132.925 15.4768 131.866 15.4768H126.129V9.0332H131.523C133.64 9.0332 135.385 9.26593 136.759 9.71684C138.132 10.1677 139.219 10.8223 140.034 11.695C140.85 12.5677 141.422 13.6587 141.751 14.9677C142.08 16.2768 142.238 17.7896 142.238 19.4914V31.6514C140.235 31.6805 138.289 31.695 136.415 31.6659C134.541 31.6223 132.939 31.6223 131.623 31.6223ZM132.524 23.3023C131.866 23.3023 131.394 23.4332 131.108 23.695C130.822 23.9568 130.693 24.2477 130.722 24.5823C130.75 24.9168 130.908 25.2223 131.208 25.4696C131.508 25.7314 131.938 25.8623 132.481 25.8623C132.996 25.8623 133.468 25.8768 133.912 25.8914C134.355 25.9059 134.741 25.8768 135.07 25.8041C135.399 25.7314 135.657 25.5859 135.843 25.3532C136.029 25.1205 136.129 24.7568 136.129 24.2623V23.3023H132.524Z" fill="#838383"/>
<path d="M49.9951 20.261C50.0809 21.9482 50.3814 23.1119 50.9107 23.7373C51.44 24.3773 52.1553 24.6973 53.0708 24.6973H55.5886V31.141H51.8691C51.0394 31.141 50.1382 30.981 49.1654 30.69C48.1926 30.3846 47.2914 29.8173 46.4473 28.9882C45.6033 28.1591 44.9166 27.0246 44.373 25.57C43.8294 24.1155 43.5576 22.2246 43.5576 19.8973V0.0136719H49.9379L49.9951 20.261Z" fill="#0A0A0A"/>
<path d="M63.7433 31.1555C61.4544 30.981 59.7377 30.2973 58.5933 29.0901C57.4345 27.8828 56.8623 26.2828 56.8623 24.2755C56.8623 22.8791 57.1341 21.7591 57.692 20.901C58.2499 20.0428 58.9223 19.3737 59.7234 18.8791C60.5245 18.3846 61.3542 18.0501 62.2555 17.8755C63.1424 17.701 63.9149 17.6137 64.573 17.6137H68.2638C68.2638 17.2355 68.2495 16.8864 68.1923 16.5519C68.1494 16.2173 67.992 15.941 67.7202 15.7228C67.4484 15.5046 67.0192 15.3301 66.4613 15.1991C65.8891 15.0682 65.0737 15.0101 64.0151 15.0101H58.2786V8.56641H63.6717C65.789 8.56641 67.5342 8.79913 68.8933 9.2355C70.2666 9.68641 71.3538 10.341 72.1692 11.2137C72.9847 12.0864 73.5569 13.1773 73.8859 14.4864C74.2149 15.7955 74.3866 17.3082 74.3866 19.0101V31.1555C72.3838 31.1846 70.4526 31.1846 68.5499 31.1846C66.6473 31.1555 65.0451 31.1555 63.7433 31.1555ZM64.6445 22.8355C63.9865 22.8355 63.5144 22.9664 63.2283 23.2282C62.9422 23.4901 62.8134 23.781 62.842 24.1155C62.8706 24.4501 63.028 24.741 63.3427 25.0028C63.6431 25.2646 64.058 25.3955 64.6016 25.3955C65.1166 25.3955 65.5887 25.4101 66.0465 25.4246C66.4899 25.4391 66.8762 25.4101 67.2052 25.3373C67.5342 25.2646 67.7917 25.1046 67.9777 24.8864C68.1637 24.6537 68.2495 24.2901 68.2495 23.7955V22.8355H64.6445Z" fill="#0A0A0A"/>
<path d="M102.168 6.57443V5.22169C102.168 4.52351 102.068 4.01442 101.853 3.67987C101.638 3.34533 101.352 3.14169 100.98 3.03987C100.608 2.93805 100.165 2.89443 99.6642 2.90898C99.1635 2.92352 98.6199 2.93807 98.0477 2.93807C97.4326 2.93807 96.9462 3.12716 96.6171 3.4908C96.2738 3.85443 96.0878 4.27625 96.0592 4.75625C96.0306 5.23625 96.1737 5.65805 96.5027 6.02169C96.8174 6.38533 97.361 6.57443 98.1049 6.57443H102.168Z" fill="#0A0A0A"/>
<path d="M81.3385 8.55273L83.656 23.8837C83.9708 24.4655 84.3141 24.7273 84.686 24.6691C85.058 24.6109 85.3298 24.3491 85.5015 23.8837L87.8189 8.55273H94.9717C94.142 12.1891 93.3838 15.4473 92.6971 18.3564C92.411 19.6073 92.1249 20.8291 91.8388 22.0364C91.5527 23.2437 91.2809 24.3346 91.0234 25.3237C90.7659 26.3128 90.5513 27.1273 90.3796 27.7818C90.208 28.4364 90.0792 28.8146 89.9934 28.9455C89.4212 29.8182 88.6344 30.4728 87.633 30.9091C86.6316 31.3455 85.6016 31.5637 84.5287 31.5346C83.4558 31.52 82.4401 31.2873 81.4816 30.8364C80.5231 30.3855 79.7935 29.7455 79.2785 28.9018C79.1927 28.7564 79.064 28.3491 78.878 27.68C78.692 27.0109 78.4774 26.1818 78.2199 25.1928C77.9624 24.2037 77.6906 23.1128 77.4045 21.9055C77.1184 20.6982 76.8323 19.4909 76.5462 18.2691C75.8595 15.3891 75.1299 12.16 74.3574 8.55273H81.3385Z" fill="#0A0A0A"/>
<path d="M102.268 20.2623C102.296 21.1059 102.368 21.7896 102.482 22.3132C102.597 22.8368 102.725 23.2441 102.883 23.5496C103.04 23.855 103.226 24.0878 103.455 24.2478C103.684 24.4078 103.956 24.5387 104.27 24.655V31.1423C102.754 31.1423 101.824 30.9823 100.966 30.6623C100.108 30.3423 99.3207 29.7459 98.6054 28.8732C97.8902 28.0005 97.3036 26.7932 96.8458 25.2514C96.3881 23.7096 96.1592 21.7168 96.1592 19.2878V8.48047H102.239V20.2623H102.268Z" fill="#0A0A0A"/>
<path d="M112.882 31.1564H106.502V8.55273H116.13C116.959 8.55273 117.832 8.66911 118.748 8.90184C119.663 9.13457 120.507 9.61455 121.28 10.3127C122.052 11.0255 122.696 12.0437 123.211 13.3673C123.726 14.6909 123.983 16.4364 123.983 18.6182V31.1564H117.903V18.9673C117.875 18.1527 117.789 17.4837 117.646 16.96C117.503 16.4364 117.317 16.0291 117.074 15.7382C116.831 15.4473 116.544 15.2437 116.201 15.1564C115.858 15.0546 115.472 14.9964 115.042 14.9964H112.897V31.1564H112.882Z" fill="#0A0A0A"/>
<path d="M132.081 31.1555C129.792 30.981 128.075 30.2973 126.917 29.0901C125.758 27.8828 125.186 26.2828 125.186 24.2755C125.186 22.8791 125.457 21.7591 126.015 20.901C126.573 20.0428 127.246 19.3737 128.047 18.8791C128.848 18.3846 129.692 18.0501 130.579 17.8755C131.466 17.701 132.238 17.6137 132.896 17.6137H136.573C136.573 17.2355 136.558 16.8864 136.501 16.5519C136.458 16.2173 136.301 15.941 136.029 15.7228C135.757 15.5046 135.342 15.3301 134.77 15.1991C134.198 15.0682 133.383 15.0101 132.324 15.0101H126.587V8.56641H131.981C134.098 8.56641 135.829 8.79913 137.202 9.2355C138.576 9.68641 139.663 10.341 140.478 11.2137C141.294 12.0864 141.866 13.1773 142.195 14.4864C142.524 15.7955 142.681 17.3082 142.681 19.0101V31.1555C140.678 31.1846 138.747 31.1846 136.859 31.1846C134.985 31.1555 133.383 31.1555 132.081 31.1555ZM132.982 22.8355C132.324 22.8355 131.852 22.9664 131.566 23.2282C131.28 23.4901 131.151 23.781 131.18 24.1155C131.208 24.4501 131.366 24.741 131.666 25.0028C131.966 25.2646 132.396 25.3955 132.925 25.3955C133.44 25.3955 133.912 25.4101 134.355 25.4246C134.799 25.4391 135.185 25.4101 135.514 25.3373C135.843 25.2646 136.101 25.1046 136.287 24.8864C136.473 24.6537 136.573 24.2901 136.573 23.7955V22.8355H132.982Z" fill="#0A0A0A"/>
<path d="M143.053 9.01912C143.21 8.99003 143.439 8.96094 143.639 8.96094C143.968 8.96094 144.183 9.03366 144.34 9.16457C144.455 9.26639 144.526 9.42639 144.526 9.61548C144.526 9.93548 144.326 10.1391 144.083 10.2264V10.2409C144.254 10.2991 144.369 10.4737 144.44 10.7355C144.512 11.07 144.569 11.3028 144.612 11.4046H144.297C144.254 11.3318 144.197 11.1282 144.14 10.8228C144.068 10.4882 143.94 10.3573 143.654 10.3573H143.367V11.4046H143.053V9.01912ZM143.367 10.11H143.682C144.011 10.11 144.226 9.92094 144.226 9.64457C144.226 9.32457 143.997 9.19367 143.682 9.19367C143.525 9.19367 143.425 9.20821 143.382 9.22276V10.11H143.367Z" fill="#0A0A0A"/>
<path d="M143.711 12.3925C142.524 12.3925 141.551 11.4034 141.551 10.1816C141.551 8.95979 142.524 7.9707 143.711 7.9707C144.913 7.9707 145.885 8.95979 145.885 10.1816C145.885 11.3889 144.913 12.3925 143.711 12.3925ZM143.711 8.27616C142.681 8.27616 141.837 9.13434 141.837 10.1816C141.837 11.2289 142.681 12.0871 143.711 12.0871C144.755 12.0871 145.585 11.2289 145.585 10.1816C145.599 9.11979 144.755 8.27616 143.711 8.27616Z" fill="#0A0A0A"/>
</g>
<mask id="path-17-inside-1_4972_5995" fill="white">
<path d="M19.9786 5.21428C20.4687 5.47248 20.9033 6.09648 21.0327 6.75274C21.1344 7.23688 21.1252 7.31219 20.894 7.87163C20.6166 8.5279 20.6536 8.66776 21.1159 8.66776C21.4673 8.66776 22.6971 9.0981 23.1872 9.38858C23.7697 9.72209 24.38 10.3891 24.7961 11.1099C25.129 11.7017 25.4064 11.9599 25.5635 11.8415C25.619 11.7985 25.7392 11.8092 25.8409 11.8415C25.9796 11.8953 26.0259 12.0029 26.0259 12.2719C26.0259 12.4655 25.9704 12.6484 25.9149 12.6699C25.8502 12.6914 23.9269 12.7022 21.6337 12.6914C19.3498 12.6807 16.4186 12.6592 15.1426 12.6592L12.8032 12.6484L12.646 12.3687C12.4981 12.0997 12.4981 12.0782 12.6645 11.9383C12.757 11.8523 13.0066 11.7877 13.2101 11.7877C13.5707 11.7877 13.6077 11.7554 13.8666 11.239C14.5138 9.95878 15.8176 9.00127 17.3526 8.68928L18.2402 8.50638L17.9721 7.92542C17.556 7.02171 17.6484 6.27937 18.268 5.56931C18.7673 5.00987 19.3498 4.88077 19.9786 5.21428ZM31.3704 12.3687C33.1088 13.3907 33.5526 16.2848 32.3136 18.5118C31.6756 19.6414 30.8711 20.2654 29.142 20.9325C28.1711 21.2983 27.6995 21.6748 27.5053 22.2235C27.4406 22.3956 27.4221 22.6215 27.4499 22.7184C27.5053 22.8798 27.5238 22.8798 27.7457 22.7076C28.0694 22.4602 28.2451 22.5678 28.2451 23.0089C28.2451 23.2563 28.1711 23.45 27.9862 23.6544C27.6625 24.0202 27.4129 24.0202 27.0523 23.6651C26.8118 23.4284 26.7656 23.3101 26.7656 22.8905C26.7656 21.7501 27.5331 20.7711 28.9108 20.1256C30.0851 19.5877 30.8064 19.1035 31.2595 18.5441C31.7218 17.9954 31.879 17.6404 32.0732 16.7689C32.4523 15.0798 32.0362 13.692 30.9821 13.1218C30.0204 12.6054 29.2807 12.8313 28.4392 13.9287L27.8844 14.6602L27.9399 16.2633C27.9862 17.6942 27.9677 17.9524 27.792 18.727C27.5793 19.6092 26.9228 21.1584 26.3125 22.2127C25.9427 22.8475 25.5636 23.2671 24.4725 24.2999C24.1026 24.6441 23.8067 24.9777 23.8067 25.0422C23.8067 25.1283 24.7961 25.1498 27.2094 25.1175L30.603 25.0745L30.6307 25.3434C30.6769 25.8814 29.3547 27.3338 28.1803 28.0116C27.866 28.2052 27.5886 28.3989 27.5516 28.4634C27.5146 28.5387 24.8423 28.571 19.4978 28.571H11.5087L10.6488 28.0116C10.1864 27.7103 9.62238 27.3445 9.40971 27.2047C8.7717 26.7958 7.93025 25.8168 7.88402 25.451L7.83779 25.1283H11.4255C13.395 25.1283 15.0317 25.0852 15.0594 25.0422C15.1334 24.8916 15.0039 24.7625 14.0515 24.0417C13.2471 23.4392 13.0806 23.3424 12.8957 23.4284C12.5998 23.5575 11.6844 23.45 10.6765 23.181C8.90115 22.6969 7.61587 21.3305 7.20902 19.4693C7.13504 19.125 7.03333 18.2106 6.97785 17.4467C6.93162 16.6828 6.83915 15.876 6.79292 15.6608C6.68196 15.1767 6.33059 14.6387 5.7573 14.09C5.19326 13.5414 5.14702 13.3692 5.46141 12.8958L5.71107 12.5193L6.51552 12.5623C7.17203 12.5946 7.39395 12.6592 7.73607 12.8851C8.38334 13.3369 8.7717 13.9179 9.09533 14.9184C9.25252 15.4133 9.61314 16.3493 9.89054 17.0056C10.1679 17.6511 10.3991 18.2751 10.3991 18.3827C10.3991 18.5548 10.3806 18.5548 10.0477 18.3612C9.46519 18.0169 9.16005 17.4467 8.40183 15.2842C8.00423 14.1546 7.45868 13.5306 6.72819 13.3692C6.3121 13.2724 6.33984 13.423 6.8484 14.1869C7.41244 15.0153 7.59738 15.607 7.67135 16.8442C7.81929 19.3079 8.02272 20.0933 8.78094 21.1154C9.308 21.8254 10.3991 22.4064 11.5272 22.5678C12.0265 22.6431 12.4518 22.6646 12.4888 22.6215C12.5258 22.5893 12.4518 22.3956 12.3224 22.202C11.8693 21.4919 11.4255 20.4914 11.0926 19.4155C10.7875 18.4257 10.7505 18.2106 10.7597 17.3391C10.769 16.0373 10.8337 15.5747 11.1203 14.4236L11.3607 13.4553L19.3128 13.4876L27.2742 13.5091L27.4776 13.778L27.6718 14.0363L27.7642 13.7243C27.8937 13.2939 28.5502 12.4978 28.9478 12.2719C29.6968 11.863 30.566 11.8953 31.3704 12.3687ZM9.62238 20.4698C9.40971 20.7173 8.73471 19.3402 8.74396 18.6839C8.74396 18.3289 8.78094 18.3719 9.20629 19.3617C9.46519 19.9427 9.65012 20.4376 9.62238 20.4698Z"/>
</mask>
<path d="M19.9786 5.21428C20.4687 5.47248 20.9033 6.09648 21.0327 6.75274C21.1344 7.23688 21.1252 7.31219 20.894 7.87163C20.6166 8.5279 20.6536 8.66776 21.1159 8.66776C21.4673 8.66776 22.6971 9.0981 23.1872 9.38858C23.7697 9.72209 24.38 10.3891 24.7961 11.1099C25.129 11.7017 25.4064 11.9599 25.5635 11.8415C25.619 11.7985 25.7392 11.8092 25.8409 11.8415C25.9796 11.8953 26.0259 12.0029 26.0259 12.2719C26.0259 12.4655 25.9704 12.6484 25.9149 12.6699C25.8502 12.6914 23.9269 12.7022 21.6337 12.6914C19.3498 12.6807 16.4186 12.6592 15.1426 12.6592L12.8032 12.6484L12.646 12.3687C12.4981 12.0997 12.4981 12.0782 12.6645 11.9383C12.757 11.8523 13.0066 11.7877 13.2101 11.7877C13.5707 11.7877 13.6077 11.7554 13.8666 11.239C14.5138 9.95878 15.8176 9.00127 17.3526 8.68928L18.2402 8.50638L17.9721 7.92542C17.556 7.02171 17.6484 6.27937 18.268 5.56931C18.7673 5.00987 19.3498 4.88077 19.9786 5.21428ZM31.3704 12.3687C33.1088 13.3907 33.5526 16.2848 32.3136 18.5118C31.6756 19.6414 30.8711 20.2654 29.142 20.9325C28.1711 21.2983 27.6995 21.6748 27.5053 22.2235C27.4406 22.3956 27.4221 22.6215 27.4499 22.7184C27.5053 22.8798 27.5238 22.8798 27.7457 22.7076C28.0694 22.4602 28.2451 22.5678 28.2451 23.0089C28.2451 23.2563 28.1711 23.45 27.9862 23.6544C27.6625 24.0202 27.4129 24.0202 27.0523 23.6651C26.8118 23.4284 26.7656 23.3101 26.7656 22.8905C26.7656 21.7501 27.5331 20.7711 28.9108 20.1256C30.0851 19.5877 30.8064 19.1035 31.2595 18.5441C31.7218 17.9954 31.879 17.6404 32.0732 16.7689C32.4523 15.0798 32.0362 13.692 30.9821 13.1218C30.0204 12.6054 29.2807 12.8313 28.4392 13.9287L27.8844 14.6602L27.9399 16.2633C27.9862 17.6942 27.9677 17.9524 27.792 18.727C27.5793 19.6092 26.9228 21.1584 26.3125 22.2127C25.9427 22.8475 25.5636 23.2671 24.4725 24.2999C24.1026 24.6441 23.8067 24.9777 23.8067 25.0422C23.8067 25.1283 24.7961 25.1498 27.2094 25.1175L30.603 25.0745L30.6307 25.3434C30.6769 25.8814 29.3547 27.3338 28.1803 28.0116C27.866 28.2052 27.5886 28.3989 27.5516 28.4634C27.5146 28.5387 24.8423 28.571 19.4978 28.571H11.5087L10.6488 28.0116C10.1864 27.7103 9.62238 27.3445 9.40971 27.2047C8.7717 26.7958 7.93025 25.8168 7.88402 25.451L7.83779 25.1283H11.4255C13.395 25.1283 15.0317 25.0852 15.0594 25.0422C15.1334 24.8916 15.0039 24.7625 14.0515 24.0417C13.2471 23.4392 13.0806 23.3424 12.8957 23.4284C12.5998 23.5575 11.6844 23.45 10.6765 23.181C8.90115 22.6969 7.61587 21.3305 7.20902 19.4693C7.13504 19.125 7.03333 18.2106 6.97785 17.4467C6.93162 16.6828 6.83915 15.876 6.79292 15.6608C6.68196 15.1767 6.33059 14.6387 5.7573 14.09C5.19326 13.5414 5.14702 13.3692 5.46141 12.8958L5.71107 12.5193L6.51552 12.5623C7.17203 12.5946 7.39395 12.6592 7.73607 12.8851C8.38334 13.3369 8.7717 13.9179 9.09533 14.9184C9.25252 15.4133 9.61314 16.3493 9.89054 17.0056C10.1679 17.6511 10.3991 18.2751 10.3991 18.3827C10.3991 18.5548 10.3806 18.5548 10.0477 18.3612C9.46519 18.0169 9.16005 17.4467 8.40183 15.2842C8.00423 14.1546 7.45868 13.5306 6.72819 13.3692C6.3121 13.2724 6.33984 13.423 6.8484 14.1869C7.41244 15.0153 7.59738 15.607 7.67135 16.8442C7.81929 19.3079 8.02272 20.0933 8.78094 21.1154C9.308 21.8254 10.3991 22.4064 11.5272 22.5678C12.0265 22.6431 12.4518 22.6646 12.4888 22.6215C12.5258 22.5893 12.4518 22.3956 12.3224 22.202C11.8693 21.4919 11.4255 20.4914 11.0926 19.4155C10.7875 18.4257 10.7505 18.2106 10.7597 17.3391C10.769 16.0373 10.8337 15.5747 11.1203 14.4236L11.3607 13.4553L19.3128 13.4876L27.2742 13.5091L27.4776 13.778L27.6718 14.0363L27.7642 13.7243C27.8937 13.2939 28.5502 12.4978 28.9478 12.2719C29.6968 11.863 30.566 11.8953 31.3704 12.3687ZM9.62238 20.4698C9.40971 20.7173 8.73471 19.3402 8.74396 18.6839C8.74396 18.3289 8.78094 18.3719 9.20629 19.3617C9.46519 19.9427 9.65012 20.4376 9.62238 20.4698Z" fill="#0A0A0A" stroke="#0A0A0A" stroke-width="2" mask="url(#path-17-inside-1_4972_5995)"/>
<defs>
<clipPath id="clip0_4972_5995">
<rect width="103" height="32" fill="white" transform="translate(43)"/>
</clipPath>
</defs>
</svg>
