<svg width="149" height="32" viewBox="0 0 149 32" fill="none" xmlns="http://www.w3.org/2000/svg">
<mask id="path-1-inside-1_4972_5972" fill="white">
<path d="M19.9786 5.21428C20.4687 5.47248 20.9033 6.09648 21.0327 6.75274C21.1344 7.23688 21.1252 7.31219 20.894 7.87163C20.6166 8.5279 20.6536 8.66776 21.1159 8.66776C21.4673 8.66776 22.6971 9.0981 23.1872 9.38858C23.7697 9.72209 24.38 10.3891 24.7961 11.1099C25.129 11.7017 25.4064 11.9599 25.5635 11.8415C25.619 11.7985 25.7392 11.8092 25.8409 11.8415C25.9796 11.8953 26.0259 12.0029 26.0259 12.2719C26.0259 12.4655 25.9704 12.6484 25.9149 12.6699C25.8502 12.6914 23.9269 12.7022 21.6337 12.6914C19.3498 12.6807 16.4186 12.6592 15.1426 12.6592L12.8032 12.6484L12.646 12.3687C12.4981 12.0997 12.4981 12.0782 12.6645 11.9383C12.757 11.8523 13.0066 11.7877 13.2101 11.7877C13.5707 11.7877 13.6077 11.7554 13.8666 11.239C14.5138 9.95878 15.8176 9.00127 17.3526 8.68928L18.2402 8.50638L17.9721 7.92542C17.556 7.02171 17.6484 6.27937 18.268 5.56931C18.7673 5.00987 19.3498 4.88077 19.9786 5.21428ZM31.3704 12.3687C33.1088 13.3907 33.5526 16.2848 32.3136 18.5118C31.6756 19.6414 30.8711 20.2654 29.142 20.9325C28.1711 21.2983 27.6995 21.6748 27.5053 22.2235C27.4406 22.3956 27.4221 22.6215 27.4499 22.7184C27.5053 22.8798 27.5238 22.8798 27.7457 22.7076C28.0694 22.4602 28.2451 22.5678 28.2451 23.0089C28.2451 23.2563 28.1711 23.45 27.9862 23.6544C27.6625 24.0202 27.4129 24.0202 27.0523 23.6651C26.8118 23.4284 26.7656 23.3101 26.7656 22.8905C26.7656 21.7501 27.5331 20.7711 28.9108 20.1256C30.0851 19.5877 30.8064 19.1035 31.2595 18.5441C31.7218 17.9954 31.879 17.6404 32.0732 16.7689C32.4523 15.0798 32.0362 13.692 30.9821 13.1218C30.0204 12.6054 29.2807 12.8313 28.4392 13.9287L27.8844 14.6602L27.9399 16.2633C27.9862 17.6942 27.9677 17.9524 27.792 18.727C27.5793 19.6092 26.9228 21.1584 26.3125 22.2127C25.9427 22.8475 25.5636 23.2671 24.4725 24.2999C24.1026 24.6441 23.8067 24.9777 23.8067 25.0422C23.8067 25.1283 24.7961 25.1498 27.2094 25.1175L30.603 25.0745L30.6307 25.3434C30.6769 25.8814 29.3547 27.3338 28.1803 28.0116C27.866 28.2052 27.5886 28.3989 27.5516 28.4634C27.5146 28.5387 24.8423 28.571 19.4978 28.571H11.5087L10.6488 28.0116C10.1864 27.7103 9.62238 27.3445 9.40971 27.2047C8.7717 26.7958 7.93025 25.8168 7.88402 25.451L7.83779 25.1283H11.4255C13.395 25.1283 15.0317 25.0852 15.0594 25.0422C15.1334 24.8916 15.0039 24.7625 14.0515 24.0417C13.2471 23.4392 13.0806 23.3424 12.8957 23.4284C12.5998 23.5575 11.6844 23.45 10.6765 23.181C8.90115 22.6969 7.61587 21.3305 7.20902 19.4693C7.13504 19.125 7.03333 18.2106 6.97785 17.4467C6.93162 16.6828 6.83915 15.876 6.79292 15.6608C6.68196 15.1767 6.33059 14.6387 5.7573 14.09C5.19326 13.5414 5.14702 13.3692 5.46141 12.8958L5.71107 12.5193L6.51552 12.5623C7.17203 12.5946 7.39395 12.6592 7.73607 12.8851C8.38334 13.3369 8.7717 13.9179 9.09533 14.9184C9.25252 15.4133 9.61314 16.3493 9.89054 17.0056C10.1679 17.6511 10.3991 18.2751 10.3991 18.3827C10.3991 18.5548 10.3806 18.5548 10.0477 18.3612C9.46519 18.0169 9.16005 17.4467 8.40183 15.2842C8.00423 14.1546 7.45868 13.5306 6.72819 13.3692C6.3121 13.2724 6.33984 13.423 6.8484 14.1869C7.41244 15.0153 7.59738 15.607 7.67135 16.8442C7.81929 19.3079 8.02272 20.0933 8.78094 21.1154C9.308 21.8254 10.3991 22.4064 11.5272 22.5678C12.0265 22.6431 12.4518 22.6646 12.4888 22.6215C12.5258 22.5893 12.4518 22.3956 12.3224 22.202C11.8693 21.4919 11.4255 20.4914 11.0926 19.4155C10.7875 18.4257 10.7505 18.2106 10.7597 17.3391C10.769 16.0373 10.8337 15.5747 11.1203 14.4236L11.3607 13.4553L19.3128 13.4876L27.2742 13.5091L27.4776 13.778L27.6718 14.0363L27.7642 13.7243C27.8937 13.2939 28.5502 12.4978 28.9478 12.2719C29.6968 11.863 30.566 11.8953 31.3704 12.3687ZM9.62238 20.4698C9.40971 20.7173 8.73471 19.3402 8.74396 18.6839C8.74396 18.3289 8.78094 18.3719 9.20629 19.3617C9.46519 19.9427 9.65012 20.4376 9.62238 20.4698Z"/>
</mask>
<path d="M19.9786 5.21428C20.4687 5.47248 20.9033 6.09648 21.0327 6.75274C21.1344 7.23688 21.1252 7.31219 20.894 7.87163C20.6166 8.5279 20.6536 8.66776 21.1159 8.66776C21.4673 8.66776 22.6971 9.0981 23.1872 9.38858C23.7697 9.72209 24.38 10.3891 24.7961 11.1099C25.129 11.7017 25.4064 11.9599 25.5635 11.8415C25.619 11.7985 25.7392 11.8092 25.8409 11.8415C25.9796 11.8953 26.0259 12.0029 26.0259 12.2719C26.0259 12.4655 25.9704 12.6484 25.9149 12.6699C25.8502 12.6914 23.9269 12.7022 21.6337 12.6914C19.3498 12.6807 16.4186 12.6592 15.1426 12.6592L12.8032 12.6484L12.646 12.3687C12.4981 12.0997 12.4981 12.0782 12.6645 11.9383C12.757 11.8523 13.0066 11.7877 13.2101 11.7877C13.5707 11.7877 13.6077 11.7554 13.8666 11.239C14.5138 9.95878 15.8176 9.00127 17.3526 8.68928L18.2402 8.50638L17.9721 7.92542C17.556 7.02171 17.6484 6.27937 18.268 5.56931C18.7673 5.00987 19.3498 4.88077 19.9786 5.21428ZM31.3704 12.3687C33.1088 13.3907 33.5526 16.2848 32.3136 18.5118C31.6756 19.6414 30.8711 20.2654 29.142 20.9325C28.1711 21.2983 27.6995 21.6748 27.5053 22.2235C27.4406 22.3956 27.4221 22.6215 27.4499 22.7184C27.5053 22.8798 27.5238 22.8798 27.7457 22.7076C28.0694 22.4602 28.2451 22.5678 28.2451 23.0089C28.2451 23.2563 28.1711 23.45 27.9862 23.6544C27.6625 24.0202 27.4129 24.0202 27.0523 23.6651C26.8118 23.4284 26.7656 23.3101 26.7656 22.8905C26.7656 21.7501 27.5331 20.7711 28.9108 20.1256C30.0851 19.5877 30.8064 19.1035 31.2595 18.5441C31.7218 17.9954 31.879 17.6404 32.0732 16.7689C32.4523 15.0798 32.0362 13.692 30.9821 13.1218C30.0204 12.6054 29.2807 12.8313 28.4392 13.9287L27.8844 14.6602L27.9399 16.2633C27.9862 17.6942 27.9677 17.9524 27.792 18.727C27.5793 19.6092 26.9228 21.1584 26.3125 22.2127C25.9427 22.8475 25.5636 23.2671 24.4725 24.2999C24.1026 24.6441 23.8067 24.9777 23.8067 25.0422C23.8067 25.1283 24.7961 25.1498 27.2094 25.1175L30.603 25.0745L30.6307 25.3434C30.6769 25.8814 29.3547 27.3338 28.1803 28.0116C27.866 28.2052 27.5886 28.3989 27.5516 28.4634C27.5146 28.5387 24.8423 28.571 19.4978 28.571H11.5087L10.6488 28.0116C10.1864 27.7103 9.62238 27.3445 9.40971 27.2047C8.7717 26.7958 7.93025 25.8168 7.88402 25.451L7.83779 25.1283H11.4255C13.395 25.1283 15.0317 25.0852 15.0594 25.0422C15.1334 24.8916 15.0039 24.7625 14.0515 24.0417C13.2471 23.4392 13.0806 23.3424 12.8957 23.4284C12.5998 23.5575 11.6844 23.45 10.6765 23.181C8.90115 22.6969 7.61587 21.3305 7.20902 19.4693C7.13504 19.125 7.03333 18.2106 6.97785 17.4467C6.93162 16.6828 6.83915 15.876 6.79292 15.6608C6.68196 15.1767 6.33059 14.6387 5.7573 14.09C5.19326 13.5414 5.14702 13.3692 5.46141 12.8958L5.71107 12.5193L6.51552 12.5623C7.17203 12.5946 7.39395 12.6592 7.73607 12.8851C8.38334 13.3369 8.7717 13.9179 9.09533 14.9184C9.25252 15.4133 9.61314 16.3493 9.89054 17.0056C10.1679 17.6511 10.3991 18.2751 10.3991 18.3827C10.3991 18.5548 10.3806 18.5548 10.0477 18.3612C9.46519 18.0169 9.16005 17.4467 8.40183 15.2842C8.00423 14.1546 7.45868 13.5306 6.72819 13.3692C6.3121 13.2724 6.33984 13.423 6.8484 14.1869C7.41244 15.0153 7.59738 15.607 7.67135 16.8442C7.81929 19.3079 8.02272 20.0933 8.78094 21.1154C9.308 21.8254 10.3991 22.4064 11.5272 22.5678C12.0265 22.6431 12.4518 22.6646 12.4888 22.6215C12.5258 22.5893 12.4518 22.3956 12.3224 22.202C11.8693 21.4919 11.4255 20.4914 11.0926 19.4155C10.7875 18.4257 10.7505 18.2106 10.7597 17.3391C10.769 16.0373 10.8337 15.5747 11.1203 14.4236L11.3607 13.4553L19.3128 13.4876L27.2742 13.5091L27.4776 13.778L27.6718 14.0363L27.7642 13.7243C27.8937 13.2939 28.5502 12.4978 28.9478 12.2719C29.6968 11.863 30.566 11.8953 31.3704 12.3687ZM9.62238 20.4698C9.40971 20.7173 8.73471 19.3402 8.74396 18.6839C8.74396 18.3289 8.78094 18.3719 9.20629 19.3617C9.46519 19.9427 9.65012 20.4376 9.62238 20.4698Z" fill="white" stroke="white" stroke-width="2" mask="url(#path-1-inside-1_4972_5972)"/>
<g clip-path="url(#clip0_4972_5972)">
<path d="M52.5381 20.7278C52.6239 22.415 52.9386 23.5787 53.4536 24.2187C53.9829 24.8587 54.6982 25.1787 55.6138 25.1787H58.1316V31.6223H54.4121C53.5824 31.6223 52.6811 31.4768 51.7084 31.1568C50.7356 30.8514 49.8343 30.2841 48.9903 29.455C48.1463 28.6259 47.4596 27.4914 46.916 26.0368C46.3724 24.5823 46.1006 22.6914 46.1006 20.3787V0.480469H52.4809L52.5381 20.7278Z" fill="#838383"/>
<path d="M66.2856 31.6223C63.9967 31.4477 62.28 30.7641 61.1213 29.5568C59.9625 28.3496 59.376 26.7496 59.376 24.7423C59.376 23.3459 59.6621 22.2259 60.2057 21.3677C60.7636 20.5096 61.436 19.8405 62.2371 19.3459C63.0382 18.8514 63.8822 18.5168 64.7549 18.3423C65.6418 18.1677 66.4143 18.0805 67.0724 18.0805H70.7489C70.7489 17.7023 70.7346 17.3532 70.6917 17.0187C70.6488 16.6841 70.4914 16.4077 70.2196 16.1896C69.9478 15.9714 69.5186 15.7968 68.9607 15.6659C68.3885 15.535 67.5731 15.4768 66.5144 15.4768H60.7779V9.0332H66.1711C68.2883 9.0332 70.0336 9.26593 71.3926 9.71684C72.766 10.1677 73.8532 10.8223 74.6686 11.695C75.484 12.5677 76.0563 13.6587 76.3853 14.9677C76.7143 16.2768 76.886 17.7896 76.886 19.4914V31.6514C74.8832 31.6805 72.9519 31.695 71.0636 31.6659C69.1896 31.6223 67.5874 31.6223 66.2856 31.6223ZM67.1868 23.3023C66.5288 23.3023 66.0567 23.4332 65.7706 23.695C65.4844 23.9568 65.3557 24.2477 65.3843 24.5823C65.4129 24.9168 65.5703 25.2223 65.885 25.4696C66.1854 25.7314 66.6146 25.8623 67.1439 25.8623C67.6589 25.8623 68.131 25.8768 68.5888 25.8914C69.0322 25.9059 69.4042 25.8768 69.7475 25.8041C70.0765 25.7314 70.334 25.5859 70.52 25.3532C70.706 25.1205 70.7918 24.7568 70.7918 24.2623V23.3023H67.1868Z" fill="#838383"/>
<path d="M104.71 7.03928V5.68655C104.71 4.98837 104.61 4.47928 104.395 4.14473C104.18 3.81018 103.894 3.60655 103.522 3.50473C103.15 3.40291 102.707 3.35928 102.221 3.37382C101.72 3.38837 101.176 3.40291 100.59 3.40291C99.9746 3.40291 99.5025 3.592 99.1591 3.95564C98.8158 4.31928 98.6298 4.74109 98.6012 5.22109C98.5726 5.68655 98.7157 6.10837 99.0447 6.48655C99.3737 6.85018 99.903 7.03928 100.647 7.03928H104.71Z" fill="#838383"/>
<path d="M83.8955 9.00391L86.1987 24.3494C86.5134 24.9312 86.8567 25.193 87.2287 25.1348C87.6006 25.0766 87.8724 24.8148 88.0441 24.3494L90.3473 9.01845H97.5C96.6703 12.6548 95.9121 15.913 95.2255 18.8221C94.9394 20.073 94.6532 21.2948 94.3671 22.5021C94.081 23.7094 93.8092 24.8003 93.5517 25.7894C93.2942 26.7785 93.0796 27.593 92.908 28.2476C92.7363 28.9021 92.6075 29.2803 92.5217 29.3966C91.9495 30.2694 91.1627 30.9239 90.1613 31.3603C89.1599 31.7966 88.1299 32.0148 87.057 32.0003C85.9841 31.9857 84.9684 31.753 84.0242 31.3021C83.0657 30.8512 82.3362 30.2112 81.8212 29.3676C81.7353 29.2221 81.6066 28.8148 81.4063 28.1457C81.2203 27.4766 81.0057 26.6476 80.7482 25.6585C80.4907 24.6694 80.2189 23.5639 79.9328 22.3712C79.6467 21.1639 79.3606 19.9566 79.0745 18.7348C78.3878 15.8548 77.6582 12.6257 76.8857 9.01845H83.8955V9.00391Z" fill="#838383"/>
<path d="M104.81 20.7265C104.839 21.5701 104.91 22.2538 105.025 22.7774C105.139 23.301 105.268 23.7228 105.44 24.0283C105.597 24.3337 105.783 24.5665 106.012 24.7265C106.241 24.8865 106.513 25.0174 106.827 25.1483V31.6356C105.311 31.6356 104.381 31.4756 103.537 31.1556C102.679 30.8356 101.892 30.2392 101.177 29.3665C100.461 28.4937 99.8749 27.2865 99.4171 25.7592C98.9594 24.2174 98.7305 22.2247 98.7305 19.7956V8.98828H104.81V20.7265Z" fill="#838383"/>
<path d="M115.439 31.6221H109.059V9.00391H118.686C119.516 9.00391 120.389 9.12027 121.304 9.353C122.22 9.58572 123.064 10.0512 123.822 10.7639C124.594 11.4766 125.238 12.4948 125.753 13.8185C126.268 15.1421 126.526 16.8876 126.526 19.0694V31.6076H120.446V19.4185C120.417 18.6039 120.331 17.9348 120.188 17.4112C120.045 16.8876 119.845 16.4803 119.602 16.1894C119.359 15.8985 119.072 15.7094 118.729 15.6076C118.386 15.5057 118 15.4476 117.57 15.4476H115.425V31.6221H115.439Z" fill="#838383"/>
<path d="M134.623 31.6223C132.334 31.4477 130.617 30.7641 129.459 29.5568C128.3 28.3496 127.728 26.7496 127.728 24.7423C127.728 23.3459 127.999 22.2259 128.557 21.3677C129.115 20.5096 129.788 19.8405 130.589 19.3459C131.39 18.8514 132.234 18.5168 133.121 18.3423C134.008 18.1677 134.78 18.0805 135.438 18.0805H139.115C139.115 17.7023 139.086 17.3532 139.043 17.0187C139 16.6841 138.843 16.4077 138.571 16.1896C138.299 15.9714 137.87 15.7968 137.312 15.6659C136.74 15.535 135.925 15.4768 134.866 15.4768H129.129V9.0332H134.523C136.64 9.0332 138.385 9.26593 139.759 9.71684C141.132 10.1677 142.219 10.8223 143.034 11.695C143.85 12.5677 144.422 13.6587 144.751 14.9677C145.08 16.2768 145.238 17.7896 145.238 19.4914V31.6514C143.235 31.6805 141.289 31.695 139.415 31.6659C137.541 31.6223 135.939 31.6223 134.623 31.6223ZM135.524 23.3023C134.866 23.3023 134.394 23.4332 134.108 23.695C133.822 23.9568 133.693 24.2477 133.722 24.5823C133.75 24.9168 133.908 25.2223 134.208 25.4696C134.508 25.7314 134.938 25.8623 135.481 25.8623C135.996 25.8623 136.468 25.8768 136.912 25.8914C137.355 25.9059 137.741 25.8768 138.07 25.8041C138.399 25.7314 138.657 25.5859 138.843 25.3532C139.029 25.1205 139.129 24.7568 139.129 24.2623V23.3023H135.524Z" fill="#838383"/>
<path d="M145.609 9.48398C145.767 9.44034 145.996 9.42578 146.196 9.42578C146.525 9.42578 146.74 9.48398 146.897 9.62943C147.011 9.73125 147.083 9.90578 147.083 10.0949C147.083 10.4149 146.883 10.6185 146.639 10.7058V10.7203C146.811 10.7931 146.925 10.9531 146.983 11.2149C147.054 11.5494 147.126 11.7822 147.169 11.884H146.854C146.811 11.8113 146.754 11.6076 146.697 11.3022C146.625 10.9676 146.496 10.8367 146.225 10.8367H145.938V11.884H145.638V9.48398H145.609ZM145.91 10.5749H146.225C146.554 10.5749 146.754 10.3858 146.754 10.1094C146.754 9.80396 146.525 9.65851 146.21 9.65851C146.067 9.65851 145.967 9.67305 145.91 9.6876V10.5749Z" fill="#838383"/>
<path d="M52.9951 20.261C53.0809 21.9482 53.3814 23.1119 53.9107 23.7373C54.44 24.3773 55.1553 24.6973 56.0708 24.6973H58.5886V31.141H54.8691C54.0394 31.141 53.1382 30.981 52.1654 30.69C51.1926 30.3846 50.2914 29.8173 49.4473 28.9882C48.6033 28.1591 47.9166 27.0246 47.373 25.57C46.8294 24.1155 46.5576 22.2246 46.5576 19.8973V0.0136719H52.9379L52.9951 20.261Z" fill="white"/>
<path d="M66.7433 31.1555C64.4544 30.981 62.7377 30.2973 61.5933 29.0901C60.4345 27.8828 59.8623 26.2828 59.8623 24.2755C59.8623 22.8791 60.1341 21.7591 60.692 20.901C61.2499 20.0428 61.9223 19.3737 62.7234 18.8791C63.5245 18.3846 64.3542 18.0501 65.2555 17.8755C66.1424 17.701 66.9149 17.6137 67.573 17.6137H71.2638C71.2638 17.2355 71.2495 16.8864 71.1923 16.5519C71.1494 16.2173 70.992 15.941 70.7202 15.7228C70.4484 15.5046 70.0192 15.3301 69.4613 15.1991C68.8891 15.0682 68.0737 15.0101 67.0151 15.0101H61.2786V8.56641H66.6717C68.789 8.56641 70.5342 8.79913 71.8933 9.2355C73.2666 9.68641 74.3538 10.341 75.1692 11.2137C75.9847 12.0864 76.5569 13.1773 76.8859 14.4864C77.2149 15.7955 77.3866 17.3082 77.3866 19.0101V31.1555C75.3838 31.1846 73.4526 31.1846 71.5499 31.1846C69.6473 31.1555 68.0451 31.1555 66.7433 31.1555ZM67.6445 22.8355C66.9865 22.8355 66.5144 22.9664 66.2283 23.2282C65.9422 23.4901 65.8134 23.781 65.842 24.1155C65.8706 24.4501 66.028 24.741 66.3427 25.0028C66.6431 25.2646 67.058 25.3955 67.6016 25.3955C68.1166 25.3955 68.5887 25.4101 69.0465 25.4246C69.4899 25.4391 69.8762 25.4101 70.2052 25.3373C70.5342 25.2646 70.7917 25.1046 70.9777 24.8864C71.1637 24.6537 71.2495 24.2901 71.2495 23.7955V22.8355H67.6445Z" fill="white"/>
<path d="M105.168 6.57443V5.22169C105.168 4.52351 105.068 4.01442 104.853 3.67987C104.638 3.34533 104.352 3.14169 103.98 3.03987C103.608 2.93805 103.165 2.89443 102.664 2.90898C102.164 2.92352 101.62 2.93807 101.048 2.93807C100.433 2.93807 99.9462 3.12716 99.6171 3.4908C99.2738 3.85443 99.0878 4.27625 99.0592 4.75625C99.0306 5.23625 99.1737 5.65805 99.5027 6.02169C99.8174 6.38533 100.361 6.57443 101.105 6.57443H105.168Z" fill="white"/>
<path d="M84.3385 8.55273L86.656 23.8837C86.9708 24.4655 87.3141 24.7273 87.686 24.6691C88.058 24.6109 88.3298 24.3491 88.5015 23.8837L90.8189 8.55273H97.9717C97.142 12.1891 96.3838 15.4473 95.6971 18.3564C95.411 19.6073 95.1249 20.8291 94.8388 22.0364C94.5527 23.2437 94.2809 24.3346 94.0234 25.3237C93.7659 26.3128 93.5513 27.1273 93.3796 27.7818C93.208 28.4364 93.0792 28.8146 92.9934 28.9455C92.4212 29.8182 91.6344 30.4728 90.633 30.9091C89.6316 31.3455 88.6016 31.5637 87.5287 31.5346C86.4558 31.52 85.4401 31.2873 84.4816 30.8364C83.5231 30.3855 82.7935 29.7455 82.2785 28.9018C82.1927 28.7564 82.064 28.3491 81.878 27.68C81.692 27.0109 81.4774 26.1818 81.2199 25.1928C80.9624 24.2037 80.6906 23.1128 80.4045 21.9055C80.1184 20.6982 79.8323 19.4909 79.5462 18.2691C78.8595 15.3891 78.1299 12.16 77.3574 8.55273H84.3385Z" fill="white"/>
<path d="M105.268 20.2623C105.296 21.1059 105.368 21.7896 105.482 22.3132C105.597 22.8368 105.725 23.2441 105.883 23.5496C106.04 23.855 106.226 24.0878 106.455 24.2478C106.684 24.4078 106.956 24.5387 107.27 24.655V31.1423C105.754 31.1423 104.824 30.9823 103.966 30.6623C103.108 30.3423 102.321 29.7459 101.605 28.8732C100.89 28.0005 100.304 26.7932 99.8458 25.2514C99.3881 23.7096 99.1592 21.7168 99.1592 19.2878V8.48047H105.239V20.2623H105.268Z" fill="white"/>
<path d="M115.882 31.1564H109.502V8.55273H119.13C119.959 8.55273 120.832 8.66911 121.748 8.90184C122.663 9.13457 123.507 9.61455 124.28 10.3127C125.052 11.0255 125.696 12.0437 126.211 13.3673C126.726 14.6909 126.983 16.4364 126.983 18.6182V31.1564H120.903V18.9673C120.875 18.1527 120.789 17.4837 120.646 16.96C120.503 16.4364 120.317 16.0291 120.074 15.7382C119.831 15.4473 119.544 15.2437 119.201 15.1564C118.858 15.0546 118.472 14.9964 118.042 14.9964H115.897V31.1564H115.882Z" fill="white"/>
<path d="M135.081 31.1555C132.792 30.981 131.075 30.2973 129.917 29.0901C128.758 27.8828 128.186 26.2828 128.186 24.2755C128.186 22.8791 128.457 21.7591 129.015 20.901C129.573 20.0428 130.246 19.3737 131.047 18.8791C131.848 18.3846 132.692 18.0501 133.579 17.8755C134.466 17.701 135.238 17.6137 135.896 17.6137H139.573C139.573 17.2355 139.558 16.8864 139.501 16.5519C139.458 16.2173 139.301 15.941 139.029 15.7228C138.757 15.5046 138.342 15.3301 137.77 15.1991C137.198 15.0682 136.383 15.0101 135.324 15.0101H129.587V8.56641H134.981C137.098 8.56641 138.829 8.79913 140.202 9.2355C141.576 9.68641 142.663 10.341 143.478 11.2137C144.294 12.0864 144.866 13.1773 145.195 14.4864C145.524 15.7955 145.681 17.3082 145.681 19.0101V31.1555C143.678 31.1846 141.747 31.1846 139.859 31.1846C137.985 31.1555 136.383 31.1555 135.081 31.1555ZM135.982 22.8355C135.324 22.8355 134.852 22.9664 134.566 23.2282C134.28 23.4901 134.151 23.781 134.18 24.1155C134.208 24.4501 134.366 24.741 134.666 25.0028C134.966 25.2646 135.396 25.3955 135.925 25.3955C136.44 25.3955 136.912 25.4101 137.355 25.4246C137.799 25.4391 138.185 25.4101 138.514 25.3373C138.843 25.2646 139.101 25.1046 139.287 24.8864C139.473 24.6537 139.573 24.2901 139.573 23.7955V22.8355H135.982Z" fill="white"/>
<path d="M146.053 9.01912C146.21 8.99003 146.439 8.96094 146.639 8.96094C146.968 8.96094 147.183 9.03366 147.34 9.16457C147.455 9.26639 147.526 9.42639 147.526 9.61548C147.526 9.93548 147.326 10.1391 147.083 10.2264V10.2409C147.254 10.2991 147.369 10.4737 147.44 10.7355C147.512 11.07 147.569 11.3028 147.612 11.4046H147.297C147.254 11.3318 147.197 11.1282 147.14 10.8228C147.068 10.4882 146.94 10.3573 146.654 10.3573H146.367V11.4046H146.053V9.01912ZM146.367 10.11H146.682C147.011 10.11 147.226 9.92094 147.226 9.64457C147.226 9.32457 146.997 9.19367 146.682 9.19367C146.525 9.19367 146.425 9.20821 146.382 9.22276V10.11H146.367Z" fill="white"/>
<path d="M146.711 12.3925C145.524 12.3925 144.551 11.4034 144.551 10.1816C144.551 8.95979 145.524 7.9707 146.711 7.9707C147.913 7.9707 148.885 8.95979 148.885 10.1816C148.885 11.3889 147.913 12.3925 146.711 12.3925ZM146.711 8.27616C145.681 8.27616 144.837 9.13434 144.837 10.1816C144.837 11.2289 145.681 12.0871 146.711 12.0871C147.755 12.0871 148.585 11.2289 148.585 10.1816C148.599 9.11979 147.755 8.27616 146.711 8.27616Z" fill="white"/>
</g>
<defs>
<clipPath id="clip0_4972_5972">
<rect width="103" height="32" fill="white" transform="translate(46)"/>
</clipPath>
</defs>
</svg>
