<svg width="39" height="28" viewBox="0 0 39 28" fill="none" xmlns="http://www.w3.org/2000/svg">
<mask id="path-1-inside-1_4975_6040" fill="white">
<path d="M19.9786 3.21428C20.4687 3.47248 20.9033 4.09648 21.0327 4.75274C21.1344 5.23688 21.1252 5.31219 20.894 5.87163C20.6166 6.5279 20.6536 6.66776 21.1159 6.66776C21.4673 6.66776 22.6971 7.0981 23.1872 7.38858C23.7697 7.72209 24.38 8.38912 24.7961 9.10994C25.129 9.70165 25.4064 9.95986 25.5635 9.84152C25.619 9.79848 25.7392 9.80924 25.8409 9.84152C25.9796 9.89531 26.0259 10.0029 26.0259 10.2719C26.0259 10.4655 25.9704 10.6484 25.9149 10.6699C25.8502 10.6914 23.9269 10.7022 21.6337 10.6914C19.3498 10.6807 16.4186 10.6592 15.1426 10.6592L12.8032 10.6484L12.646 10.3687C12.4981 10.0997 12.4981 10.0782 12.6645 9.93834C12.757 9.85227 13.0066 9.78772 13.2101 9.78772C13.5707 9.78772 13.6077 9.75545 13.8666 9.23904C14.5138 7.95878 15.8176 7.00127 17.3526 6.68928L18.2402 6.50638L17.9721 5.92542C17.556 5.02171 17.6484 4.27937 18.268 3.56931C18.7673 3.00987 19.3498 2.88077 19.9786 3.21428ZM31.3704 10.3687C33.1088 11.3907 33.5526 14.2848 32.3136 16.5118C31.6756 17.6414 30.8711 18.2654 29.142 18.9325C28.1711 19.2983 27.6995 19.6748 27.5053 20.2235C27.4406 20.3956 27.4221 20.6215 27.4499 20.7184C27.5053 20.8798 27.5238 20.8798 27.7457 20.7076C28.0694 20.4602 28.2451 20.5678 28.2451 21.0089C28.2451 21.2563 28.1711 21.45 27.9862 21.6544C27.6625 22.0202 27.4129 22.0202 27.0523 21.6651C26.8118 21.4284 26.7656 21.3101 26.7656 20.8905C26.7656 19.7501 27.5331 18.7711 28.9108 18.1256C30.0851 17.5877 30.8064 17.1035 31.2595 16.5441C31.7218 15.9954 31.879 15.6404 32.0732 14.7689C32.4523 13.0798 32.0362 11.692 30.9821 11.1218C30.0204 10.6054 29.2807 10.8313 28.4392 11.9287L27.8844 12.6602L27.9399 14.2633C27.9862 15.6942 27.9677 15.9524 27.792 16.727C27.5793 17.6092 26.9228 19.1584 26.3125 20.2127C25.9427 20.8475 25.5636 21.2671 24.4725 22.2999C24.1026 22.6441 23.8067 22.9777 23.8067 23.0422C23.8067 23.1283 24.7961 23.1498 27.2094 23.1175L30.603 23.0745L30.6307 23.3434C30.6769 23.8814 29.3547 25.3338 28.1803 26.0116C27.866 26.2052 27.5886 26.3989 27.5516 26.4634C27.5146 26.5387 24.8423 26.571 19.4978 26.571H11.5087L10.6488 26.0116C10.1864 25.7103 9.62238 25.3445 9.40971 25.2047C8.7717 24.7958 7.93025 23.8168 7.88402 23.451L7.83779 23.1283H11.4255C13.395 23.1283 15.0317 23.0852 15.0594 23.0422C15.1334 22.8916 15.0039 22.7625 14.0515 22.0417C13.2471 21.4392 13.0806 21.3424 12.8957 21.4284C12.5998 21.5575 11.6844 21.45 10.6765 21.181C8.90115 20.6969 7.61587 19.3305 7.20902 17.4693C7.13504 17.125 7.03333 16.2106 6.97785 15.4467C6.93162 14.6828 6.83915 13.876 6.79292 13.6608C6.68196 13.1767 6.33059 12.6387 5.7573 12.09C5.19326 11.5414 5.14702 11.3692 5.46141 10.8958L5.71107 10.5193L6.51552 10.5623C7.17203 10.5946 7.39395 10.6592 7.73607 10.8851C8.38334 11.3369 8.7717 11.9179 9.09533 12.9184C9.25252 13.4133 9.61314 14.3493 9.89054 15.0056C10.1679 15.6511 10.3991 16.2751 10.3991 16.3827C10.3991 16.5548 10.3806 16.5548 10.0477 16.3612C9.46519 16.0169 9.16005 15.4467 8.40183 13.2842C8.00423 12.1546 7.45868 11.5306 6.72819 11.3692C6.3121 11.2724 6.33984 11.423 6.8484 12.1869C7.41244 13.0153 7.59738 13.607 7.67135 14.8442C7.81929 17.3079 8.02272 18.0933 8.78094 19.1154C9.308 19.8254 10.3991 20.4064 11.5272 20.5678C12.0265 20.6431 12.4518 20.6646 12.4888 20.6215C12.5258 20.5893 12.4518 20.3956 12.3224 20.202C11.8693 19.4919 11.4255 18.4914 11.0926 17.4155C10.7875 16.4257 10.7505 16.2106 10.7597 15.3391C10.769 14.0373 10.8337 13.5747 11.1203 12.4236L11.3607 11.4553L19.3128 11.4876L27.2742 11.5091L27.4776 11.778L27.6718 12.0363L27.7642 11.7243C27.8937 11.2939 28.5502 10.4978 28.9478 10.2719C29.6968 9.86303 30.566 9.89531 31.3704 10.3687ZM9.62238 18.4698C9.40971 18.7173 8.73471 17.3402 8.74396 16.6839C8.74396 16.3289 8.78094 16.3719 9.20629 17.3617C9.46519 17.9427 9.65012 18.4376 9.62238 18.4698Z"/>
</mask>
<path d="M19.9786 3.21428C20.4687 3.47248 20.9033 4.09648 21.0327 4.75274C21.1344 5.23688 21.1252 5.31219 20.894 5.87163C20.6166 6.5279 20.6536 6.66776 21.1159 6.66776C21.4673 6.66776 22.6971 7.0981 23.1872 7.38858C23.7697 7.72209 24.38 8.38912 24.7961 9.10994C25.129 9.70165 25.4064 9.95986 25.5635 9.84152C25.619 9.79848 25.7392 9.80924 25.8409 9.84152C25.9796 9.89531 26.0259 10.0029 26.0259 10.2719C26.0259 10.4655 25.9704 10.6484 25.9149 10.6699C25.8502 10.6914 23.9269 10.7022 21.6337 10.6914C19.3498 10.6807 16.4186 10.6592 15.1426 10.6592L12.8032 10.6484L12.646 10.3687C12.4981 10.0997 12.4981 10.0782 12.6645 9.93834C12.757 9.85227 13.0066 9.78772 13.2101 9.78772C13.5707 9.78772 13.6077 9.75545 13.8666 9.23904C14.5138 7.95878 15.8176 7.00127 17.3526 6.68928L18.2402 6.50638L17.9721 5.92542C17.556 5.02171 17.6484 4.27937 18.268 3.56931C18.7673 3.00987 19.3498 2.88077 19.9786 3.21428ZM31.3704 10.3687C33.1088 11.3907 33.5526 14.2848 32.3136 16.5118C31.6756 17.6414 30.8711 18.2654 29.142 18.9325C28.1711 19.2983 27.6995 19.6748 27.5053 20.2235C27.4406 20.3956 27.4221 20.6215 27.4499 20.7184C27.5053 20.8798 27.5238 20.8798 27.7457 20.7076C28.0694 20.4602 28.2451 20.5678 28.2451 21.0089C28.2451 21.2563 28.1711 21.45 27.9862 21.6544C27.6625 22.0202 27.4129 22.0202 27.0523 21.6651C26.8118 21.4284 26.7656 21.3101 26.7656 20.8905C26.7656 19.7501 27.5331 18.7711 28.9108 18.1256C30.0851 17.5877 30.8064 17.1035 31.2595 16.5441C31.7218 15.9954 31.879 15.6404 32.0732 14.7689C32.4523 13.0798 32.0362 11.692 30.9821 11.1218C30.0204 10.6054 29.2807 10.8313 28.4392 11.9287L27.8844 12.6602L27.9399 14.2633C27.9862 15.6942 27.9677 15.9524 27.792 16.727C27.5793 17.6092 26.9228 19.1584 26.3125 20.2127C25.9427 20.8475 25.5636 21.2671 24.4725 22.2999C24.1026 22.6441 23.8067 22.9777 23.8067 23.0422C23.8067 23.1283 24.7961 23.1498 27.2094 23.1175L30.603 23.0745L30.6307 23.3434C30.6769 23.8814 29.3547 25.3338 28.1803 26.0116C27.866 26.2052 27.5886 26.3989 27.5516 26.4634C27.5146 26.5387 24.8423 26.571 19.4978 26.571H11.5087L10.6488 26.0116C10.1864 25.7103 9.62238 25.3445 9.40971 25.2047C8.7717 24.7958 7.93025 23.8168 7.88402 23.451L7.83779 23.1283H11.4255C13.395 23.1283 15.0317 23.0852 15.0594 23.0422C15.1334 22.8916 15.0039 22.7625 14.0515 22.0417C13.2471 21.4392 13.0806 21.3424 12.8957 21.4284C12.5998 21.5575 11.6844 21.45 10.6765 21.181C8.90115 20.6969 7.61587 19.3305 7.20902 17.4693C7.13504 17.125 7.03333 16.2106 6.97785 15.4467C6.93162 14.6828 6.83915 13.876 6.79292 13.6608C6.68196 13.1767 6.33059 12.6387 5.7573 12.09C5.19326 11.5414 5.14702 11.3692 5.46141 10.8958L5.71107 10.5193L6.51552 10.5623C7.17203 10.5946 7.39395 10.6592 7.73607 10.8851C8.38334 11.3369 8.7717 11.9179 9.09533 12.9184C9.25252 13.4133 9.61314 14.3493 9.89054 15.0056C10.1679 15.6511 10.3991 16.2751 10.3991 16.3827C10.3991 16.5548 10.3806 16.5548 10.0477 16.3612C9.46519 16.0169 9.16005 15.4467 8.40183 13.2842C8.00423 12.1546 7.45868 11.5306 6.72819 11.3692C6.3121 11.2724 6.33984 11.423 6.8484 12.1869C7.41244 13.0153 7.59738 13.607 7.67135 14.8442C7.81929 17.3079 8.02272 18.0933 8.78094 19.1154C9.308 19.8254 10.3991 20.4064 11.5272 20.5678C12.0265 20.6431 12.4518 20.6646 12.4888 20.6215C12.5258 20.5893 12.4518 20.3956 12.3224 20.202C11.8693 19.4919 11.4255 18.4914 11.0926 17.4155C10.7875 16.4257 10.7505 16.2106 10.7597 15.3391C10.769 14.0373 10.8337 13.5747 11.1203 12.4236L11.3607 11.4553L19.3128 11.4876L27.2742 11.5091L27.4776 11.778L27.6718 12.0363L27.7642 11.7243C27.8937 11.2939 28.5502 10.4978 28.9478 10.2719C29.6968 9.86303 30.566 9.89531 31.3704 10.3687ZM9.62238 18.4698C9.40971 18.7173 8.73471 17.3402 8.74396 16.6839C8.74396 16.3289 8.78094 16.3719 9.20629 17.3617C9.46519 17.9427 9.65012 18.4376 9.62238 18.4698Z" fill="#0A0A0A" stroke="#0A0A0A" stroke-width="2" mask="url(#path-1-inside-1_4975_6040)"/>
</svg>
