<svg width="150" height="33" viewBox="0 0 150 33" fill="none" xmlns="http://www.w3.org/2000/svg">
<g clip-path="url(#clip0_4981_6199)">
<path d="M53.5381 21.7278C53.6239 23.415 53.9386 24.5787 54.4536 25.2187C54.9829 25.8587 55.6982 26.1787 56.6138 26.1787H59.1316V32.6223H55.4121C54.5824 32.6223 53.6811 32.4768 52.7084 32.1568C51.7356 31.8514 50.8343 31.2841 49.9903 30.455C49.1463 29.6259 48.4596 28.4914 47.916 27.0368C47.3724 25.5823 47.1006 23.6914 47.1006 21.3787V1.48047H53.4809L53.5381 21.7278Z" fill="#838383"/>
<path d="M67.2856 32.6223C64.9967 32.4477 63.28 31.7641 62.1213 30.5568C60.9625 29.3496 60.376 27.7496 60.376 25.7423C60.376 24.3459 60.6621 23.2259 61.2057 22.3677C61.7636 21.5096 62.436 20.8405 63.2371 20.3459C64.0382 19.8514 64.8822 19.5168 65.7549 19.3423C66.6418 19.1677 67.4143 19.0805 68.0724 19.0805H71.7489C71.7489 18.7023 71.7346 18.3532 71.6917 18.0187C71.6488 17.6841 71.4914 17.4077 71.2196 17.1896C70.9478 16.9714 70.5186 16.7968 69.9607 16.6659C69.3885 16.535 68.5731 16.4768 67.5144 16.4768H61.7779V10.0332H67.1711C69.2883 10.0332 71.0336 10.2659 72.3926 10.7168C73.766 11.1677 74.8532 11.8223 75.6686 12.695C76.484 13.5677 77.0563 14.6587 77.3853 15.9677C77.7143 17.2768 77.886 18.7896 77.886 20.4914V32.6514C75.8832 32.6805 73.9519 32.695 72.0636 32.6659C70.1896 32.6223 68.5874 32.6223 67.2856 32.6223ZM68.1868 24.3023C67.5288 24.3023 67.0567 24.4332 66.7706 24.695C66.4844 24.9568 66.3557 25.2477 66.3843 25.5823C66.4129 25.9168 66.5703 26.2223 66.885 26.4696C67.1854 26.7314 67.6146 26.8623 68.1439 26.8623C68.6589 26.8623 69.131 26.8768 69.5888 26.8914C70.0322 26.9059 70.4042 26.8768 70.7475 26.8041C71.0765 26.7314 71.334 26.5859 71.52 26.3532C71.706 26.1205 71.7918 25.7568 71.7918 25.2623V24.3023H68.1868Z" fill="#838383"/>
<path d="M105.71 8.03928V6.68655C105.71 5.98837 105.61 5.47928 105.395 5.14473C105.18 4.81018 104.894 4.60655 104.522 4.50473C104.15 4.40291 103.707 4.35928 103.221 4.37382C102.72 4.38837 102.176 4.40291 101.59 4.40291C100.975 4.40291 100.502 4.592 100.159 4.95564C99.8158 5.31928 99.6298 5.74109 99.6012 6.22109C99.5726 6.68655 99.7157 7.10837 100.045 7.48655C100.374 7.85018 100.903 8.03928 101.647 8.03928H105.71Z" fill="#838383"/>
<path d="M84.8955 10.0039L87.1987 25.3494C87.5134 25.9312 87.8567 26.193 88.2287 26.1348C88.6006 26.0766 88.8724 25.8148 89.0441 25.3494L91.3473 10.0185H98.5C97.6703 13.6548 96.9121 16.913 96.2255 19.8221C95.9394 21.073 95.6532 22.2948 95.3671 23.5021C95.081 24.7094 94.8092 25.8003 94.5517 26.7894C94.2942 27.7785 94.0796 28.593 93.908 29.2476C93.7363 29.9021 93.6075 30.2803 93.5217 30.3966C92.9495 31.2694 92.1627 31.9239 91.1613 32.3603C90.1599 32.7966 89.1299 33.0148 88.057 33.0003C86.9841 32.9857 85.9684 32.753 85.0242 32.3021C84.0657 31.8512 83.3362 31.2112 82.8212 30.3676C82.7353 30.2221 82.6066 29.8148 82.4063 29.1457C82.2203 28.4766 82.0057 27.6476 81.7482 26.6585C81.4907 25.6694 81.2189 24.5639 80.9328 23.3712C80.6467 22.1639 80.3606 20.9566 80.0745 19.7348C79.3878 16.8548 78.6582 13.6257 77.8857 10.0185H84.8955V10.0039Z" fill="#838383"/>
<path d="M105.81 21.7265C105.839 22.5701 105.91 23.2538 106.025 23.7774C106.139 24.301 106.268 24.7228 106.44 25.0283C106.597 25.3337 106.783 25.5665 107.012 25.7265C107.241 25.8865 107.513 26.0174 107.827 26.1483V32.6356C106.311 32.6356 105.381 32.4756 104.537 32.1556C103.679 31.8356 102.892 31.2392 102.177 30.3665C101.461 29.4937 100.875 28.2865 100.417 26.7592C99.9594 25.2174 99.7305 23.2247 99.7305 20.7956V9.98828H105.81V21.7265Z" fill="#838383"/>
<path d="M116.439 32.6221H110.059V10.0039H119.686C120.516 10.0039 121.389 10.1203 122.304 10.353C123.22 10.5857 124.064 11.0512 124.822 11.7639C125.594 12.4766 126.238 13.4948 126.753 14.8185C127.268 16.1421 127.526 17.8876 127.526 20.0694V32.6076H121.446V20.4185C121.417 19.6039 121.331 18.9348 121.188 18.4112C121.045 17.8876 120.845 17.4803 120.602 17.1894C120.359 16.8985 120.072 16.7094 119.729 16.6076C119.386 16.5057 119 16.4476 118.57 16.4476H116.425V32.6221H116.439Z" fill="#838383"/>
<path d="M135.623 32.6223C133.334 32.4477 131.617 31.7641 130.459 30.5568C129.3 29.3496 128.728 27.7496 128.728 25.7423C128.728 24.3459 128.999 23.2259 129.557 22.3677C130.115 21.5096 130.788 20.8405 131.589 20.3459C132.39 19.8514 133.234 19.5168 134.121 19.3423C135.008 19.1677 135.78 19.0805 136.438 19.0805H140.115C140.115 18.7023 140.086 18.3532 140.043 18.0187C140 17.6841 139.843 17.4077 139.571 17.1896C139.299 16.9714 138.87 16.7968 138.312 16.6659C137.74 16.535 136.925 16.4768 135.866 16.4768H130.129V10.0332H135.523C137.64 10.0332 139.385 10.2659 140.759 10.7168C142.132 11.1677 143.219 11.8223 144.034 12.695C144.85 13.5677 145.422 14.6587 145.751 15.9677C146.08 17.2768 146.238 18.7896 146.238 20.4914V32.6514C144.235 32.6805 142.289 32.695 140.415 32.6659C138.541 32.6223 136.939 32.6223 135.623 32.6223ZM136.524 24.3023C135.866 24.3023 135.394 24.4332 135.108 24.695C134.822 24.9568 134.693 25.2477 134.722 25.5823C134.75 25.9168 134.908 26.2223 135.208 26.4696C135.508 26.7314 135.938 26.8623 136.481 26.8623C136.996 26.8623 137.468 26.8768 137.912 26.8914C138.355 26.9059 138.741 26.8768 139.07 26.8041C139.399 26.7314 139.657 26.5859 139.843 26.3532C140.029 26.1205 140.129 25.7568 140.129 25.2623V24.3023H136.524Z" fill="#838383"/>
<path d="M53.9951 21.261C54.0809 22.9482 54.3814 24.1119 54.9107 24.7373C55.44 25.3773 56.1553 25.6973 57.0708 25.6973H59.5886V32.141H55.8691C55.0394 32.141 54.1382 31.981 53.1654 31.69C52.1926 31.3846 51.2914 30.8173 50.4473 29.9882C49.6033 29.1591 48.9166 28.0246 48.373 26.57C47.8294 25.1155 47.5576 23.2246 47.5576 20.8973V1.01367H53.9379L53.9951 21.261Z" fill="#0A0A0A"/>
<path d="M67.7433 32.1555C65.4544 31.981 63.7377 31.2973 62.5933 30.0901C61.4345 28.8828 60.8623 27.2828 60.8623 25.2755C60.8623 23.8791 61.1341 22.7591 61.692 21.901C62.2499 21.0428 62.9223 20.3737 63.7234 19.8791C64.5245 19.3846 65.3542 19.0501 66.2555 18.8755C67.1424 18.701 67.9149 18.6137 68.573 18.6137H72.2638C72.2638 18.2355 72.2495 17.8864 72.1923 17.5519C72.1494 17.2173 71.992 16.941 71.7202 16.7228C71.4484 16.5046 71.0192 16.3301 70.4613 16.1991C69.8891 16.0682 69.0737 16.0101 68.0151 16.0101H62.2786V9.56641H67.6717C69.789 9.56641 71.5342 9.79913 72.8933 10.2355C74.2666 10.6864 75.3538 11.341 76.1692 12.2137C76.9847 13.0864 77.5569 14.1773 77.8859 15.4864C78.2149 16.7955 78.3866 18.3082 78.3866 20.0101V32.1555C76.3838 32.1846 74.4526 32.1846 72.5499 32.1846C70.6473 32.1555 69.0451 32.1555 67.7433 32.1555ZM68.6445 23.8355C67.9865 23.8355 67.5144 23.9664 67.2283 24.2282C66.9422 24.4901 66.8134 24.781 66.842 25.1155C66.8706 25.4501 67.028 25.741 67.3427 26.0028C67.6431 26.2646 68.058 26.3955 68.6016 26.3955C69.1166 26.3955 69.5887 26.4101 70.0465 26.4246C70.4899 26.4391 70.8762 26.4101 71.2052 26.3373C71.5342 26.2646 71.7917 26.1046 71.9777 25.8864C72.1637 25.6537 72.2495 25.2901 72.2495 24.7955V23.8355H68.6445Z" fill="#0A0A0A"/>
<path d="M106.168 7.57443V6.22169C106.168 5.52351 106.068 5.01442 105.853 4.67987C105.638 4.34533 105.352 4.14169 104.98 4.03987C104.608 3.93805 104.165 3.89443 103.664 3.90898C103.164 3.92352 102.62 3.93807 102.048 3.93807C101.433 3.93807 100.946 4.12716 100.617 4.4908C100.274 4.85443 100.088 5.27625 100.059 5.75625C100.031 6.23625 100.174 6.65805 100.503 7.02169C100.817 7.38533 101.361 7.57443 102.105 7.57443H106.168Z" fill="#0A0A0A"/>
<path d="M85.3385 9.55273L87.656 24.8837C87.9708 25.4655 88.3141 25.7273 88.686 25.6691C89.058 25.6109 89.3298 25.3491 89.5015 24.8837L91.8189 9.55273H98.9717C98.142 13.1891 97.3838 16.4473 96.6971 19.3564C96.411 20.6073 96.1249 21.8291 95.8388 23.0364C95.5527 24.2437 95.2809 25.3346 95.0234 26.3237C94.7659 27.3128 94.5513 28.1273 94.3796 28.7818C94.208 29.4364 94.0792 29.8146 93.9934 29.9455C93.4212 30.8182 92.6344 31.4728 91.633 31.9091C90.6316 32.3455 89.6016 32.5637 88.5287 32.5346C87.4558 32.52 86.4401 32.2873 85.4816 31.8364C84.5231 31.3855 83.7935 30.7455 83.2785 29.9018C83.1927 29.7564 83.064 29.3491 82.878 28.68C82.692 28.0109 82.4774 27.1818 82.2199 26.1928C81.9624 25.2037 81.6906 24.1128 81.4045 22.9055C81.1184 21.6982 80.8323 20.4909 80.5462 19.2691C79.8595 16.3891 79.1299 13.16 78.3574 9.55273H85.3385Z" fill="#0A0A0A"/>
<path d="M106.268 21.2623C106.296 22.1059 106.368 22.7896 106.482 23.3132C106.597 23.8368 106.725 24.2441 106.883 24.5496C107.04 24.855 107.226 25.0878 107.455 25.2478C107.684 25.4078 107.956 25.5387 108.27 25.655V32.1423C106.754 32.1423 105.824 31.9823 104.966 31.6623C104.108 31.3423 103.321 30.7459 102.605 29.8732C101.89 29.0005 101.304 27.7932 100.846 26.2514C100.388 24.7096 100.159 22.7168 100.159 20.2878V9.48047H106.239V21.2623H106.268Z" fill="#0A0A0A"/>
<path d="M116.882 32.1564H110.502V9.55273H120.13C120.959 9.55273 121.832 9.66911 122.748 9.90184C123.663 10.1346 124.507 10.6146 125.28 11.3127C126.052 12.0255 126.696 13.0437 127.211 14.3673C127.726 15.6909 127.983 17.4364 127.983 19.6182V32.1564H121.903V19.9673C121.875 19.1527 121.789 18.4837 121.646 17.96C121.503 17.4364 121.317 17.0291 121.074 16.7382C120.831 16.4473 120.544 16.2437 120.201 16.1564C119.858 16.0546 119.472 15.9964 119.042 15.9964H116.897V32.1564H116.882Z" fill="#0A0A0A"/>
<path d="M136.081 32.1555C133.792 31.981 132.075 31.2973 130.917 30.0901C129.758 28.8828 129.186 27.2828 129.186 25.2755C129.186 23.8791 129.457 22.7591 130.015 21.901C130.573 21.0428 131.246 20.3737 132.047 19.8791C132.848 19.3846 133.692 19.0501 134.579 18.8755C135.466 18.701 136.238 18.6137 136.896 18.6137H140.573C140.573 18.2355 140.558 17.8864 140.501 17.5519C140.458 17.2173 140.301 16.941 140.029 16.7228C139.757 16.5046 139.342 16.3301 138.77 16.1991C138.198 16.0682 137.383 16.0101 136.324 16.0101H130.587V9.56641H135.981C138.098 9.56641 139.829 9.79913 141.202 10.2355C142.576 10.6864 143.663 11.341 144.478 12.2137C145.294 13.0864 145.866 14.1773 146.195 15.4864C146.524 16.7955 146.681 18.3082 146.681 20.0101V32.1555C144.678 32.1846 142.747 32.1846 140.859 32.1846C138.985 32.1555 137.383 32.1555 136.081 32.1555ZM136.982 23.8355C136.324 23.8355 135.852 23.9664 135.566 24.2282C135.28 24.4901 135.151 24.781 135.18 25.1155C135.208 25.4501 135.366 25.741 135.666 26.0028C135.966 26.2646 136.396 26.3955 136.925 26.3955C137.44 26.3955 137.912 26.4101 138.355 26.4246C138.799 26.4391 139.185 26.4101 139.514 26.3373C139.843 26.2646 140.101 26.1046 140.287 25.8864C140.473 25.6537 140.573 25.2901 140.573 24.7955V23.8355H136.982Z" fill="#0A0A0A"/>
</g>
<mask id="path-15-inside-1_4981_6199" fill="white">
<path d="M23.5645 3.78826C24.1425 4.09257 24.6551 4.82799 24.8078 5.60145C24.9278 6.17203 24.9169 6.26079 24.6442 6.92013C24.317 7.69359 24.3607 7.85843 24.906 7.85843C25.3204 7.85843 26.7709 8.36561 27.349 8.70796C28.0361 9.10103 28.7559 9.88717 29.2467 10.7367C29.6393 11.4341 29.9665 11.7384 30.1519 11.5989C30.2173 11.5482 30.3591 11.5609 30.4791 11.5989C30.6427 11.6623 30.6972 11.7891 30.6972 12.1061C30.6972 12.3343 30.6318 12.5499 30.5663 12.5753C30.49 12.6006 28.2215 12.6133 25.5167 12.6006C22.8229 12.5879 19.3656 12.5626 17.8605 12.5626L15.1012 12.5499L14.9158 12.2202C14.7413 11.9032 14.7413 11.8779 14.9376 11.713C15.0467 11.6116 15.3412 11.5355 15.5811 11.5355C16.0065 11.5355 16.0501 11.4975 16.3555 10.8889C17.1189 9.37999 18.6567 8.2515 20.4671 7.88379L21.5141 7.66823L21.1978 6.98353C20.7071 5.91844 20.8161 5.04354 21.5468 4.20669C22.1358 3.54734 22.8229 3.39519 23.5645 3.78826ZM37.001 12.2202C39.0514 13.4248 39.5749 16.8356 38.1134 19.4603C37.3609 20.7917 36.4121 21.5271 34.3726 22.3133C33.2274 22.7444 32.6712 23.1882 32.4422 23.8348C32.3658 24.0377 32.344 24.304 32.3768 24.4181C32.4422 24.6083 32.464 24.6083 32.7258 24.4054C33.1075 24.1138 33.3147 24.2406 33.3147 24.7604C33.3147 25.0521 33.2274 25.2803 33.0093 25.5212C32.6276 25.9523 32.3331 25.9523 31.9078 25.5339C31.6242 25.2549 31.5697 25.1155 31.5697 24.621C31.5697 23.2769 32.4749 22.1231 34.0999 21.3623C35.485 20.7283 36.3357 20.1577 36.8701 19.4984C37.4154 18.8517 37.6009 18.4333 37.8299 17.4062C38.277 15.4155 37.7863 13.7798 36.5429 13.1078C35.4087 12.4992 34.5362 12.7655 33.5437 14.0588L32.8893 14.921L32.9548 16.8103C33.0093 18.4967 32.9875 18.801 32.7803 19.7139C32.5294 20.7537 31.7551 22.5795 31.0353 23.8221C30.599 24.5702 30.1519 25.0647 28.8649 26.282C28.4287 26.6877 28.0797 27.0808 28.0797 27.1569C28.0797 27.2583 29.2467 27.2837 32.0932 27.2456L36.0958 27.1949L36.1285 27.5119C36.183 28.1459 34.6234 29.8577 33.2383 30.6565C32.8675 30.8847 32.5403 31.1129 32.4967 31.189C32.4531 31.2778 29.3012 31.3158 22.9974 31.3158H13.5744L12.5601 30.6565C12.0148 30.3014 11.3495 29.8703 11.0986 29.7055C10.3461 29.2237 9.35363 28.0698 9.2991 27.6387L9.24457 27.2583H13.4762C15.7992 27.2583 17.7296 27.2076 17.7624 27.1569C17.8496 26.9794 17.6969 26.8272 16.5736 25.9777C15.6247 25.2676 15.4284 25.1535 15.2103 25.2549C14.8613 25.4071 13.7816 25.2803 12.5928 24.9633C10.4988 24.3927 8.98282 22.7824 8.50294 20.5888C8.41569 20.1831 8.29573 19.1053 8.23029 18.205C8.17576 17.3048 8.06669 16.3538 8.01216 16.1002C7.88129 15.5296 7.46685 14.8956 6.79066 14.249C6.12538 13.6023 6.07085 13.3994 6.44166 12.8415L6.73613 12.3977L7.68497 12.4485C8.45932 12.4865 8.72107 12.5626 9.1246 12.8289C9.88804 13.3614 10.3461 14.0461 10.7278 15.2253C10.9132 15.8086 11.3386 16.9117 11.6658 17.6852C11.9929 18.446 12.2656 19.1814 12.2656 19.3082C12.2656 19.5111 12.2438 19.5111 11.8512 19.2828C11.1641 18.8771 10.8042 18.205 9.90985 15.6564C9.44088 14.3251 8.79741 13.5896 7.93582 13.3994C7.44504 13.2853 7.47776 13.4628 8.0776 14.3631C8.74288 15.3394 8.96101 16.0368 9.04826 17.495C9.22276 20.3986 9.4627 21.3242 10.357 22.5288C10.9787 23.3657 12.2656 24.0504 13.5962 24.2406C14.1851 24.3293 14.6868 24.3547 14.7304 24.304C14.774 24.2659 14.6868 24.0377 14.5341 23.8095C13.9997 22.9726 13.4762 21.7934 13.0836 20.5254C12.7237 19.3589 12.68 19.1053 12.6909 18.0782C12.7019 16.544 12.7782 15.9988 13.1163 14.642L13.3999 13.5009L22.7792 13.5389L32.1695 13.5643L32.4095 13.8813L32.6385 14.1856L32.7476 13.8179C32.9003 13.3107 33.6746 12.3724 34.1436 12.1061C35.027 11.6243 36.0522 11.6623 37.001 12.2202ZM11.3495 21.768C11.0986 22.0597 10.3025 20.4367 10.3134 19.6632C10.3134 19.2448 10.357 19.2955 10.8587 20.462C11.1641 21.1467 11.3822 21.73 11.3495 21.768Z"/>
</mask>
<path d="M23.5645 3.78826C24.1425 4.09257 24.6551 4.82799 24.8078 5.60145C24.9278 6.17203 24.9169 6.26079 24.6442 6.92013C24.317 7.69359 24.3607 7.85843 24.906 7.85843C25.3204 7.85843 26.7709 8.36561 27.349 8.70796C28.0361 9.10103 28.7559 9.88717 29.2467 10.7367C29.6393 11.4341 29.9665 11.7384 30.1519 11.5989C30.2173 11.5482 30.3591 11.5609 30.4791 11.5989C30.6427 11.6623 30.6972 11.7891 30.6972 12.1061C30.6972 12.3343 30.6318 12.5499 30.5663 12.5753C30.49 12.6006 28.2215 12.6133 25.5167 12.6006C22.8229 12.5879 19.3656 12.5626 17.8605 12.5626L15.1012 12.5499L14.9158 12.2202C14.7413 11.9032 14.7413 11.8779 14.9376 11.713C15.0467 11.6116 15.3412 11.5355 15.5811 11.5355C16.0065 11.5355 16.0501 11.4975 16.3555 10.8889C17.1189 9.37999 18.6567 8.2515 20.4671 7.88379L21.5141 7.66823L21.1978 6.98353C20.7071 5.91844 20.8161 5.04354 21.5468 4.20669C22.1358 3.54734 22.8229 3.39519 23.5645 3.78826ZM37.001 12.2202C39.0514 13.4248 39.5749 16.8356 38.1134 19.4603C37.3609 20.7917 36.4121 21.5271 34.3726 22.3133C33.2274 22.7444 32.6712 23.1882 32.4422 23.8348C32.3658 24.0377 32.344 24.304 32.3768 24.4181C32.4422 24.6083 32.464 24.6083 32.7258 24.4054C33.1075 24.1138 33.3147 24.2406 33.3147 24.7604C33.3147 25.0521 33.2274 25.2803 33.0093 25.5212C32.6276 25.9523 32.3331 25.9523 31.9078 25.5339C31.6242 25.2549 31.5697 25.1155 31.5697 24.621C31.5697 23.2769 32.4749 22.1231 34.0999 21.3623C35.485 20.7283 36.3357 20.1577 36.8701 19.4984C37.4154 18.8517 37.6009 18.4333 37.8299 17.4062C38.277 15.4155 37.7863 13.7798 36.5429 13.1078C35.4087 12.4992 34.5362 12.7655 33.5437 14.0588L32.8893 14.921L32.9548 16.8103C33.0093 18.4967 32.9875 18.801 32.7803 19.7139C32.5294 20.7537 31.7551 22.5795 31.0353 23.8221C30.599 24.5702 30.1519 25.0647 28.8649 26.282C28.4287 26.6877 28.0797 27.0808 28.0797 27.1569C28.0797 27.2583 29.2467 27.2837 32.0932 27.2456L36.0958 27.1949L36.1285 27.5119C36.183 28.1459 34.6234 29.8577 33.2383 30.6565C32.8675 30.8847 32.5403 31.1129 32.4967 31.189C32.4531 31.2778 29.3012 31.3158 22.9974 31.3158H13.5744L12.5601 30.6565C12.0148 30.3014 11.3495 29.8703 11.0986 29.7055C10.3461 29.2237 9.35363 28.0698 9.2991 27.6387L9.24457 27.2583H13.4762C15.7992 27.2583 17.7296 27.2076 17.7624 27.1569C17.8496 26.9794 17.6969 26.8272 16.5736 25.9777C15.6247 25.2676 15.4284 25.1535 15.2103 25.2549C14.8613 25.4071 13.7816 25.2803 12.5928 24.9633C10.4988 24.3927 8.98282 22.7824 8.50294 20.5888C8.41569 20.1831 8.29573 19.1053 8.23029 18.205C8.17576 17.3048 8.06669 16.3538 8.01216 16.1002C7.88129 15.5296 7.46685 14.8956 6.79066 14.249C6.12538 13.6023 6.07085 13.3994 6.44166 12.8415L6.73613 12.3977L7.68497 12.4485C8.45932 12.4865 8.72107 12.5626 9.1246 12.8289C9.88804 13.3614 10.3461 14.0461 10.7278 15.2253C10.9132 15.8086 11.3386 16.9117 11.6658 17.6852C11.9929 18.446 12.2656 19.1814 12.2656 19.3082C12.2656 19.5111 12.2438 19.5111 11.8512 19.2828C11.1641 18.8771 10.8042 18.205 9.90985 15.6564C9.44088 14.3251 8.79741 13.5896 7.93582 13.3994C7.44504 13.2853 7.47776 13.4628 8.0776 14.3631C8.74288 15.3394 8.96101 16.0368 9.04826 17.495C9.22276 20.3986 9.4627 21.3242 10.357 22.5288C10.9787 23.3657 12.2656 24.0504 13.5962 24.2406C14.1851 24.3293 14.6868 24.3547 14.7304 24.304C14.774 24.2659 14.6868 24.0377 14.5341 23.8095C13.9997 22.9726 13.4762 21.7934 13.0836 20.5254C12.7237 19.3589 12.68 19.1053 12.6909 18.0782C12.7019 16.544 12.7782 15.9988 13.1163 14.642L13.3999 13.5009L22.7792 13.5389L32.1695 13.5643L32.4095 13.8813L32.6385 14.1856L32.7476 13.8179C32.9003 13.3107 33.6746 12.3724 34.1436 12.1061C35.027 11.6243 36.0522 11.6623 37.001 12.2202ZM11.3495 21.768C11.0986 22.0597 10.3025 20.4367 10.3134 19.6632C10.3134 19.2448 10.357 19.2955 10.8587 20.462C11.1641 21.1467 11.3822 21.73 11.3495 21.768Z" fill="#0A0A0A" stroke="#0A0A0A" stroke-width="2" mask="url(#path-15-inside-1_4981_6199)"/>
<defs>
<clipPath id="clip0_4981_6199">
<rect width="103" height="32" fill="white" transform="translate(47 1)"/>
</clipPath>
</defs>
</svg>
