<svg width="155" height="33" viewBox="0 0 155 33" fill="none" xmlns="http://www.w3.org/2000/svg">
<mask id="path-1-inside-1_4972_5972" fill="white">
<path d="M23.5645 3.78826C24.1425 4.09257 24.6551 4.82799 24.8078 5.60145C24.9278 6.17203 24.9169 6.26079 24.6442 6.92013C24.317 7.69359 24.3607 7.85843 24.906 7.85843C25.3204 7.85843 26.7709 8.36561 27.349 8.70796C28.0361 9.10103 28.7559 9.88717 29.2467 10.7367C29.6393 11.4341 29.9665 11.7384 30.1519 11.5989C30.2173 11.5482 30.3591 11.5609 30.4791 11.5989C30.6427 11.6623 30.6972 11.7891 30.6972 12.1061C30.6972 12.3343 30.6318 12.5499 30.5663 12.5753C30.49 12.6006 28.2215 12.6133 25.5167 12.6006C22.8229 12.5879 19.3656 12.5626 17.8605 12.5626L15.1012 12.5499L14.9158 12.2202C14.7413 11.9032 14.7413 11.8779 14.9376 11.713C15.0467 11.6116 15.3412 11.5355 15.5811 11.5355C16.0065 11.5355 16.0501 11.4975 16.3555 10.8889C17.1189 9.37999 18.6567 8.2515 20.4671 7.88379L21.5141 7.66823L21.1978 6.98353C20.7071 5.91844 20.8161 5.04354 21.5468 4.20669C22.1358 3.54734 22.8229 3.39519 23.5645 3.78826ZM37.001 12.2202C39.0514 13.4248 39.5749 16.8356 38.1134 19.4603C37.3609 20.7917 36.4121 21.5271 34.3726 22.3133C33.2274 22.7444 32.6712 23.1882 32.4422 23.8348C32.3658 24.0377 32.344 24.304 32.3768 24.4181C32.4422 24.6083 32.464 24.6083 32.7258 24.4054C33.1075 24.1138 33.3147 24.2406 33.3147 24.7604C33.3147 25.0521 33.2274 25.2803 33.0093 25.5212C32.6276 25.9523 32.3331 25.9523 31.9078 25.5339C31.6242 25.2549 31.5697 25.1155 31.5697 24.621C31.5697 23.2769 32.4749 22.1231 34.0999 21.3623C35.485 20.7283 36.3357 20.1577 36.8701 19.4984C37.4154 18.8517 37.6009 18.4333 37.8299 17.4062C38.277 15.4155 37.7863 13.7798 36.5429 13.1078C35.4087 12.4992 34.5362 12.7655 33.5437 14.0588L32.8893 14.921L32.9548 16.8103C33.0093 18.4967 32.9875 18.801 32.7803 19.7139C32.5294 20.7537 31.7551 22.5795 31.0353 23.8221C30.599 24.5702 30.1519 25.0647 28.8649 26.282C28.4287 26.6877 28.0797 27.0808 28.0797 27.1569C28.0797 27.2583 29.2467 27.2837 32.0932 27.2456L36.0958 27.1949L36.1285 27.5119C36.183 28.1459 34.6234 29.8577 33.2383 30.6565C32.8675 30.8847 32.5403 31.1129 32.4967 31.189C32.4531 31.2778 29.3012 31.3158 22.9974 31.3158H13.5744L12.5601 30.6565C12.0148 30.3014 11.3495 29.8703 11.0986 29.7055C10.3461 29.2237 9.35363 28.0698 9.2991 27.6387L9.24457 27.2583H13.4762C15.7992 27.2583 17.7296 27.2076 17.7624 27.1569C17.8496 26.9794 17.6969 26.8272 16.5736 25.9777C15.6247 25.2676 15.4284 25.1535 15.2103 25.2549C14.8613 25.4071 13.7816 25.2803 12.5928 24.9633C10.4988 24.3927 8.98282 22.7824 8.50294 20.5888C8.41569 20.1831 8.29573 19.1053 8.23029 18.205C8.17576 17.3048 8.06669 16.3538 8.01216 16.1002C7.88129 15.5296 7.46685 14.8956 6.79066 14.249C6.12538 13.6023 6.07085 13.3994 6.44166 12.8415L6.73613 12.3977L7.68497 12.4485C8.45932 12.4865 8.72107 12.5626 9.1246 12.8289C9.88804 13.3614 10.3461 14.0461 10.7278 15.2253C10.9132 15.8086 11.3386 16.9117 11.6658 17.6852C11.9929 18.446 12.2656 19.1814 12.2656 19.3082C12.2656 19.5111 12.2438 19.5111 11.8512 19.2828C11.1641 18.8771 10.8042 18.205 9.90985 15.6564C9.44088 14.3251 8.79741 13.5896 7.93582 13.3994C7.44504 13.2853 7.47776 13.4628 8.0776 14.3631C8.74288 15.3394 8.96101 16.0368 9.04826 17.495C9.22276 20.3986 9.4627 21.3242 10.357 22.5288C10.9787 23.3657 12.2656 24.0504 13.5962 24.2406C14.1851 24.3293 14.6868 24.3547 14.7304 24.304C14.774 24.2659 14.6868 24.0377 14.5341 23.8095C13.9997 22.9726 13.4762 21.7934 13.0836 20.5254C12.7237 19.3589 12.68 19.1053 12.6909 18.0782C12.7019 16.544 12.7782 15.9988 13.1163 14.642L13.3999 13.5009L22.7792 13.5389L32.1695 13.5643L32.4095 13.8813L32.6385 14.1856L32.7476 13.8179C32.9003 13.3107 33.6746 12.3724 34.1436 12.1061C35.027 11.6243 36.0522 11.6623 37.001 12.2202ZM11.3495 21.768C11.0986 22.0597 10.3025 20.4367 10.3134 19.6632C10.3134 19.2448 10.357 19.2955 10.8587 20.462C11.1641 21.1467 11.3822 21.73 11.3495 21.768Z"/>
</mask>
<path d="M23.5645 3.78826C24.1425 4.09257 24.6551 4.82799 24.8078 5.60145C24.9278 6.17203 24.9169 6.26079 24.6442 6.92013C24.317 7.69359 24.3607 7.85843 24.906 7.85843C25.3204 7.85843 26.7709 8.36561 27.349 8.70796C28.0361 9.10103 28.7559 9.88717 29.2467 10.7367C29.6393 11.4341 29.9665 11.7384 30.1519 11.5989C30.2173 11.5482 30.3591 11.5609 30.4791 11.5989C30.6427 11.6623 30.6972 11.7891 30.6972 12.1061C30.6972 12.3343 30.6318 12.5499 30.5663 12.5753C30.49 12.6006 28.2215 12.6133 25.5167 12.6006C22.8229 12.5879 19.3656 12.5626 17.8605 12.5626L15.1012 12.5499L14.9158 12.2202C14.7413 11.9032 14.7413 11.8779 14.9376 11.713C15.0467 11.6116 15.3412 11.5355 15.5811 11.5355C16.0065 11.5355 16.0501 11.4975 16.3555 10.8889C17.1189 9.37999 18.6567 8.2515 20.4671 7.88379L21.5141 7.66823L21.1978 6.98353C20.7071 5.91844 20.8161 5.04354 21.5468 4.20669C22.1358 3.54734 22.8229 3.39519 23.5645 3.78826ZM37.001 12.2202C39.0514 13.4248 39.5749 16.8356 38.1134 19.4603C37.3609 20.7917 36.4121 21.5271 34.3726 22.3133C33.2274 22.7444 32.6712 23.1882 32.4422 23.8348C32.3658 24.0377 32.344 24.304 32.3768 24.4181C32.4422 24.6083 32.464 24.6083 32.7258 24.4054C33.1075 24.1138 33.3147 24.2406 33.3147 24.7604C33.3147 25.0521 33.2274 25.2803 33.0093 25.5212C32.6276 25.9523 32.3331 25.9523 31.9078 25.5339C31.6242 25.2549 31.5697 25.1155 31.5697 24.621C31.5697 23.2769 32.4749 22.1231 34.0999 21.3623C35.485 20.7283 36.3357 20.1577 36.8701 19.4984C37.4154 18.8517 37.6009 18.4333 37.8299 17.4062C38.277 15.4155 37.7863 13.7798 36.5429 13.1078C35.4087 12.4992 34.5362 12.7655 33.5437 14.0588L32.8893 14.921L32.9548 16.8103C33.0093 18.4967 32.9875 18.801 32.7803 19.7139C32.5294 20.7537 31.7551 22.5795 31.0353 23.8221C30.599 24.5702 30.1519 25.0647 28.8649 26.282C28.4287 26.6877 28.0797 27.0808 28.0797 27.1569C28.0797 27.2583 29.2467 27.2837 32.0932 27.2456L36.0958 27.1949L36.1285 27.5119C36.183 28.1459 34.6234 29.8577 33.2383 30.6565C32.8675 30.8847 32.5403 31.1129 32.4967 31.189C32.4531 31.2778 29.3012 31.3158 22.9974 31.3158H13.5744L12.5601 30.6565C12.0148 30.3014 11.3495 29.8703 11.0986 29.7055C10.3461 29.2237 9.35363 28.0698 9.2991 27.6387L9.24457 27.2583H13.4762C15.7992 27.2583 17.7296 27.2076 17.7624 27.1569C17.8496 26.9794 17.6969 26.8272 16.5736 25.9777C15.6247 25.2676 15.4284 25.1535 15.2103 25.2549C14.8613 25.4071 13.7816 25.2803 12.5928 24.9633C10.4988 24.3927 8.98282 22.7824 8.50294 20.5888C8.41569 20.1831 8.29573 19.1053 8.23029 18.205C8.17576 17.3048 8.06669 16.3538 8.01216 16.1002C7.88129 15.5296 7.46685 14.8956 6.79066 14.249C6.12538 13.6023 6.07085 13.3994 6.44166 12.8415L6.73613 12.3977L7.68497 12.4485C8.45932 12.4865 8.72107 12.5626 9.1246 12.8289C9.88804 13.3614 10.3461 14.0461 10.7278 15.2253C10.9132 15.8086 11.3386 16.9117 11.6658 17.6852C11.9929 18.446 12.2656 19.1814 12.2656 19.3082C12.2656 19.5111 12.2438 19.5111 11.8512 19.2828C11.1641 18.8771 10.8042 18.205 9.90985 15.6564C9.44088 14.3251 8.79741 13.5896 7.93582 13.3994C7.44504 13.2853 7.47776 13.4628 8.0776 14.3631C8.74288 15.3394 8.96101 16.0368 9.04826 17.495C9.22276 20.3986 9.4627 21.3242 10.357 22.5288C10.9787 23.3657 12.2656 24.0504 13.5962 24.2406C14.1851 24.3293 14.6868 24.3547 14.7304 24.304C14.774 24.2659 14.6868 24.0377 14.5341 23.8095C13.9997 22.9726 13.4762 21.7934 13.0836 20.5254C12.7237 19.3589 12.68 19.1053 12.6909 18.0782C12.7019 16.544 12.7782 15.9988 13.1163 14.642L13.3999 13.5009L22.7792 13.5389L32.1695 13.5643L32.4095 13.8813L32.6385 14.1856L32.7476 13.8179C32.9003 13.3107 33.6746 12.3724 34.1436 12.1061C35.027 11.6243 36.0522 11.6623 37.001 12.2202ZM11.3495 21.768C11.0986 22.0597 10.3025 20.4367 10.3134 19.6632C10.3134 19.2448 10.357 19.2955 10.8587 20.462C11.1641 21.1467 11.3822 21.73 11.3495 21.768Z" fill="white" stroke="white" stroke-width="2" mask="url(#path-1-inside-1_4972_5972)"/>
<g clip-path="url(#clip0_4972_5972)">
<path d="M58.5381 21.7278C58.6239 23.415 58.9386 24.5787 59.4536 25.2187C59.9829 25.8587 60.6982 26.1787 61.6138 26.1787H64.1316V32.6223H60.4121C59.5824 32.6223 58.6811 32.4768 57.7084 32.1568C56.7356 31.8514 55.8343 31.2841 54.9903 30.455C54.1463 29.6259 53.4596 28.4914 52.916 27.0368C52.3724 25.5823 52.1006 23.6914 52.1006 21.3787V1.48047H58.4809L58.5381 21.7278Z" fill="#838383"/>
<path d="M72.2856 32.6223C69.9967 32.4477 68.28 31.7641 67.1213 30.5568C65.9625 29.3496 65.376 27.7496 65.376 25.7423C65.376 24.3459 65.6621 23.2259 66.2057 22.3677C66.7636 21.5096 67.436 20.8405 68.2371 20.3459C69.0382 19.8514 69.8822 19.5168 70.7549 19.3423C71.6418 19.1677 72.4143 19.0805 73.0724 19.0805H76.7489C76.7489 18.7023 76.7346 18.3532 76.6917 18.0187C76.6488 17.6841 76.4914 17.4077 76.2196 17.1896C75.9478 16.9714 75.5186 16.7968 74.9607 16.6659C74.3885 16.535 73.5731 16.4768 72.5144 16.4768H66.7779V10.0332H72.1711C74.2883 10.0332 76.0336 10.2659 77.3926 10.7168C78.766 11.1677 79.8532 11.8223 80.6686 12.695C81.484 13.5677 82.0563 14.6587 82.3853 15.9677C82.7143 17.2768 82.886 18.7896 82.886 20.4914V32.6514C80.8832 32.6805 78.9519 32.695 77.0636 32.6659C75.1896 32.6223 73.5874 32.6223 72.2856 32.6223ZM73.1868 24.3023C72.5288 24.3023 72.0567 24.4332 71.7706 24.695C71.4844 24.9568 71.3557 25.2477 71.3843 25.5823C71.4129 25.9168 71.5703 26.2223 71.885 26.4696C72.1854 26.7314 72.6146 26.8623 73.1439 26.8623C73.6589 26.8623 74.131 26.8768 74.5888 26.8914C75.0322 26.9059 75.4042 26.8768 75.7475 26.8041C76.0765 26.7314 76.334 26.5859 76.52 26.3532C76.706 26.1205 76.7918 25.7568 76.7918 25.2623V24.3023H73.1868Z" fill="#838383"/>
<path d="M110.71 8.03928V6.68655C110.71 5.98837 110.61 5.47928 110.395 5.14473C110.18 4.81018 109.894 4.60655 109.522 4.50473C109.15 4.40291 108.707 4.35928 108.221 4.37382C107.72 4.38837 107.176 4.40291 106.59 4.40291C105.975 4.40291 105.502 4.592 105.159 4.95564C104.816 5.31928 104.63 5.74109 104.601 6.22109C104.573 6.68655 104.716 7.10837 105.045 7.48655C105.374 7.85018 105.903 8.03928 106.647 8.03928H110.71Z" fill="#838383"/>
<path d="M89.8955 10.0039L92.1987 25.3494C92.5134 25.9312 92.8567 26.193 93.2287 26.1348C93.6006 26.0766 93.8724 25.8148 94.0441 25.3494L96.3473 10.0185H103.5C102.67 13.6548 101.912 16.913 101.225 19.8221C100.939 21.073 100.653 22.2948 100.367 23.5021C100.081 24.7094 99.8092 25.8003 99.5517 26.7894C99.2942 27.7785 99.0796 28.593 98.908 29.2476C98.7363 29.9021 98.6075 30.2803 98.5217 30.3966C97.9495 31.2694 97.1627 31.9239 96.1613 32.3603C95.1599 32.7966 94.1299 33.0148 93.057 33.0003C91.9841 32.9857 90.9684 32.753 90.0242 32.3021C89.0657 31.8512 88.3362 31.2112 87.8212 30.3676C87.7353 30.2221 87.6066 29.8148 87.4063 29.1457C87.2203 28.4766 87.0057 27.6476 86.7482 26.6585C86.4907 25.6694 86.2189 24.5639 85.9328 23.3712C85.6467 22.1639 85.3606 20.9566 85.0745 19.7348C84.3878 16.8548 83.6582 13.6257 82.8857 10.0185H89.8955V10.0039Z" fill="#838383"/>
<path d="M110.81 21.7265C110.839 22.5701 110.91 23.2538 111.025 23.7774C111.139 24.301 111.268 24.7228 111.44 25.0283C111.597 25.3337 111.783 25.5665 112.012 25.7265C112.241 25.8865 112.513 26.0174 112.827 26.1483V32.6356C111.311 32.6356 110.381 32.4756 109.537 32.1556C108.679 31.8356 107.892 31.2392 107.177 30.3665C106.461 29.4937 105.875 28.2865 105.417 26.7592C104.959 25.2174 104.73 23.2247 104.73 20.7956V9.98828H110.81V21.7265Z" fill="#838383"/>
<path d="M121.439 32.6221H115.059V10.0039H124.686C125.516 10.0039 126.389 10.1203 127.304 10.353C128.22 10.5857 129.064 11.0512 129.822 11.7639C130.594 12.4766 131.238 13.4948 131.753 14.8185C132.268 16.1421 132.526 17.8876 132.526 20.0694V32.6076H126.446V20.4185C126.417 19.6039 126.331 18.9348 126.188 18.4112C126.045 17.8876 125.845 17.4803 125.602 17.1894C125.359 16.8985 125.072 16.7094 124.729 16.6076C124.386 16.5057 124 16.4476 123.57 16.4476H121.425V32.6221H121.439Z" fill="#838383"/>
<path d="M140.623 32.6223C138.334 32.4477 136.617 31.7641 135.459 30.5568C134.3 29.3496 133.728 27.7496 133.728 25.7423C133.728 24.3459 133.999 23.2259 134.557 22.3677C135.115 21.5096 135.788 20.8405 136.589 20.3459C137.39 19.8514 138.234 19.5168 139.121 19.3423C140.008 19.1677 140.78 19.0805 141.438 19.0805H145.115C145.115 18.7023 145.086 18.3532 145.043 18.0187C145 17.6841 144.843 17.4077 144.571 17.1896C144.299 16.9714 143.87 16.7968 143.312 16.6659C142.74 16.535 141.925 16.4768 140.866 16.4768H135.129V10.0332H140.523C142.64 10.0332 144.385 10.2659 145.759 10.7168C147.132 11.1677 148.219 11.8223 149.034 12.695C149.85 13.5677 150.422 14.6587 150.751 15.9677C151.08 17.2768 151.238 18.7896 151.238 20.4914V32.6514C149.235 32.6805 147.289 32.695 145.415 32.6659C143.541 32.6223 141.939 32.6223 140.623 32.6223ZM141.524 24.3023C140.866 24.3023 140.394 24.4332 140.108 24.695C139.822 24.9568 139.693 25.2477 139.722 25.5823C139.75 25.9168 139.908 26.2223 140.208 26.4696C140.508 26.7314 140.938 26.8623 141.481 26.8623C141.996 26.8623 142.468 26.8768 142.912 26.8914C143.355 26.9059 143.741 26.8768 144.07 26.8041C144.399 26.7314 144.657 26.5859 144.843 26.3532C145.029 26.1205 145.129 25.7568 145.129 25.2623V24.3023H141.524Z" fill="#838383"/>
<path d="M58.9951 21.261C59.0809 22.9482 59.3814 24.1119 59.9107 24.7373C60.44 25.3773 61.1553 25.6973 62.0708 25.6973H64.5886V32.141H60.8691C60.0394 32.141 59.1382 31.981 58.1654 31.69C57.1926 31.3846 56.2914 30.8173 55.4473 29.9882C54.6033 29.1591 53.9166 28.0246 53.373 26.57C52.8294 25.1155 52.5576 23.2246 52.5576 20.8973V1.01367H58.9379L58.9951 21.261Z" fill="white"/>
<path d="M72.7433 32.1555C70.4544 31.981 68.7377 31.2973 67.5933 30.0901C66.4345 28.8828 65.8623 27.2828 65.8623 25.2755C65.8623 23.8791 66.1341 22.7591 66.692 21.901C67.2499 21.0428 67.9223 20.3737 68.7234 19.8791C69.5245 19.3846 70.3542 19.0501 71.2555 18.8755C72.1424 18.701 72.9149 18.6137 73.573 18.6137H77.2638C77.2638 18.2355 77.2495 17.8864 77.1923 17.5519C77.1494 17.2173 76.992 16.941 76.7202 16.7228C76.4484 16.5046 76.0192 16.3301 75.4613 16.1991C74.8891 16.0682 74.0737 16.0101 73.0151 16.0101H67.2786V9.56641H72.6717C74.789 9.56641 76.5342 9.79913 77.8933 10.2355C79.2666 10.6864 80.3538 11.341 81.1692 12.2137C81.9847 13.0864 82.5569 14.1773 82.8859 15.4864C83.2149 16.7955 83.3866 18.3082 83.3866 20.0101V32.1555C81.3838 32.1846 79.4526 32.1846 77.5499 32.1846C75.6473 32.1555 74.0451 32.1555 72.7433 32.1555ZM73.6445 23.8355C72.9865 23.8355 72.5144 23.9664 72.2283 24.2282C71.9422 24.4901 71.8134 24.781 71.842 25.1155C71.8706 25.4501 72.028 25.741 72.3427 26.0028C72.6431 26.2646 73.058 26.3955 73.6016 26.3955C74.1166 26.3955 74.5887 26.4101 75.0465 26.4246C75.4899 26.4391 75.8762 26.4101 76.2052 26.3373C76.5342 26.2646 76.7917 26.1046 76.9777 25.8864C77.1637 25.6537 77.2495 25.2901 77.2495 24.7955V23.8355H73.6445Z" fill="white"/>
<path d="M111.168 7.57443V6.22169C111.168 5.52351 111.068 5.01442 110.853 4.67987C110.638 4.34533 110.352 4.14169 109.98 4.03987C109.608 3.93805 109.165 3.89443 108.664 3.90898C108.164 3.92352 107.62 3.93807 107.048 3.93807C106.433 3.93807 105.946 4.12716 105.617 4.4908C105.274 4.85443 105.088 5.27625 105.059 5.75625C105.031 6.23625 105.174 6.65805 105.503 7.02169C105.817 7.38533 106.361 7.57443 107.105 7.57443H111.168Z" fill="white"/>
<path d="M90.3385 9.55273L92.656 24.8837C92.9708 25.4655 93.3141 25.7273 93.686 25.6691C94.058 25.6109 94.3298 25.3491 94.5015 24.8837L96.8189 9.55273H103.972C103.142 13.1891 102.384 16.4473 101.697 19.3564C101.411 20.6073 101.125 21.8291 100.839 23.0364C100.553 24.2437 100.281 25.3346 100.023 26.3237C99.7659 27.3128 99.5513 28.1273 99.3796 28.7818C99.208 29.4364 99.0792 29.8146 98.9934 29.9455C98.4212 30.8182 97.6344 31.4728 96.633 31.9091C95.6316 32.3455 94.6016 32.5637 93.5287 32.5346C92.4558 32.52 91.4401 32.2873 90.4816 31.8364C89.5231 31.3855 88.7935 30.7455 88.2785 29.9018C88.1927 29.7564 88.064 29.3491 87.878 28.68C87.692 28.0109 87.4774 27.1818 87.2199 26.1928C86.9624 25.2037 86.6906 24.1128 86.4045 22.9055C86.1184 21.6982 85.8323 20.4909 85.5462 19.2691C84.8595 16.3891 84.1299 13.16 83.3574 9.55273H90.3385Z" fill="white"/>
<path d="M111.268 21.2623C111.296 22.1059 111.368 22.7896 111.482 23.3132C111.597 23.8368 111.725 24.2441 111.883 24.5496C112.04 24.855 112.226 25.0878 112.455 25.2478C112.684 25.4078 112.956 25.5387 113.27 25.655V32.1423C111.754 32.1423 110.824 31.9823 109.966 31.6623C109.108 31.3423 108.321 30.7459 107.605 29.8732C106.89 29.0005 106.304 27.7932 105.846 26.2514C105.388 24.7096 105.159 22.7168 105.159 20.2878V9.48047H111.239V21.2623H111.268Z" fill="white"/>
<path d="M121.882 32.1564H115.502V9.55273H125.13C125.959 9.55273 126.832 9.66911 127.748 9.90184C128.663 10.1346 129.507 10.6146 130.28 11.3127C131.052 12.0255 131.696 13.0437 132.211 14.3673C132.726 15.6909 132.983 17.4364 132.983 19.6182V32.1564H126.903V19.9673C126.875 19.1527 126.789 18.4837 126.646 17.96C126.503 17.4364 126.317 17.0291 126.074 16.7382C125.831 16.4473 125.544 16.2437 125.201 16.1564C124.858 16.0546 124.472 15.9964 124.042 15.9964H121.897V32.1564H121.882Z" fill="white"/>
<path d="M141.081 32.1555C138.792 31.981 137.075 31.2973 135.917 30.0901C134.758 28.8828 134.186 27.2828 134.186 25.2755C134.186 23.8791 134.457 22.7591 135.015 21.901C135.573 21.0428 136.246 20.3737 137.047 19.8791C137.848 19.3846 138.692 19.0501 139.579 18.8755C140.466 18.701 141.238 18.6137 141.896 18.6137H145.573C145.573 18.2355 145.558 17.8864 145.501 17.5519C145.458 17.2173 145.301 16.941 145.029 16.7228C144.757 16.5046 144.342 16.3301 143.77 16.1991C143.198 16.0682 142.383 16.0101 141.324 16.0101H135.587V9.56641H140.981C143.098 9.56641 144.829 9.79913 146.202 10.2355C147.576 10.6864 148.663 11.341 149.478 12.2137C150.294 13.0864 150.866 14.1773 151.195 15.4864C151.524 16.7955 151.681 18.3082 151.681 20.0101V32.1555C149.678 32.1846 147.747 32.1846 145.859 32.1846C143.985 32.1555 142.383 32.1555 141.081 32.1555ZM141.982 23.8355C141.324 23.8355 140.852 23.9664 140.566 24.2282C140.28 24.4901 140.151 24.781 140.18 25.1155C140.208 25.4501 140.366 25.741 140.666 26.0028C140.966 26.2646 141.396 26.3955 141.925 26.3955C142.44 26.3955 142.912 26.4101 143.355 26.4246C143.799 26.4391 144.185 26.4101 144.514 26.3373C144.843 26.2646 145.101 26.1046 145.287 25.8864C145.473 25.6537 145.573 25.2901 145.573 24.7955V23.8355H141.982Z" fill="white"/>
</g>
<defs>
<clipPath id="clip0_4972_5972">
<rect width="103" height="32" fill="white" transform="translate(52 1)"/>
</clipPath>
</defs>
</svg>
