<svg width="29" height="35" viewBox="0 0 29 35" fill="none" xmlns="http://www.w3.org/2000/svg">
<g filter="url(#filter0_d_4958_6076)">
<path d="M26.1196 15.6958C22.4308 21.1405 18.7407 26.5854 15.0493 32.0304C12.7322 28.5771 10.4146 25.1235 8.0964 21.6696C8.5993 21.1146 9.1012 20.5586 9.60222 20.0018C9.68772 19.9068 9.75556 19.8017 9.80353 19.69C9.87384 19.5251 9.92388 19.3548 9.95285 19.1816C9.96978 19.0888 9.98008 18.9953 9.98383 18.9015C9.99232 18.6835 10.0743 18.4719 10.2205 18.2908C10.3587 18.1236 10.497 17.956 10.6347 17.7879C10.7327 17.6688 10.8035 17.5356 10.8437 17.3953C12.6611 18.179 14.7342 18.4554 16.7557 18.1835C18.7771 17.9118 20.6392 17.1061 22.0659 15.8863C23.4926 14.6664 24.4078 13.0972 24.676 11.4113C24.9441 9.72548 24.5507 8.01275 23.5543 6.52714C20.9961 2.71062 15.1946 1.33804 10.5987 3.46373C6.0028 5.58942 4.35045 10.4065 6.91248 14.223C7.37554 14.9154 7.96146 15.5459 8.65055 16.0934C8.48162 16.1795 8.33651 16.2942 8.22472 16.43L7.9814 16.7285C7.81147 16.934 7.56728 17.0894 7.28409 17.1721C7.22434 17.1905 7.16353 17.2093 7.10158 17.2309C6.92924 17.2901 6.76282 17.3606 6.6039 17.4417C6.44589 17.5206 6.30875 17.6253 6.20077 17.7494C6.06197 17.9069 5.92427 18.0639 5.78547 18.221C5.16538 17.3004 4.54566 16.3796 3.9263 15.4588C2.38566 13.1604 1.90566 10.4594 2.66437 7.9052C2.99225 6.79975 3.54146 5.74792 4.28907 4.79359C7.84867 0.244192 14.1014 0.0173423 14.7053 0.0035701C19.304 -0.0956243 23.8767 1.87669 26.2413 5.36581C27.0175 6.51109 27.518 7.77081 27.715 9.07481C28.0678 11.3645 27.4839 13.6849 26.1196 15.6958Z" fill="#0A0A0A"/>
</g>
<path d="M23.5532 6.52502C20.9956 2.70852 15.1941 1.33594 10.5982 3.46117C6.00225 5.58641 4.34935 10.4045 6.90861 14.2205C7.37186 14.9126 7.95751 15.5431 8.64613 16.0909C10.1182 17.2571 12.0008 18.002 14.0188 18.2168C16.0369 18.4316 18.0848 18.105 19.8636 17.2848C22.071 16.2642 23.6997 14.5572 24.3916 12.5394C25.0836 10.5216 24.7819 8.35818 23.5532 6.52502ZM18.6741 15.6142C17.421 16.1934 15.9892 16.4509 14.5597 16.3543C13.1303 16.2578 11.7675 15.8114 10.6436 15.0717C9.51966 14.332 8.68513 13.3321 8.24546 12.1985C7.80585 11.0649 7.78082 9.84852 8.17367 8.70318C8.56651 7.55779 9.3595 6.53485 10.4524 5.76374C11.5452 4.99257 12.8889 4.50785 14.3136 4.37091C15.7382 4.23391 17.1797 4.45074 18.4559 4.99407C19.7322 5.53741 20.7857 6.38274 21.4833 7.42324C21.9466 8.11424 22.2415 8.87424 22.351 9.65985C22.4606 10.4455 22.3827 11.2413 22.1218 12.0019C21.861 12.7626 21.4222 13.4731 20.8307 14.0929C20.2391 14.7126 19.5063 15.2296 18.6741 15.6142Z" fill="#6B6B6B" stroke="white" stroke-width="0.0826581" stroke-miterlimit="10"/>
<path d="M10.8432 17.3937C10.8029 17.5341 10.7321 17.6671 10.6342 17.7863C10.4948 17.9544 10.3576 18.122 10.22 18.2891C10.0738 18.4703 9.99177 18.6819 9.98327 18.8999C9.97959 18.9937 9.96922 19.0872 9.95229 19.18C9.92333 19.3532 9.87328 19.5235 9.80304 19.6884C9.75507 19.8001 9.68723 19.9052 9.60173 20.0002C9.09883 20.5564 8.59694 21.1124 8.09591 21.668C6.93426 22.9572 5.77297 24.2451 4.61205 25.5319C4.495 25.6638 4.34528 25.7734 4.17297 25.8533C3.94661 25.9555 3.69888 26.0209 3.44302 26.0461C2.66882 26.121 2.10809 25.7922 1.93832 25.6898C1.49269 25.4201 1.17867 25.0263 1.05353 24.5804C0.979806 24.3049 0.982264 24.0191 1.06072 23.7446C1.10308 23.5941 1.18192 23.4524 1.29242 23.3281C2.78993 21.6262 4.28596 19.9234 5.78052 18.2194C5.91988 18.0623 6.05702 17.9052 6.19583 17.7477C6.3038 17.6236 6.44094 17.519 6.59895 17.4401C6.75787 17.359 6.9243 17.2885 7.09667 17.2293C7.15856 17.2077 7.21944 17.1889 7.27911 17.1705C7.56237 17.0878 7.80656 16.9324 7.97649 16.7269L8.21981 16.4284C8.33161 16.2926 8.47672 16.1779 8.64558 16.0918C9.29934 16.6109 10.0394 17.0493 10.8432 17.3937Z" fill="#6B6B6B" stroke="white" stroke-width="0.0826581" stroke-miterlimit="10"/>
<path d="M17.6334 30.3613C21.9396 30.5538 25.1658 31.3491 25.1658 32.3006C25.1658 33.3958 20.8872 34.2844 15.6094 34.2844C10.3316 34.2844 6.05371 33.3958 6.05371 32.3006C6.05371 31.5071 8.29944 30.8219 11.5433 30.5042C11.8662 30.4735 12.1991 30.4458 12.542 30.4211" stroke="#6B6B6B" stroke-miterlimit="10" stroke-linecap="round"/>
<defs>
<filter id="filter0_d_4958_6076" x="1.31055" y="0" width="27.5049" height="34.0312" filterUnits="userSpaceOnUse" color-interpolation-filters="sRGB">
<feFlood flood-opacity="0" result="BackgroundImageFix"/>
<feColorMatrix in="SourceAlpha" type="matrix" values="0 0 0 0 0 0 0 0 0 0 0 0 0 0 0 0 0 0 127 0" result="hardAlpha"/>
<feOffset dy="1"/>
<feGaussianBlur stdDeviation="0.5"/>
<feColorMatrix type="matrix" values="0 0 0 0 1 0 0 0 0 1 0 0 0 0 1 0 0 0 0.44 0"/>
<feBlend mode="normal" in2="BackgroundImageFix" result="effect1_dropShadow_4958_6076"/>
<feBlend mode="normal" in="SourceGraphic" in2="effect1_dropShadow_4958_6076" result="shape"/>
</filter>
</defs>
</svg>
