<svg width="163" height="37" viewBox="0 0 163 37" fill="none" xmlns="http://www.w3.org/2000/svg">
<g filter="url(#filter0_d_4953_6044)">
<path d="M26.1196 16.6958C22.4308 22.1405 18.7407 27.5854 15.0493 33.0304C12.7322 29.5771 10.4146 26.1235 8.0964 22.6696C8.5993 22.1146 9.1012 21.5586 9.60222 21.0018C9.68772 20.9068 9.75556 20.8017 9.80353 20.69C9.87384 20.5251 9.92388 20.3548 9.95285 20.1816C9.96978 20.0888 9.98008 19.9953 9.98383 19.9015C9.99232 19.6835 10.0743 19.4719 10.2205 19.2908C10.3587 19.1236 10.497 18.956 10.6347 18.7879C10.7327 18.6688 10.8035 18.5356 10.8437 18.3953C12.6611 19.179 14.7342 19.4554 16.7557 19.1835C18.7771 18.9118 20.6392 18.1061 22.0659 16.8863C23.4926 15.6664 24.4078 14.0972 24.676 12.4113C24.9441 10.7255 24.5507 9.01275 23.5543 7.52714C20.9961 3.71062 15.1946 2.33804 10.5987 4.46373C6.0028 6.58942 4.35045 11.4065 6.91248 15.223C7.37554 15.9154 7.96146 16.5459 8.65055 17.0934C8.48162 17.1795 8.33651 17.2942 8.22472 17.43L7.9814 17.7285C7.81147 17.934 7.56728 18.0894 7.28409 18.1721C7.22434 18.1905 7.16353 18.2093 7.10158 18.2309C6.92924 18.2901 6.76282 18.3606 6.6039 18.4417C6.44589 18.5206 6.30875 18.6253 6.20077 18.7494C6.06197 18.9069 5.92428 19.0639 5.78547 19.221C5.16538 18.3004 4.54566 17.3796 3.9263 16.4588C2.38566 14.1604 1.90566 11.4594 2.66437 8.9052C2.99225 7.79975 3.54146 6.74792 4.28907 5.79359C7.84867 1.24419 14.1014 1.01734 14.7053 1.00357C19.304 0.904376 23.8767 2.87669 26.2413 6.36581C27.0175 7.51109 27.518 8.77081 27.715 10.0748C28.0678 12.3645 27.4839 14.6849 26.1196 16.6958Z" fill="white"/>
<path d="M26.1196 16.6958C22.4308 22.1405 18.7407 27.5854 15.0493 33.0304C12.7322 29.5771 10.4146 26.1235 8.0964 22.6696C8.5993 22.1146 9.1012 21.5586 9.60222 21.0018C9.68772 20.9068 9.75556 20.8017 9.80353 20.69C9.87384 20.5251 9.92388 20.3548 9.95285 20.1816C9.96978 20.0888 9.98008 19.9953 9.98383 19.9015C9.99232 19.6835 10.0743 19.4719 10.2205 19.2908C10.3587 19.1236 10.497 18.956 10.6347 18.7879C10.7327 18.6688 10.8035 18.5356 10.8437 18.3953C12.6611 19.179 14.7342 19.4554 16.7557 19.1835C18.7771 18.9118 20.6392 18.1061 22.0659 16.8863C23.4926 15.6664 24.4078 14.0972 24.676 12.4113C24.9441 10.7255 24.5507 9.01275 23.5543 7.52714C20.9961 3.71062 15.1946 2.33804 10.5987 4.46373C6.0028 6.58942 4.35045 11.4065 6.91248 15.223C7.37554 15.9154 7.96146 16.5459 8.65055 17.0934C8.48162 17.1795 8.33651 17.2942 8.22472 17.43L7.9814 17.7285C7.81147 17.934 7.56728 18.0894 7.28409 18.1721C7.22434 18.1905 7.16353 18.2093 7.10158 18.2309C6.92924 18.2901 6.76282 18.3606 6.6039 18.4417C6.44589 18.5206 6.30875 18.6253 6.20077 18.7494C6.06197 18.9069 5.92428 19.0639 5.78547 19.221C5.16538 18.3004 4.54566 17.3796 3.9263 16.4588C2.38566 14.1604 1.90566 11.4594 2.66437 8.9052C2.99225 7.79975 3.54146 6.74792 4.28907 5.79359C7.84867 1.24419 14.1014 1.01734 14.7053 1.00357C19.304 0.904376 23.8767 2.87669 26.2413 6.36581C27.0175 7.51109 27.518 8.77081 27.715 10.0748C28.0678 12.3645 27.4839 14.6849 26.1196 16.6958Z" stroke="white" stroke-width="0.0826581" stroke-miterlimit="10"/>
</g>
<path d="M23.5532 7.52502C20.9956 3.70852 15.1941 2.33594 10.5982 4.46117C6.00225 6.58641 4.34935 11.4045 6.90861 15.2205C7.37186 15.9126 7.95751 16.5431 8.64613 17.0909C10.1182 18.2571 12.0008 19.002 14.0188 19.2168C16.0369 19.4316 18.0848 19.105 19.8636 18.2848C22.071 17.2642 23.6997 15.5572 24.3916 13.5394C25.0836 11.5216 24.7819 9.35818 23.5532 7.52502ZM18.6741 16.6142C17.421 17.1934 15.9892 17.4509 14.5597 17.3544C13.1303 17.2578 11.7675 16.8114 10.6436 16.0717C9.51966 15.332 8.68513 14.3321 8.24545 13.1985C7.80585 12.0649 7.78082 10.8485 8.17367 9.70318C8.56651 8.5578 9.3595 7.53485 10.4524 6.76374C11.5452 5.99257 12.8889 5.50785 14.3136 5.37091C15.7382 5.23391 17.1797 5.45074 18.4559 5.99407C19.7322 6.53741 20.7857 7.38274 21.4833 8.42324C21.9466 9.11424 22.2415 9.87424 22.351 10.6599C22.4606 11.4455 22.3827 12.2413 22.1218 13.0019C21.861 13.7626 21.4222 14.4731 20.8307 15.0929C20.2391 15.7126 19.5063 16.2296 18.6741 16.6142Z" fill="#6B6B6B" stroke="white" stroke-width="0.0826581" stroke-miterlimit="10"/>
<path d="M10.8432 18.3937C10.8029 18.5341 10.7321 18.6671 10.6342 18.7863C10.4948 18.9544 10.3576 19.122 10.22 19.2891C10.0738 19.4703 9.99177 19.6819 9.98327 19.8999C9.97959 19.9937 9.96922 20.0872 9.95229 20.18C9.92333 20.3532 9.87328 20.5235 9.80304 20.6884C9.75507 20.8001 9.68723 20.9052 9.60173 21.0002C9.09883 21.5564 8.59694 22.1124 8.09591 22.668C6.93426 23.9572 5.77297 25.2451 4.61205 26.5319C4.495 26.6638 4.34528 26.7734 4.17297 26.8533C3.94661 26.9555 3.69888 27.0209 3.44302 27.0461C2.66882 27.121 2.10809 26.7922 1.93832 26.6898C1.49269 26.4201 1.17867 26.0263 1.05353 25.5804C0.979806 25.3049 0.982264 25.0191 1.06072 24.7446C1.10308 24.5941 1.18192 24.4524 1.29242 24.3281C2.78993 22.6262 4.28596 20.9234 5.78052 19.2194C5.91988 19.0623 6.05702 18.9052 6.19583 18.7477C6.3038 18.6236 6.44094 18.519 6.59895 18.4401C6.75787 18.359 6.9243 18.2885 7.09667 18.2293C7.15856 18.2077 7.21944 18.1889 7.27911 18.1705C7.56237 18.0878 7.80656 17.9324 7.97649 17.7269L8.21981 17.4284C8.33161 17.2926 8.47672 17.1779 8.64558 17.0918C9.29934 17.6109 10.0394 18.0493 10.8432 18.3937Z" fill="#6B6B6B" stroke="white" stroke-width="0.0826581" stroke-miterlimit="10"/>
<path d="M17.6334 31.3613C21.9396 31.5538 25.1658 32.3491 25.1658 33.3006C25.1658 34.3958 20.8872 35.2844 15.6094 35.2844C10.3316 35.2844 6.05371 34.3958 6.05371 33.3006C6.05371 32.5071 8.29944 31.8219 11.5433 31.5042C11.8662 31.4735 12.1991 31.4458 12.542 31.4211" stroke="#6B6B6B" stroke-miterlimit="10" stroke-linecap="round"/>
<path d="M44.7279 29V7.4H53.4579C53.6679 7.4 53.9279 7.41 54.2379 7.43C54.5479 7.44 54.8429 7.47 55.1229 7.52C56.3229 7.71 57.3229 8.12 58.1229 8.75C58.9329 9.38 59.5379 10.175 59.9379 11.135C60.3379 12.095 60.5379 13.155 60.5379 14.315C60.5379 15.485 60.3379 16.55 59.9379 17.51C59.5379 18.47 58.9329 19.265 58.1229 19.895C57.3229 20.525 56.3229 20.935 55.1229 21.125C54.8429 21.165 54.5429 21.195 54.2229 21.215C53.9129 21.235 53.6579 21.245 53.4579 21.245H47.8629V29H44.7279ZM47.8629 18.275H53.3379C53.5379 18.275 53.7579 18.265 53.9979 18.245C54.2479 18.225 54.4829 18.19 54.7029 18.14C55.3429 17.99 55.8579 17.715 56.2479 17.315C56.6379 16.905 56.9179 16.435 57.0879 15.905C57.2579 15.375 57.3429 14.845 57.3429 14.315C57.3429 13.785 57.2579 13.26 57.0879 12.74C56.9179 12.21 56.6379 11.745 56.2479 11.345C55.8579 10.935 55.3429 10.655 54.7029 10.505C54.4829 10.445 54.2479 10.405 53.9979 10.385C53.7579 10.365 53.5379 10.355 53.3379 10.355H47.8629V18.275ZM63.8365 29V6.95H66.9715V29H63.8365ZM76.051 29.45C74.851 29.45 73.846 29.23 73.036 28.79C72.226 28.34 71.611 27.75 71.191 27.02C70.781 26.28 70.576 25.47 70.576 24.59C70.576 23.77 70.721 23.05 71.011 22.43C71.301 21.81 71.731 21.285 72.301 20.855C72.871 20.415 73.571 20.06 74.401 19.79C75.121 19.58 75.936 19.395 76.846 19.235C77.756 19.075 78.711 18.925 79.711 18.785C80.721 18.645 81.721 18.505 82.711 18.365L81.571 18.995C81.591 17.725 81.321 16.785 80.761 16.175C80.211 15.555 79.261 15.245 77.911 15.245C77.061 15.245 76.281 15.445 75.571 15.845C74.861 16.235 74.366 16.885 74.086 17.795L71.161 16.895C71.561 15.505 72.321 14.4 73.441 13.58C74.571 12.76 76.071 12.35 77.941 12.35C79.391 12.35 80.651 12.6 81.721 13.1C82.801 13.59 83.591 14.37 84.091 15.44C84.351 15.97 84.511 16.53 84.571 17.12C84.631 17.71 84.661 18.345 84.661 19.025V29H81.886V25.295L82.426 25.775C81.756 27.015 80.901 27.94 79.861 28.55C78.831 29.15 77.561 29.45 76.051 29.45ZM76.606 26.885C77.496 26.885 78.261 26.73 78.901 26.42C79.541 26.1 80.056 25.695 80.446 25.205C80.836 24.715 81.091 24.205 81.211 23.675C81.381 23.195 81.476 22.655 81.496 22.055C81.526 21.455 81.541 20.975 81.541 20.615L82.561 20.99C81.571 21.14 80.671 21.275 79.861 21.395C79.051 21.515 78.316 21.635 77.656 21.755C77.006 21.865 76.426 22 75.916 22.16C75.486 22.31 75.101 22.49 74.761 22.7C74.431 22.91 74.166 23.165 73.966 23.465C73.776 23.765 73.681 24.13 73.681 24.56C73.681 24.98 73.786 25.37 73.996 25.73C74.206 26.08 74.526 26.36 74.956 26.57C75.386 26.78 75.936 26.885 76.606 26.885ZM95.4861 29.45C93.8261 29.45 92.4161 29.08 91.2561 28.34C90.0961 27.6 89.2061 26.585 88.5861 25.295C87.9761 24.005 87.6661 22.54 87.6561 20.9C87.6661 19.23 87.9861 17.755 88.6161 16.475C89.2461 15.185 90.1461 14.175 91.3161 13.445C92.4861 12.715 93.8911 12.35 95.5311 12.35C97.3011 12.35 98.8111 12.79 100.061 13.67C101.321 14.55 102.151 15.755 102.551 17.285L99.4311 18.185C99.1211 17.275 98.6111 16.57 97.9011 16.07C97.2011 15.56 96.3961 15.305 95.4861 15.305C94.4561 15.305 93.6111 15.55 92.9511 16.04C92.2911 16.52 91.8011 17.18 91.4811 18.02C91.1611 18.86 90.9961 19.82 90.9861 20.9C90.9961 22.57 91.3761 23.92 92.1261 24.95C92.8861 25.98 94.0061 26.495 95.4861 26.495C96.4961 26.495 97.3111 26.265 97.9311 25.805C98.5611 25.335 99.0411 24.665 99.3711 23.795L102.551 24.545C102.021 26.125 101.146 27.34 99.9261 28.19C98.7061 29.03 97.2261 29.45 95.4861 29.45ZM112.352 29.45C110.742 29.45 109.327 29.1 108.107 28.4C106.897 27.69 105.952 26.705 105.272 25.445C104.602 24.175 104.267 22.705 104.267 21.035C104.267 19.265 104.597 17.73 105.257 16.43C105.927 15.13 106.857 14.125 108.047 13.415C109.237 12.705 110.622 12.35 112.202 12.35C113.852 12.35 115.257 12.735 116.417 13.505C117.577 14.265 118.442 15.35 119.012 16.76C119.592 18.17 119.822 19.845 119.702 21.785H116.567V20.645C116.547 18.765 116.187 17.375 115.487 16.475C114.797 15.575 113.742 15.125 112.322 15.125C110.752 15.125 109.572 15.62 108.782 16.61C107.992 17.6 107.597 19.03 107.597 20.9C107.597 22.68 107.992 24.06 108.782 25.04C109.572 26.01 110.712 26.495 112.202 26.495C113.182 26.495 114.027 26.275 114.737 25.835C115.457 25.385 116.017 24.745 116.417 23.915L119.492 24.89C118.862 26.34 117.907 27.465 116.627 28.265C115.347 29.055 113.922 29.45 112.352 29.45ZM106.577 21.785V19.34H118.142V21.785H106.577ZM123.368 29V6.95H126.503V29H123.368ZM133.197 36.2L136.332 27.665L136.377 30.185L129.312 12.8H132.582L137.862 26.225H136.902L141.942 12.8H145.122L136.182 36.2H133.197Z" fill="white"/>
<defs>
<filter id="filter0_d_4953_6044" x="1.26953" y="0.958984" width="27.5879" height="34.1445" filterUnits="userSpaceOnUse" color-interpolation-filters="sRGB">
<feFlood flood-opacity="0" result="BackgroundImageFix"/>
<feColorMatrix in="SourceAlpha" type="matrix" values="0 0 0 0 0 0 0 0 0 0 0 0 0 0 0 0 0 0 127 0" result="hardAlpha"/>
<feOffset dy="1"/>
<feGaussianBlur stdDeviation="0.5"/>
<feColorMatrix type="matrix" values="0 0 0 0 1 0 0 0 0 1 0 0 0 0 1 0 0 0 0.44 0"/>
<feBlend mode="normal" in2="BackgroundImageFix" result="effect1_dropShadow_4953_6044"/>
<feBlend mode="normal" in="SourceGraphic" in2="effect1_dropShadow_4953_6044" result="shape"/>
</filter>
</defs>
</svg>
