<svg width="199" height="36" viewBox="0 0 199 36" fill="none" xmlns="http://www.w3.org/2000/svg">
<rect y="1" width="32" height="34" rx="6" fill="#6B6B6B"/>
<path d="M47.2401 29H43.7457L51.5973 7.18182H55.4006L63.2521 29H59.7578L53.5895 11.1449H53.419L47.2401 29ZM47.826 20.456H59.1612V23.2259H47.826V20.456ZM75.7885 16.706V19.4759H66.1152V16.706H75.7885ZM80.2896 7.18182H84.2846L91.2306 24.142H91.4863L98.4324 7.18182H102.427V29H99.2953V13.2116H99.0929L92.6582 28.968H90.0588L83.6241 13.201H83.4217V29H80.2896V7.18182ZM114.01 29.3303C112.398 29.3303 111.01 28.9858 109.845 28.2969C108.687 27.6009 107.792 26.6243 107.16 25.3672C106.535 24.103 106.223 22.6222 106.223 20.9247C106.223 19.2486 106.535 17.7713 107.16 16.4929C107.792 15.2145 108.673 14.2166 109.802 13.4993C110.939 12.782 112.267 12.4233 113.787 12.4233C114.71 12.4233 115.605 12.576 116.471 12.8814C117.338 13.1868 118.115 13.6662 118.804 14.3196C119.493 14.973 120.037 15.8217 120.434 16.8658C120.832 17.9027 121.031 19.1634 121.031 20.6477V21.777H108.023V19.3906H117.909C117.909 18.5526 117.739 17.8104 117.398 17.1641C117.057 16.5107 116.578 15.9957 115.96 15.6193C115.349 15.2429 114.632 15.0547 113.808 15.0547C112.913 15.0547 112.132 15.2749 111.464 15.7152C110.804 16.1484 110.292 16.7166 109.93 17.4197C109.575 18.1158 109.397 18.8722 109.397 19.6889V21.5533C109.397 22.647 109.589 23.5774 109.973 24.3445C110.363 25.1115 110.907 25.6974 111.603 26.1023C112.299 26.5 113.112 26.6989 114.042 26.6989C114.646 26.6989 115.196 26.6136 115.694 26.4432C116.191 26.2656 116.62 26.0028 116.983 25.6548C117.345 25.3068 117.622 24.8771 117.814 24.3658L120.828 24.9091C120.587 25.7969 120.154 26.5746 119.529 27.2422C118.911 27.9027 118.133 28.4176 117.196 28.7869C116.265 29.1491 115.203 29.3303 114.01 29.3303ZM127.751 19.2841V29H124.565V12.6364H127.623V15.2997H127.825C128.202 14.4332 128.791 13.7372 129.594 13.2116C130.403 12.6861 131.422 12.4233 132.651 12.4233C133.766 12.4233 134.743 12.6577 135.581 13.1264C136.419 13.5881 137.069 14.277 137.53 15.1932C137.992 16.1094 138.223 17.2422 138.223 18.5916V29H135.037V18.9751C135.037 17.7891 134.729 16.8622 134.111 16.1946C133.493 15.5199 132.644 15.1825 131.564 15.1825C130.826 15.1825 130.169 15.3423 129.594 15.6619C129.025 15.9815 128.574 16.4503 128.241 17.0682C127.914 17.679 127.751 18.4176 127.751 19.2841ZM152.861 22.2138V12.6364H156.057V29H152.925V26.1662H152.754C152.378 27.0398 151.774 27.7678 150.943 28.3501C150.119 28.9254 149.093 29.2131 147.864 29.2131C146.813 29.2131 145.883 28.9822 145.073 28.5206C144.27 28.0518 143.638 27.3594 143.177 26.4432C142.722 25.527 142.495 24.3942 142.495 23.0447V12.6364H145.68V22.6612C145.68 23.7763 145.989 24.6641 146.607 25.3246C147.225 25.9851 148.028 26.3153 149.015 26.3153C149.611 26.3153 150.204 26.1662 150.794 25.8679C151.39 25.5696 151.884 25.1186 152.275 24.5149C152.672 23.9112 152.868 23.1442 152.861 22.2138Z" fill="white"/>
<g clip-path="url(#clip0_4975_6083)">
<path d="M20.0679 4H23.8536C23.76 4.03792 23.6701 4.09165 23.5726 4.11061C22.9868 4.22754 22.4555 4.46077 21.9877 4.82609C21.912 4.88551 21.8158 4.98095 21.8138 5.06122C21.8004 5.77986 21.8061 6.49914 21.8061 7.29616C21.9633 7.08379 22.0666 6.93905 22.1744 6.7981C22.9669 5.7647 24.367 5.37914 25.5867 5.85698C26.5171 6.22104 27.0452 6.98962 27.0555 8.0205C27.0645 8.94393 27.0574 9.86799 27.0574 10.8167H28.5942C28.6179 10.8199 28.6423 10.823 28.666 10.8262V12.5959C28.6128 12.5985 28.5601 12.6035 28.5069 12.6035C27.5232 12.6054 26.5396 12.6023 25.5559 12.6143C25.4597 12.6155 25.2845 12.7072 25.282 12.7622C25.2608 13.2741 25.2691 13.7867 25.2691 14.3385H27.0112V24.9842H28.6654V32H24.8796C24.9663 31.9791 25.0516 31.9545 25.1389 31.9374C25.513 31.8635 25.9223 31.8635 26.256 31.7067C27.4745 31.1335 28.2881 30.2062 28.58 28.8796C28.6038 28.7727 28.5954 28.6596 28.6031 28.5262C28.1097 28.5262 27.6516 28.5168 27.1941 28.5344C27.1113 28.5376 26.9875 28.6368 26.9599 28.7171C26.589 29.8112 25.7831 30.3535 24.6018 30.3465C21.0676 30.3257 17.5334 30.3409 13.9998 30.3326C11.5866 30.327 9.17396 30.3112 6.76071 30.2897C6.0318 30.2833 5.48704 29.9003 5.06611 29.353C4.87683 29.1065 4.82678 28.683 4.59386 28.561C4.32693 28.4213 3.92719 28.5269 3.58519 28.5262C3.57428 28.5262 3.56401 28.5262 3.5531 28.5262C3.11486 28.5275 3.03465 28.6033 3.1418 29.0249C3.47867 30.3548 4.28138 31.2877 5.60895 31.7516C5.86946 31.8426 6.13575 31.9172 6.39946 32H3V26.754C3.47097 26.7666 3.94579 26.7495 4.41163 26.8033C4.70487 26.8368 4.73566 26.728 4.73438 26.4986C4.72861 25.5189 4.73181 24.5392 4.73181 23.5602C4.73181 23.0021 4.72668 22.4433 4.73438 21.8852C4.73695 21.6925 4.77096 21.5111 5.04237 21.5054C5.76551 21.4908 6.48801 21.4592 7.21051 21.4479C7.42996 21.4441 7.65004 21.4984 7.87077 21.5009C8.55156 21.5085 9.23299 21.5035 9.94651 21.5035V24.9836C10.4393 24.9836 10.8994 24.9722 11.3581 24.988C11.6033 24.9962 11.6815 24.9039 11.6636 24.6745C11.6334 24.2896 11.6045 23.904 11.6065 23.5185C11.6065 23.4167 11.72 23.2315 11.7887 23.2284C12.2924 23.2031 12.7974 23.2151 13.2677 23.2151C13.2677 23.758 13.2613 24.2618 13.2715 24.7649C13.2748 24.9172 13.3659 24.9924 13.5436 24.988C14.0781 24.976 14.6126 24.9836 15.1471 24.9836C15.6245 24.9836 16.1025 24.9836 16.5953 24.9836C16.6203 25.4968 16.6453 25.9753 16.6652 26.4537C16.6755 26.699 16.6158 26.838 16.2995 26.8254C15.2459 26.7824 14.1904 26.7622 13.1355 26.7584C12.4342 26.7558 11.7329 26.7982 11.0315 26.8159C10.7749 26.8222 10.5169 26.8336 10.2622 26.8127C9.96383 26.7874 9.83358 26.8721 9.8586 27.1926C9.88684 27.5484 9.85989 27.9087 9.86759 28.2665C9.87015 28.3853 9.9048 28.5028 9.91956 28.5901H20.1032V26.8172C20.4664 26.8172 20.7737 26.826 21.0804 26.814C21.2768 26.8064 21.4718 26.7679 21.6675 26.7432C21.6913 26.7432 21.7144 26.7432 21.7381 26.7432C21.7664 26.1611 21.7946 25.5783 21.826 24.9343H16.6627V23.1487C17.7881 23.1487 18.9136 23.1487 20.0852 23.1487V14.3663C20.5953 14.3663 21.0952 14.3676 21.5944 14.3657C21.8004 14.3651 21.8004 14.4997 21.7997 14.6457C21.7978 15.2379 21.7991 15.8308 21.7991 16.423C21.7991 18.5929 21.8016 20.7621 21.7952 22.9319C21.7946 23.1588 21.8793 23.2239 22.0968 23.2182C22.5562 23.2069 23.0156 23.2144 23.5315 23.2144C23.5315 23.5286 23.5386 23.837 23.5303 24.1448C23.5136 24.7725 23.4789 25.4001 23.4699 26.0277C23.459 26.8172 23.4674 26.8172 22.657 26.8172H21.7991C21.7991 27.3247 21.828 27.7798 21.7895 28.2292C21.7619 28.5547 21.8934 28.6507 22.1821 28.6501C23.1125 28.6495 24.0423 28.6526 24.9727 28.6476C25.203 28.6463 25.3397 28.5528 25.3326 28.2848C25.3172 27.6837 25.3282 27.082 25.3282 26.4803V21.1261C25.3282 19.5751 25.3307 18.0247 25.323 16.4736C25.323 16.363 25.2653 16.1651 25.212 16.1576C24.8796 16.1108 24.5415 16.095 24.2046 16.0925C23.989 16.0906 23.7728 16.1291 23.5309 16.1519V15.7897C23.5309 14.5995 23.5039 13.4088 23.5437 12.2199C23.5598 11.7357 23.4776 11.3982 22.9624 11.2693C22.9239 11.2598 22.8899 11.2288 22.8565 11.2048C22.1456 10.6922 21.6778 10.0386 21.647 9.10953H20.0487V7.43079H16.6858V10.9033H21.7837V12.589H16.655V16.198C17.1779 16.198 17.6495 16.2258 18.1154 16.1866C18.3611 16.1664 18.4015 16.234 18.4003 16.4407C18.3951 17.4204 18.3913 18.3995 18.4028 19.3791C18.4054 19.6225 18.313 19.687 18.0826 19.68C17.6168 19.6667 17.1503 19.6762 16.6684 19.6762V23.1557H14.9969C14.9969 22.669 14.9847 22.2183 15.0021 21.7683C15.0117 21.5199 14.9328 21.4371 14.6748 21.4409C13.7772 21.4548 12.8789 21.4466 11.9805 21.4453C11.8785 21.4453 11.7759 21.4371 11.6604 21.4314C11.6604 20.9492 11.6514 20.4972 11.6636 20.046C11.6713 19.7685 11.5757 19.668 11.2786 19.6699C9.23684 19.6819 7.19447 19.6762 5.1521 19.6762H4.72989V17.7857C4.72989 14.5104 4.72476 11.2351 4.73438 7.95982C4.73631 7.38528 4.91597 6.84614 5.28877 6.39296C5.88486 5.66799 6.74916 5.69264 7.5724 5.65788C8.3488 5.62501 9.12776 5.65093 9.92726 5.65093V4H13.328C13.3338 4.02402 13.3402 4.0474 13.346 4.07142V5.62375H20.0538V4.06889C20.0576 4.04614 20.0615 4.02275 20.0653 4H20.0679ZM8.1223 24.921V23.2941H6.53999V24.9229C6.53999 26.0808 6.53999 27.2387 6.53999 28.3967C6.62212 28.4358 6.70425 28.4744 6.78638 28.5136H8.1223V24.9216V24.921ZM11.5641 14.3783H8.13577C8.13577 13.8398 8.14219 13.3456 8.12935 12.8519C8.12743 12.7672 8.0453 12.6136 7.99589 12.6117C7.50952 12.5934 7.02187 12.601 6.51753 12.601C6.51753 12.7299 6.51625 12.8134 6.51753 12.8968C6.53806 13.9966 6.56694 15.0963 6.57656 16.1968C6.58041 16.6449 6.55346 17.0943 6.52394 17.5418C6.50855 17.7769 6.5926 17.8591 6.83258 17.8483C7.48129 17.8192 8.13064 17.7996 8.77999 17.7921C9.58141 17.7832 10.3835 17.7902 11.1849 17.7902C11.2972 17.7902 11.4095 17.7902 11.5628 17.7902V14.379L11.5641 14.3783ZM8.10946 10.8205C8.13834 10.3136 8.18133 9.84397 8.18454 9.37499C8.18646 9.12154 8.27308 9.05138 8.5214 9.05391C9.46142 9.06465 10.4014 9.05201 11.3415 9.06023C11.5718 9.06212 11.6725 9.00018 11.6604 8.75747C11.6437 8.42185 11.652 8.08433 11.6571 7.74745C11.661 7.51169 11.5917 7.39413 11.3119 7.39666C9.80599 7.41056 8.30003 7.40424 6.79408 7.40614C6.70361 7.40614 6.61249 7.41941 6.54255 7.4251V10.8199H8.10946V10.8205ZM14.918 14.3183V7.43395H13.3594V14.3183H14.918ZM14.9482 16.0786C14.5054 16.0786 14.1031 16.0994 13.7047 16.0716C13.3902 16.0495 13.3235 16.1809 13.3267 16.454C13.3376 17.4103 13.3325 18.3672 13.3351 19.3235C13.3351 19.4139 13.3479 19.5043 13.355 19.5928H16.6145C16.6145 19.1295 16.5959 18.6877 16.621 18.2484C16.6376 17.9488 16.4984 17.8869 16.2424 17.9046C15.9357 17.9261 15.627 17.9298 15.3203 17.952C15.047 17.9716 14.9341 17.8673 14.9437 17.5885C14.9597 17.1177 14.9482 16.6461 14.9482 16.0786ZM9.92726 10.8546C9.92726 11.4096 9.91956 11.943 9.93817 12.4758C9.94009 12.5372 10.0883 12.6408 10.1724 12.6446C10.567 12.6629 10.9629 12.6629 11.3575 12.6446C11.4428 12.6408 11.5923 12.5365 11.5943 12.4746C11.6129 11.9329 11.6052 11.3906 11.6052 10.854H9.92726V10.8546ZM23.5341 8.79413C23.5303 9.33833 23.9261 9.75359 24.4465 9.75106C24.9457 9.74853 25.3756 9.34655 25.3859 8.87251C25.3962 8.41363 24.9194 7.92253 24.4626 7.92063C23.9499 7.9181 23.5373 8.30619 23.5341 8.79476V8.79413Z" fill="#FDFDFE"/>
<path d="M16.6636 23.1487V24.9343H21.827C21.8283 26.1522 21.8071 26.7622 21.7641 26.7641C21.7243 26.7653 21.6659 26.2572 21.5889 25.2383C20.5694 25.1612 20.2736 25.1062 20.2742 25.067C20.2761 24.9918 21.3528 25.1011 21.4163 25.1081C21.4715 25.1138 21.5735 25.1277 21.6371 25.2035C21.6769 25.2509 21.6858 25.3046 21.6897 25.3325C21.7102 25.4797 21.7397 26.0265 21.7641 26.7647C21.7096 26.7679 21.6268 26.7729 21.5261 26.7773C21.3092 26.7868 21.1481 26.7893 21.0981 26.79C20.9306 26.7925 20.6412 26.7995 20.1042 26.8184V28.5913H9.92053C9.90578 28.5041 9.87113 28.3865 9.86856 28.2677C9.86086 27.91 9.88717 27.5497 9.85958 27.1939C9.83455 26.8734 9.96481 26.7893 10.2632 26.814C10.5179 26.8355 10.7765 26.8241 11.0325 26.8172C11.7338 26.7995 12.4352 26.7571 13.1365 26.7596C14.1914 26.7634 15.2469 26.7837 16.3005 26.8266C16.6168 26.8393 16.6765 26.7002 16.6662 26.455C16.6463 25.9765 16.6206 25.4981 16.5963 24.9848C16.1035 24.9848 15.6261 24.9848 15.1481 24.9848C14.6136 24.9848 14.0784 24.9772 13.5446 24.9893C13.3668 24.993 13.2757 24.9178 13.2725 24.7661C13.2623 24.2624 13.2687 23.7586 13.2687 23.2163C12.7983 23.2163 12.2934 23.205 11.7897 23.2296C11.721 23.2328 11.6081 23.4186 11.6074 23.5197C11.6049 23.9053 11.6344 24.2908 11.6645 24.6758C11.6825 24.9052 11.6042 24.9981 11.3591 24.9893C10.9003 24.9735 10.4403 24.9848 9.94748 24.9848V21.5047C9.23333 21.5047 8.55254 21.5092 7.87175 21.5022C7.65166 21.4997 7.43157 21.446 7.21149 21.4491C6.48835 21.4605 5.76585 21.4921 5.04335 21.5066C4.77257 21.5123 4.73857 21.6931 4.73536 21.8865C4.72766 22.4446 4.73279 23.0027 4.73279 23.5614C4.73279 24.5411 4.72958 25.5208 4.73536 26.4999C4.73664 26.7293 4.70584 26.838 4.41261 26.8045C3.94613 26.7508 3.47195 26.7685 3.00098 26.7552V7.60271C3.04333 7.37643 3.08311 7.14953 3.12866 6.92388C3.37313 5.70718 4.13926 4.90131 5.24098 4.38492C5.60672 4.21363 6.01288 4.12578 6.40044 4H9.92952V5.64966C9.13002 5.64966 8.35106 5.62375 7.57466 5.65661C6.75142 5.69138 5.88776 5.66673 5.29103 6.39169C4.91823 6.84488 4.73857 7.38339 4.73664 7.95856C4.72702 11.2339 4.73215 14.5092 4.73215 17.7845V19.6749H5.15436C7.19673 19.6749 9.23846 19.6806 11.2808 19.6686C11.5779 19.6667 11.6735 19.7672 11.6658 20.0447C11.653 20.496 11.6626 20.9485 11.6626 21.4302C11.7781 21.4352 11.8801 21.4434 11.9828 21.4441C12.8811 21.4453 13.7794 21.4529 14.6771 21.4396C14.935 21.4358 15.014 21.5186 15.0043 21.767C14.987 22.2171 14.9992 22.6677 14.9992 23.1544C15.5542 23.1525 16.1093 23.1506 16.6643 23.1487H16.6636Z" fill="#6B6B6B"/>
<path d="M6.40084 31.9997C6.13712 31.9175 5.87084 31.8423 5.61033 31.7513C4.28275 31.2874 3.48005 30.3544 3.14318 29.0246C3.03603 28.6024 3.11623 28.5272 3.55448 28.5259C3.56539 28.5259 3.57565 28.5259 3.58656 28.5259C3.92856 28.5265 4.32831 28.421 4.59524 28.5607C4.82816 28.6827 4.87756 29.1061 5.06749 29.3526C5.48841 29.9 6.03317 30.2824 6.76209 30.2893C9.17534 30.3115 11.5879 30.3273 14.0012 30.3323C17.5354 30.3405 21.0696 30.3247 24.6032 30.3462C25.7838 30.3532 26.5904 29.8109 26.9612 28.7168C26.9882 28.6365 27.1127 28.5373 27.1954 28.5341C27.6529 28.5164 28.1111 28.5259 28.6045 28.5259C28.5968 28.6593 28.6045 28.7724 28.5814 28.8792C28.2895 30.2053 27.4765 31.1325 26.2574 31.7064C25.9237 31.8632 25.5143 31.8632 25.1402 31.9371C25.053 31.9542 24.9676 31.9788 24.881 31.9997H23.5977C23.5432 31.9782 23.4893 31.9384 23.4347 31.9384C21.051 31.939 18.6673 31.9434 16.2835 31.9472C14.4863 31.9472 12.689 31.9472 10.8918 31.9472C9.53402 31.9428 8.17565 31.9377 6.81791 31.9365C6.76466 31.9365 6.7114 31.9776 6.65814 31.9997H6.40148H6.40084Z" fill="#6B6B6B"/>
<path d="M28.6657 24.984H27.0115V14.3383H25.2694C25.2694 13.7865 25.2604 13.2739 25.2822 12.7619C25.2848 12.7069 25.46 12.6153 25.5562 12.614C26.5399 12.602 27.5235 12.6046 28.5072 12.6033C28.5604 12.6033 28.6131 12.5982 28.6663 12.5957V12.7221C28.6451 12.8195 28.6073 12.9168 28.6054 13.0141C28.5989 13.3788 28.6041 13.7441 28.6047 14.1088C28.6041 15.5809 28.6021 17.0529 28.6047 18.5256C28.6047 18.6135 28.6445 18.702 28.6657 18.7898V20.37C28.6445 20.4686 28.6054 20.5665 28.6047 20.6651C28.6002 21.4103 28.6034 22.1555 28.6041 22.9007C28.6034 23.4557 28.5989 24.0106 28.6041 24.5649C28.6047 24.6629 28.6445 24.7602 28.6657 24.8576V24.984Z" fill="#6B6B6B"/>
<path d="M28.5939 10.8167H27.0572C27.0572 9.86799 27.0642 8.94393 27.0553 8.0205C27.045 6.98962 26.5169 6.22167 25.5865 5.85697C24.3667 5.37914 22.9667 5.76469 22.1742 6.7981C22.0664 6.93905 21.9625 7.08379 21.8059 7.29616C21.8059 6.49914 21.8001 5.77986 21.8136 5.06122C21.8149 4.98095 21.9111 4.88488 21.9875 4.82609C22.4559 4.4614 22.9866 4.22754 23.5724 4.11061C23.6699 4.09102 23.7597 4.03792 23.8534 4C24.2596 4 24.6664 4 25.0726 4C25.1277 4.02149 25.1816 4.0512 25.2387 4.06321C26.8711 4.41273 28.0524 5.25463 28.4797 6.92767C28.5323 7.13372 28.6029 7.33535 28.6652 7.5395V7.60271C28.6433 7.70889 28.6036 7.81445 28.6029 7.92126C28.5959 8.88641 28.5959 9.85156 28.5933 10.8167H28.5939Z" fill="#6B6B6B"/>
<path d="M28.6658 7.5395C28.6036 7.33598 28.533 7.13436 28.4804 6.92767C28.0531 5.25463 26.8711 4.41273 25.2394 4.06321C25.1823 4.0512 25.1284 4.02149 25.0732 4C26.2712 4 27.4685 4 28.6665 4V7.5395H28.6658Z" fill="#6B6B6B"/>
<path d="M6.40075 4C6.01319 4.12578 5.60703 4.21363 5.24129 4.38492C4.13957 4.90131 3.37344 5.70718 3.12769 6.92388C3.08213 7.14953 3.04235 7.37643 3 7.60271V4C4.1338 4 5.26695 4 6.40075 4Z" fill="#FEFEFE"/>
<path d="M16.2829 31.9483C18.6666 31.9445 21.0503 31.9401 23.4341 31.9395C23.4886 31.9395 23.5425 31.9793 23.597 32.0008H16.2822C16.2822 31.9831 16.2822 31.9654 16.2829 31.9483Z" fill="#6B6B6B"/>
<path d="M13.349 4.07142C13.3432 4.0474 13.3368 4.02402 13.3311 4C15.5768 4 17.8226 4 20.0684 4C20.0645 4.02275 20.0607 4.04614 20.0568 4.06889C17.8207 4.06953 15.5852 4.07016 13.349 4.07079V4.07142Z" fill="#6B6B6B"/>
<path d="M16.2824 31.9473C16.2824 31.965 16.2824 31.982 16.2818 31.9997H10.8919C10.8919 31.982 10.8913 31.965 10.8906 31.9473C12.6879 31.9473 14.4852 31.9473 16.2824 31.9473Z" fill="#6B6B6B"/>
<path d="M28.6662 18.7897C28.6451 18.7019 28.6053 18.6134 28.6053 18.5255C28.6021 17.0535 28.604 15.5814 28.6053 14.1094C28.6258 14.1113 28.6463 14.1125 28.6669 14.1132V18.7904L28.6662 18.7897Z" fill="#6B6B6B"/>
<path d="M10.8908 31.9482C10.8908 31.9659 10.8921 31.983 10.8921 32.0007H6.65723C6.71048 31.9786 6.76374 31.9375 6.817 31.9375C8.17473 31.9381 9.5331 31.9438 10.8908 31.9482Z" fill="#6B6B6B"/>
<path d="M28.5938 10.8175C28.5963 9.85236 28.5963 8.88722 28.6034 7.92207C28.604 7.81589 28.6438 7.7097 28.6656 7.60352V10.827C28.6419 10.8238 28.6175 10.8207 28.5938 10.8175Z" fill="#6B6B6B"/>
<path d="M28.6042 22.9018C28.6036 22.1566 28.6004 21.4115 28.6049 20.6663C28.6049 20.5677 28.6447 20.4697 28.6658 20.3711V22.8993C28.6453 22.8993 28.6248 22.9006 28.6042 22.9018Z" fill="#6B6B6B"/>
<path d="M28.6042 22.901C28.6247 22.8997 28.6452 22.8991 28.6658 22.8984V24.8578C28.6439 24.7605 28.6048 24.6631 28.6042 24.5652C28.599 24.0102 28.6029 23.4559 28.6042 22.901Z" fill="#6B6B6B"/>
<path d="M28.6657 14.1132C28.6452 14.1125 28.6246 14.1113 28.6041 14.1094C28.6035 13.7447 28.5983 13.3794 28.6048 13.0147C28.6067 12.9167 28.6445 12.82 28.6657 12.7227V14.1132Z" fill="#6B6B6B"/>
<path d="M16.6697 23.1546V19.6751C17.1516 19.6751 17.6181 19.6656 18.0839 19.6789C18.3149 19.6858 18.4073 19.6207 18.4041 19.378C18.3926 18.399 18.3964 17.4193 18.4015 16.4396C18.4028 16.2329 18.3624 16.1653 18.1166 16.1855C17.6508 16.2241 17.1792 16.1969 16.6562 16.1969V12.5879H21.785V10.9022H16.687V7.42969H20.0499V9.10842H21.6483C21.6791 10.0375 22.1469 10.6911 22.8578 11.2037C22.8912 11.2277 22.9252 11.2587 22.9637 11.2682C23.4783 11.3971 23.5611 11.7346 23.545 12.2188C23.5052 13.4077 23.5322 14.5984 23.5322 15.7886V16.1508C23.7741 16.128 23.9897 16.0895 24.2059 16.0914C24.5428 16.0939 24.8809 16.1097 25.2133 16.1565C25.2659 16.164 25.3237 16.3625 25.3243 16.4725C25.3314 18.0235 25.3294 19.574 25.3294 21.125C25.3294 22.1679 25.3294 23.2102 25.3294 24.2531C25.3294 24.9951 25.3294 25.7371 25.3294 26.4792C25.3294 27.0809 25.3192 27.6826 25.3339 28.2837C25.341 28.551 25.2043 28.6452 24.974 28.6465C24.0436 28.6515 23.1138 28.6477 22.1834 28.649C21.8947 28.649 21.7631 28.5536 21.7907 28.2281C21.8292 27.7787 21.8004 27.3236 21.8004 26.8161H22.6582C23.4687 26.8161 23.4603 26.8161 23.4712 26.0266C23.4796 25.399 23.5149 24.7714 23.5315 24.1437C23.5399 23.8359 23.5328 23.5275 23.5328 23.2133C23.0176 23.2133 22.5575 23.2051 22.0981 23.2171C21.8806 23.2228 21.7959 23.1577 21.7965 22.9308C21.8029 20.761 21.8004 18.5918 21.8004 16.4219C21.8004 15.8297 21.7991 15.2368 21.801 14.6446C21.801 14.4986 21.801 14.364 21.5957 14.3646C21.0958 14.3665 20.5966 14.3652 20.0865 14.3652V23.1476C18.9149 23.1476 17.7894 23.1476 16.6639 23.1476L16.6697 23.1533V23.1546Z" fill="#6B6B6B"/>
<path d="M11.5644 14.3789V17.7901C11.4111 17.7901 11.2988 17.7901 11.1865 17.7901C10.3851 17.7901 9.58301 17.7832 8.78158 17.792C8.13223 17.7996 7.48288 17.8192 6.83418 17.8483C6.5942 17.859 6.51014 17.7775 6.52554 17.5417C6.55506 17.0942 6.58201 16.6448 6.57816 16.1967C6.56789 15.0969 6.53966 13.9972 6.51913 12.8968C6.51784 12.8133 6.51913 12.7299 6.51913 12.601C7.02346 12.601 7.51047 12.594 7.99749 12.6117C8.04689 12.6136 8.12838 12.7672 8.13095 12.8519C8.14378 13.3455 8.13737 13.8398 8.13737 14.3783H11.5657L11.5644 14.3789Z" fill="#6B6B6B"/>
<path d="M8.10988 10.8197H6.54297V7.42497C6.61291 7.41928 6.70338 7.40601 6.7945 7.40601C8.30045 7.40348 9.8064 7.4098 11.3124 7.39652C11.5921 7.394 11.6608 7.51156 11.6576 7.74731C11.6524 8.0842 11.6434 8.42108 11.6608 8.75734C11.673 9.00005 11.5716 9.06199 11.3419 9.06009C10.4019 9.05124 9.46184 9.06452 8.52182 9.05377C8.2735 9.05061 8.18624 9.1214 8.18495 9.37485C8.18174 9.84447 8.13875 10.3135 8.10988 10.8204V10.8197Z" fill="#6B6B6B"/>
<path d="M14.9179 14.3179H13.3594V7.43359H14.9179V14.3179Z" fill="#6B6B6B"/>
<path d="M13.3486 4.07221C15.5848 4.07158 17.8203 4.07094 20.0564 4.07031V5.62517H13.3486V4.07221Z" fill="#6B6B6B"/>
<path d="M14.9477 16.0777C14.9477 16.6453 14.9593 17.1168 14.9432 17.5877C14.9336 17.8664 15.0465 17.9707 15.3199 17.9511C15.6266 17.929 15.9352 17.9252 16.2419 17.9037C16.498 17.886 16.6378 17.9473 16.6205 18.2475C16.5961 18.6868 16.6141 19.1286 16.6141 19.5919H13.3545C13.3481 19.5034 13.3353 19.4131 13.3346 19.3227C13.3321 18.3664 13.3372 17.4094 13.3263 16.4531C13.3231 16.1801 13.3898 16.0486 13.7042 16.0708C14.1027 16.0986 14.505 16.0777 14.9477 16.0777Z" fill="#6B6B6B"/>
<path d="M6.78707 28.5138C6.70494 28.4746 6.62281 28.4361 6.54068 28.3969C6.55801 28.328 6.59073 28.2597 6.59137 28.1908C6.59458 27.1707 6.59522 26.1499 6.59137 25.1298C6.59137 25.0609 6.55801 24.9926 6.54004 24.9237V23.2949H8.12235C8.12235 23.8385 8.12235 24.3802 8.12235 24.9218C8.10438 25.0223 8.07102 25.1228 8.07038 25.2233C8.06717 26.203 8.06203 27.1827 8.07423 28.1624C8.07743 28.3988 8.00621 28.4733 7.76559 28.4683C7.43963 28.4613 7.11239 28.4967 6.78643 28.5144L6.78707 28.5138Z" fill="#6B6B6B"/>
<path d="M9.92736 10.8555H11.6053C11.6053 11.3915 11.613 11.9344 11.5944 12.4761C11.5924 12.538 11.4423 12.6417 11.3576 12.6461C10.963 12.6644 10.5671 12.6644 10.1725 12.6461C10.0884 12.6423 9.94019 12.5386 9.93827 12.4773C9.91966 11.9445 9.92736 11.411 9.92736 10.8561V10.8555Z" fill="#6B6B6B"/>
<path d="M23.5342 8.79406C23.5374 8.30612 23.95 7.91741 24.4627 7.91993C24.9195 7.92183 25.3963 8.41357 25.386 8.87181C25.3757 9.34648 24.9458 9.74847 24.4466 9.75036C23.9263 9.75289 23.5304 9.33763 23.5342 8.79343V8.79406Z" fill="#6B6B6B"/>
<path d="M6.78711 28.5125C7.11371 28.4955 7.44031 28.4594 7.76627 28.4664C8.00625 28.4714 8.07747 28.3969 8.0749 28.1605C8.06207 27.1808 8.0672 26.2011 8.07105 25.2214C8.07105 25.1209 8.10506 25.0204 8.12303 24.9199C8.12303 26.1069 8.12303 27.2933 8.12303 28.5119H6.78711V28.5125Z" fill="#6B6B6B"/>
<path d="M6.54004 24.9225C6.55801 24.9914 6.59137 25.0597 6.59137 25.1286C6.59458 26.1487 6.59458 27.1695 6.59137 28.1896C6.59137 28.2585 6.55865 28.3268 6.54068 28.3956C6.54068 27.2377 6.54068 26.0798 6.54068 24.9219L6.54004 24.9225Z" fill="#6B6B6B"/>
</g>
<defs>
<clipPath id="clip0_4975_6083">
<rect x="3" y="4" width="25.6667" height="28" rx="5" fill="white"/>
</clipPath>
</defs>
</svg>
